<svg width="24" height="24" viewBox="0 0 24 24" fill="none" xmlns="http://www.w3.org/2000/svg">
<path fill-rule="evenodd" clip-rule="evenodd" d="M12 7C9.23858 7 7 9.23858 7 12C7 14.7614 9.23858 17 12 17C14.7614 17 17 14.7614 17 12C17 9.23858 14.7614 7 12 7ZM8.66667 12C8.66667 10.1591 10.1591 8.66667 12 8.66667C13.8409 8.66667 15.3333 10.1591 15.3333 12C15.3333 13.8409 13.8409 15.3333 12 15.3333C10.1591 15.3333 8.66667 13.8409 8.66667 12Z" fill="white"/>
<path d="M18.6667 6.58333C18.6667 7.27369 18.107 7.83333 17.4167 7.83333C16.7263 7.83333 16.1667 7.27369 16.1667 6.58333C16.1667 5.89297 16.7263 5.33333 17.4167 5.33333C18.107 5.33333 18.6667 5.89297 18.6667 6.58333Z" fill="white"/>
<path fill-rule="evenodd" clip-rule="evenodd" d="M7.83333 2C4.61167 2 2 4.61167 2 7.83333V16.1667C2 19.3883 4.61167 22 7.83333 22H16.1667C19.3883 22 22 19.3883 22 16.1667V7.83333C22 4.61167 19.3883 2 16.1667 2H7.83333ZM3.66667 7.83333C3.66667 5.53215 5.53215 3.66667 7.83333 3.66667H16.1667C18.4679 3.66667 20.3333 5.53215 20.3333 7.83333V16.1667C20.3333 18.4679 18.4679 20.3333 16.1667 20.3333H7.83333C5.53215 20.3333 3.66667 18.4679 3.66667 16.1667V7.83333Z" fill="white"/>
</svg>
