<svg width="329" height="62" viewBox="0 0 329 62" fill="none" xmlns="http://www.w3.org/2000/svg">
<path d="M32.1733 1.74297C33.9775 1.74297 35.7816 1.94217 37.4855 2.24096C34.6791 1.29478 31.6722 0.746988 28.515 0.746988C20.8475 0.746988 13.8816 3.83454 8.87022 8.81446C3.8588 13.7944 0.751714 20.7165 0.751714 28.3357C0.751714 31.6225 1.35308 34.7598 2.40548 37.698C2.00457 35.8056 1.80411 33.8635 1.80411 31.8715C1.80411 15.2386 15.3851 1.74297 32.1733 1.74297ZM48.1598 47.857C53.1712 42.8771 56.2783 35.955 56.2783 28.3357C56.2783 25.049 55.6769 21.9116 54.6245 18.9735C53.4719 17.0313 52.1188 15.1888 50.5152 13.5952C45.8044 8.96385 39.3397 6.0755 32.1733 6.0755C25.007 6.0755 18.4922 8.96386 13.8315 13.645C9.07068 18.2763 6.21417 24.7502 6.21417 31.8715C6.21417 38.9928 9.12079 45.4667 13.8315 50.098C15.5855 51.841 17.54 53.2851 19.6949 54.4803C22.5013 55.4265 25.458 55.9245 28.515 55.9245C36.1825 55.9743 43.1484 52.8867 48.1598 47.857ZM50.5152 50.098C55.2259 45.4169 58.1325 38.9928 58.1325 31.8715C58.1325 28.7341 57.5312 25.7462 56.5289 22.9574C56.8797 24.7004 57.0801 26.4932 57.0801 28.3357C57.0801 43.9727 44.301 56.6715 28.5651 56.6715C26.9113 56.6715 25.3077 56.5221 23.704 56.2233C26.3601 57.1197 29.2166 57.6675 32.2235 57.6675C39.3397 57.6675 45.8044 54.7791 50.5152 50.098ZM62.4925 31.8715C62.4925 48.5044 48.9115 62 32.1733 62C19.1436 62 8.01828 53.7831 3.75857 42.3293C1.35308 38.196 0 33.4153 0 28.3357C0 12.6988 12.7791 0 28.515 0C33.4262 0 38.0868 1.24498 42.096 3.43614C53.973 7.51968 62.4925 18.6747 62.4925 31.8715Z" fill="white"/>
<path d="M100.225 27.9871V27.3895V26.792V26.3936V25.9952C100.225 25.547 100.225 25.1486 100.225 24.7502C100.175 24.3518 100.125 23.9036 99.9746 23.4554C99.7241 22.7582 99.3232 22.1108 98.822 21.563C98.3209 21.0152 97.6694 20.6168 96.9678 20.3181C96.3664 20.0691 95.7149 19.9197 95.1136 19.8699C94.4621 19.8201 93.8607 19.7703 93.2593 19.7703H90.4529H89.5008C89.2001 19.7703 88.8994 19.8201 88.6488 19.9197C88.3982 20.0193 88.1978 20.1687 88.0474 20.4177C87.8971 20.6666 87.847 21.0152 87.847 21.4634V22.1108L87.8971 22.7582V23.3558V23.9534V24.4016L87.847 24.8498L87.7969 25.3478V25.8956V41.3333C87.7969 41.6819 87.8971 42.0305 88.0474 42.2795C88.1978 42.5783 88.5486 42.7277 88.9996 42.7277C89.3504 42.7277 89.601 42.6281 89.7513 42.4787C89.9518 42.3293 90.052 42.0803 90.1021 41.8313C90.1522 41.5823 90.2024 41.2835 90.2024 40.9847C90.2024 40.6859 90.2024 40.4369 90.2024 40.1381V39.7398V39.1422V38.5446C90.1522 38.1462 90.1522 37.7478 90.1522 37.3494C90.1522 36.951 90.1522 36.5526 90.2525 36.204V36.0546V35.8554H91.8561C92.2069 35.8554 92.6078 35.8554 92.9586 35.8554C93.3094 35.8554 93.7104 35.8554 94.0612 35.8554L94.5122 36.1542L94.7628 36.8016C94.863 37.1004 94.9632 37.3494 95.0634 37.5486L95.0133 37.4988L95.5145 38.445V38.3952C95.6147 38.7438 95.7149 39.0426 95.8653 39.2916C95.9655 39.5406 96.1158 39.7896 96.2161 40.0386C96.3664 40.2875 96.4666 40.5365 96.5669 40.7357L96.8174 41.2337C96.9177 41.5325 97.068 41.7815 97.2184 42.0803C97.3687 42.3791 97.6193 42.5783 97.9701 42.6779L97.92 42.6281L98.1705 42.7277H98.371C98.7218 42.7277 98.9724 42.6281 99.1227 42.4289C99.273 42.2297 99.3733 41.9807 99.3733 41.6819C99.3733 41.2835 99.273 40.8353 99.0726 40.4369C98.8721 40.0385 98.6717 39.6402 98.4712 39.2916C98.2206 38.943 98.1204 38.7438 98.0703 38.6442L98.0202 38.5446L97.92 38.3952L97.7696 38.1462L97.7195 38.0466L97.6694 37.947C97.5692 37.698 97.4689 37.4988 97.3687 37.2498L97.1181 36.702L96.9177 36.3036L96.7673 35.955L96.617 35.5566L97.0179 35.457C97.1682 35.457 97.3687 35.3574 97.6193 35.208L97.5692 35.2578C98.1705 34.959 98.6216 34.6104 99.0225 34.212C99.3733 33.8136 99.674 33.3157 99.8243 32.7679C100.025 32.2201 100.125 31.7221 100.175 31.1245C100.225 30.5767 100.275 29.9791 100.275 29.4313V28.7341C100.275 28.4353 100.225 28.1863 100.225 27.9871ZM97.92 29.6305C97.92 31.1245 97.5692 32.1205 96.8676 32.7181C96.166 33.2659 95.1136 33.5647 93.7104 33.5647H92.7582C92.4074 33.5149 92.0566 33.5149 91.7058 33.5647C91.355 33.5647 90.9541 33.5647 90.6033 33.5647H90.1021C90.1522 33.2161 90.2024 32.9173 90.2024 32.7679V31.9711C90.2024 31.5727 90.2024 31.1743 90.2024 30.7261C90.2024 30.3277 90.2024 29.8795 90.2024 29.4811C90.2024 29.0827 90.1522 28.6843 90.1522 28.2859V27.041V25.0988C90.1522 24.7502 90.1522 24.4514 90.1522 24.1028C90.1522 23.7542 90.1522 23.4056 90.1522 23.057V22.6586V22.2602V22.1606V22.061H90.8037H91.2548H91.7058L92.1568 22.1108H92.658H93.1591L93.6602 22.061L94.1614 22.0112H94.6124C95.5646 22.0112 96.3163 22.31 97.0179 22.9076C97.6694 23.5052 98.0202 24.2522 98.0202 25.1984C98.0202 25.5968 98.0202 25.9454 98.0202 26.3438C98.0202 26.7422 98.0202 27.0907 98.0202 27.4393V29.6305H97.92Z" fill="white"/>
<path d="M112.206 22.4594C112.256 22.2104 112.256 22.0112 112.256 21.7622V21.1148L112.155 20.7164L111.955 20.318L111.554 19.9197L110.953 19.7205C110.652 19.7205 110.401 19.8201 110.251 19.9695C110.101 20.1189 110.001 20.318 109.9 20.567C109.85 20.816 109.8 21.065 109.8 21.314V22.0112V22.2104V22.6586V23.1566L109.85 23.6048V24.0032C109.85 24.3518 109.85 24.8498 109.85 25.3976C109.85 25.9952 109.85 26.4434 109.85 26.7919C109.8 27.2401 109.8 27.7381 109.8 28.1863V29.5807V31.2739C109.8 31.8715 109.8 32.4691 109.85 32.967C109.85 33.5148 109.85 34.1124 109.85 34.6602C109.85 35.208 109.85 35.8056 109.85 36.3534C109.85 36.7518 109.85 37.1502 109.85 37.5486C109.85 37.947 109.8 38.2956 109.8 38.694C109.8 39.0923 109.75 39.4907 109.75 39.8891V41.0843C109.75 41.4329 109.85 41.8313 110.001 42.1799C110.201 42.5783 110.552 42.7775 111.053 42.7775L111.604 42.5783L111.955 42.0803L112.105 41.4827L112.155 40.9847V28.1365C112.155 27.7879 112.155 27.4393 112.155 27.0907C112.155 26.7421 112.155 26.3936 112.155 26.045C112.105 25.6964 112.105 25.298 112.105 24.9494V23.8538V23.2064C112.155 22.9076 112.206 22.7084 112.206 22.4594Z" fill="white"/>
<path d="M134.907 40.1879C134.907 39.7895 134.907 39.4409 134.907 39.2417C134.907 37.9968 134.907 36.7518 134.907 35.5566C134.907 34.3614 134.907 33.1662 134.907 31.9711V21.0152C134.907 20.7164 134.857 20.4674 134.807 20.1687C134.707 19.8699 134.456 19.7205 133.955 19.7205C133.504 19.7205 133.153 19.8699 132.903 20.1687C132.652 20.4674 132.502 20.816 132.502 21.2642V21.7622L132.552 22.2104L132.602 22.6586V23.057C132.602 23.4056 132.602 23.804 132.602 24.302C132.602 24.8 132.602 25.1984 132.602 25.547C132.602 25.9952 132.552 26.3936 132.552 26.7919V28.0369V29.1325C132.552 29.5309 132.552 29.8795 132.602 30.2281C132.652 30.5767 132.652 30.9253 132.652 31.2739C132.652 31.6225 132.652 31.9711 132.652 32.3197C132.652 32.7181 132.652 33.216 132.652 33.8634C132.652 34.5108 132.652 35.0586 132.652 35.4072L132.602 36.0546V36.702C132.452 36.4032 132.301 36.0546 132.101 35.706C131.901 35.3574 131.7 34.9092 131.5 34.5108L131.399 34.3614L131.249 34.1124L131.049 33.7638L130.898 33.4152L130.447 32.4193V32.4691L130.347 32.1703L130.247 32.0209L130.297 32.1205C129.946 31.4731 129.595 30.7759 129.295 30.0787C128.994 29.3815 128.643 28.7341 128.292 28.0369C127.941 27.2401 127.541 26.3936 127.09 25.547C126.689 24.7004 126.238 23.8538 125.787 23.057L124.834 21.2642V21.3638C124.734 21.065 124.534 20.7164 124.283 20.3679C124.033 20.0193 123.682 19.8201 123.181 19.8201C122.93 19.8201 122.78 19.8699 122.629 20.0193L122.279 20.4674L122.128 21.0152L122.078 21.5132V33.1662C122.078 33.9132 122.078 34.6602 122.078 35.4072C122.078 36.1542 122.078 36.9012 122.078 37.6482V41.6819L122.128 42.0803L122.329 42.5783L122.679 42.9767L123.131 43.1759C123.481 43.1759 123.732 43.0265 123.932 42.7277C124.133 42.4289 124.283 42.0305 124.333 41.6321C124.433 41.1839 124.433 40.7357 124.433 40.2377V38.8434V38.3952C124.433 38.0964 124.433 37.7976 124.433 37.4988C124.433 37.2 124.383 36.9012 124.383 36.5526C124.333 36.2538 124.333 36.0048 124.333 35.706V34.8096V32.1205C124.333 31.2241 124.333 30.3277 124.383 29.4313C124.383 28.8337 124.383 28.1863 124.383 27.5887C124.383 26.9911 124.433 26.3438 124.433 25.7462L124.584 26.045V25.9952L124.834 26.5927C125.235 27.4393 125.636 28.2859 126.087 29.2321C126.538 30.1285 126.989 31.0249 127.541 31.9213C127.741 32.2699 127.941 32.6683 128.142 33.0666C128.342 33.465 128.543 33.8634 128.743 34.2618C129.094 35.0586 129.445 35.7558 129.796 36.4032L130.598 37.9968H130.648L131.149 38.9429C131.349 39.3413 131.55 39.7397 131.75 40.1381C131.951 40.5365 132.051 40.7357 132.051 40.7855C132.151 40.8851 132.251 41.0345 132.402 41.2835C132.552 41.5325 132.752 41.7815 132.953 42.0305C133.153 42.2795 133.354 42.4787 133.604 42.6779L134.206 42.9767C134.406 42.9767 134.557 42.8273 134.707 42.5285C134.807 42.2297 134.907 41.8811 134.957 41.4329C134.857 41.0345 134.907 40.6361 134.907 40.1879Z" fill="white"/>
<path d="M159.563 33.2658V32.8674C159.563 32.4192 159.463 32.0208 159.312 31.5727C159.112 31.1245 158.711 30.9253 158.11 30.9253H154.952H154.602H154.301L153.9 30.9751H153.649H153.048L152.447 31.0747L151.945 31.3735C151.795 31.5229 151.745 31.7221 151.745 31.971C151.745 32.3694 151.895 32.718 152.146 32.967C152.397 33.216 152.747 33.3654 153.198 33.3654H153.399L153.599 33.3156C153.8 33.3156 154 33.3156 154.301 33.3156C154.602 33.3156 154.902 33.2658 155.203 33.2658C155.504 33.2658 155.854 33.2658 156.155 33.2658H157.007L156.957 33.7638L157.007 34.4112C157.007 34.71 157.007 35.1084 156.957 35.5068C156.907 35.9052 156.907 36.3534 156.807 36.8016C156.756 37.2498 156.656 37.6482 156.506 38.0466C156.356 38.4449 156.205 38.7935 156.005 39.0425C155.403 39.6401 154.702 39.9887 153.85 40.1381C152.998 40.2875 152.146 40.3373 151.294 40.3373C150.292 40.3373 149.49 40.1879 148.889 39.8891C148.287 39.5903 147.836 39.1919 147.535 38.6939C147.235 38.1959 147.034 37.5486 146.934 36.8514C146.834 36.1542 146.784 35.3574 146.784 34.5108V33.7638C146.784 33.5148 146.784 33.2658 146.834 32.967C146.834 32.6682 146.834 32.4192 146.834 32.1702C146.834 31.9212 146.834 31.6225 146.834 31.3735V29.2819C146.834 28.9333 146.834 28.5847 146.834 28.1863C146.834 27.8377 146.834 27.4891 146.834 27.0907V26.5429C146.834 26.1445 146.834 25.7959 146.834 25.4474C146.834 25.0988 146.884 24.7502 146.984 24.4514C147.084 24.1526 147.235 23.8538 147.385 23.555C147.535 23.306 147.836 23.0072 148.137 22.7582L148.187 22.7084C148.187 22.7084 148.187 22.7084 148.137 22.7582C148.638 22.4096 149.189 22.1606 149.791 22.0112C150.392 21.8618 150.993 21.812 151.595 21.812C152.096 21.812 152.647 21.8618 153.148 21.9116C153.649 21.9614 154.151 22.1108 154.602 22.31C155.053 22.5092 155.453 22.7582 155.804 23.057C156.155 23.3558 156.456 23.804 156.656 24.2522V24.3518V24.6008C156.656 24.9992 156.756 25.3976 156.857 25.7959C156.957 26.1943 157.308 26.3935 157.859 26.3935C158.16 26.3935 158.46 26.2441 158.711 25.8955C158.961 25.547 159.062 25.2482 159.062 24.9494C159.062 24.6008 158.961 24.2522 158.811 23.8538V23.9036L158.761 23.6546C158.611 23.1068 158.41 22.6586 158.11 22.2104C157.809 21.7622 157.408 21.4136 157.007 21.065C156.606 20.7164 156.105 20.4674 155.604 20.2682C155.103 20.069 154.602 19.9196 154.1 19.82H154.151C153.75 19.6706 153.299 19.6208 152.848 19.6208C152.397 19.6208 151.895 19.6208 151.444 19.6208C150.592 19.6208 149.791 19.7204 148.939 19.9196C148.087 20.1188 147.335 20.4674 146.683 20.9654C145.832 21.6128 145.28 22.5092 144.879 23.5052C144.529 24.551 144.328 25.5968 144.328 26.6425V26.9911L144.378 27.3397V27.5887V27.8377V35.5566C144.378 36.0546 144.428 36.6024 144.478 37.1004C144.529 37.6482 144.629 38.1461 144.779 38.6441C144.929 39.1421 145.13 39.6401 145.381 40.0883C145.631 40.5365 145.982 40.9349 146.383 41.2835C147.135 41.8811 147.936 42.2795 148.838 42.4289C149.74 42.6281 150.592 42.6779 151.494 42.6779C151.895 42.6779 152.447 42.6779 153.098 42.6281C153.75 42.5783 154.251 42.5285 154.702 42.3791L154.952 42.2795L155.203 42.1301L155.453 42.0305C156.556 41.5325 157.358 40.8851 157.959 40.1879C158.561 39.4907 158.961 38.4947 159.212 37.2498C159.262 36.951 159.312 36.6024 159.312 36.2538C159.312 35.9052 159.312 35.5566 159.312 35.208V34.212V33.963L159.362 33.6642L159.563 33.2658Z" fill="white"/>
<path d="M171.142 35.0586V32.6185C171.142 31.7221 171.142 30.9253 171.192 30.1783C171.242 29.3317 171.242 28.5349 171.242 27.7381C171.242 26.9414 171.242 26.0948 171.242 25.298C171.242 25.049 171.242 24.8 171.242 24.551C171.242 24.302 171.192 24.0032 171.192 23.7542C171.192 23.5052 171.142 23.2562 171.142 23.0072V22.2104V21.8618L171.242 21.2144C171.242 20.8659 171.092 20.5173 170.841 20.2683C170.591 19.9695 170.24 19.8201 169.889 19.8201C169.638 19.8201 169.438 19.9695 169.288 20.2185C169.137 20.4675 169.037 20.7663 168.987 21.1646C168.937 21.5132 168.887 21.9116 168.887 22.2602V23.2562V36.3534C168.887 37.0008 168.887 37.698 168.887 38.3454C168.887 38.9928 168.887 39.69 168.887 40.3373V41.0843C168.887 41.3831 168.887 41.6321 168.987 41.8811C169.037 42.1301 169.137 42.3791 169.288 42.5285C169.438 42.7277 169.638 42.8273 169.939 42.8273C170.39 42.8273 170.741 42.6281 170.992 42.2297C171.192 41.8313 171.342 41.4329 171.342 41.0843V40.6361L171.292 40.188L171.242 39.7896V39.3414V35.0586H171.142Z" fill="white"/>
<path d="M209.076 41.6321V41.2337L208.976 40.6361L208.775 40.0385L208.625 39.5903C208.474 39.1919 208.324 38.7437 208.124 38.1959C207.923 37.6482 207.773 37.0506 207.572 36.453C207.372 35.8554 207.222 35.2578 207.071 34.6602C206.921 34.0626 206.771 33.5148 206.62 33.0168C206.42 32.2698 206.169 31.4233 205.919 30.4771C205.668 29.5309 205.367 28.6345 205.067 27.7381C204.816 27.0907 204.616 26.3935 204.465 25.6963C204.265 24.9992 204.115 24.302 203.864 23.6048L203.263 21.5132L203.062 20.9156L202.711 20.318L202.21 19.82C202.01 19.6706 201.809 19.6208 201.509 19.6208C201.258 19.6208 201.007 19.6706 200.857 19.82L200.406 20.318L200.105 20.9156L199.955 21.5132C199.805 22.31 199.604 23.1566 199.354 24.1028C199.103 25.049 198.853 25.8457 198.602 26.5927C198.452 26.9413 198.351 27.2899 198.251 27.6385C198.151 27.9871 198.001 28.2859 197.9 28.6345C197.55 29.7799 197.199 30.9253 196.898 32.0208C196.598 33.1164 196.247 34.2618 195.896 35.4072L195.946 35.3574L195.495 36.9012C195.395 37.2 195.295 37.4988 195.194 37.8474C195.094 38.1959 194.994 38.4947 194.944 38.7935C194.844 39.1421 194.743 39.4409 194.693 39.7895C194.643 40.0883 194.543 40.4369 194.393 40.7855L194.443 40.6859C194.292 40.8851 194.242 41.1341 194.242 41.4329C194.242 41.7815 194.342 42.0803 194.593 42.2795C194.844 42.4787 195.144 42.6281 195.495 42.6281C195.846 42.6281 196.146 42.5285 196.347 42.2795C196.547 42.0305 196.648 41.7815 196.698 41.5325C196.848 40.9847 196.948 40.4369 197.099 39.9389C197.249 39.3911 197.399 38.8931 197.6 38.3453L198.101 36.7518L198.702 34.4112C198.853 34.1124 198.953 33.8634 199.003 33.6144L199.153 32.967L199.304 32.3694L199.454 31.7719L200.406 28.5847C200.607 27.8377 200.807 27.0907 201.008 26.3935C201.208 25.6964 201.408 24.9992 201.659 24.2522V24.4016H201.709L201.96 25.1486C202.16 25.8457 202.361 26.5429 202.561 27.2401C202.761 27.9373 203.012 28.6345 203.212 29.2819C203.363 29.7799 203.513 30.2281 203.664 30.7261C203.814 31.1743 203.914 31.6723 204.064 32.1702V32.2698L204.165 32.5188C204.215 32.6184 204.265 32.7678 204.365 33.0168V32.8674C204.465 33.1164 204.515 33.3654 204.616 33.6144C204.716 33.8634 204.766 34.0626 204.816 34.3116L205.417 36.6522C205.468 37.0008 205.568 37.3494 205.718 37.7976C205.869 38.2457 206.019 38.6441 206.219 39.0923C206.37 39.3911 206.47 39.6401 206.57 39.9389C206.67 40.2377 206.771 40.5863 206.871 40.9847L207.071 41.4827L207.422 42.0305L207.873 42.4787L208.424 42.6779L208.925 42.5285L209.176 42.1799L209.076 41.6321Z" fill="white"/>
<path d="M230.224 27.9871V27.3895V26.792V26.3936V25.9952C230.224 25.547 230.224 25.1486 230.224 24.7502C230.224 24.3518 230.124 23.9036 229.974 23.4554C229.723 22.7582 229.322 22.1108 228.821 21.563C228.32 21.0152 227.719 20.6168 226.967 20.3181C226.366 20.0691 225.714 19.9197 225.063 19.8699C224.411 19.8201 223.81 19.7703 223.208 19.7703H220.402H219.45C219.149 19.7703 218.849 19.8201 218.598 19.9197C218.347 20.0193 218.147 20.1687 217.997 20.4177C217.846 20.6666 217.796 21.0152 217.796 21.4634V22.1108L217.846 22.7582V23.3558V23.9534V24.4016L217.796 24.8498L217.746 25.3478V25.8956V41.3333C217.746 41.6819 217.846 42.0305 217.997 42.2795C218.147 42.5783 218.498 42.7277 218.949 42.7277C219.3 42.7277 219.55 42.6281 219.701 42.4787C219.901 42.3293 220.001 42.0803 220.051 41.8313C220.101 41.5823 220.152 41.2835 220.152 40.9847C220.152 40.6859 220.152 40.4369 220.152 40.1381V39.7398V39.1422V38.5446C220.101 38.1462 220.101 37.7478 220.101 37.3494C220.101 36.951 220.101 36.5526 220.202 36.204V36.0546V35.8554H221.805C222.156 35.8554 222.557 35.8554 222.908 35.8554C223.259 35.8554 223.66 35.8554 224.01 35.8554L224.461 36.1542L224.712 36.8016C224.812 37.1004 224.912 37.3494 225.013 37.5486L224.962 37.4988L225.464 38.445V38.3952C225.564 38.7438 225.664 39.0426 225.814 39.2916C225.915 39.5406 226.065 39.7896 226.165 40.0386C226.316 40.2875 226.416 40.5365 226.516 40.7357L226.767 41.2337C226.867 41.5325 227.017 41.7815 227.167 42.0803C227.318 42.3791 227.568 42.5783 227.919 42.6779L227.869 42.6281L228.12 42.7277H228.32C228.671 42.7277 228.921 42.6281 229.072 42.4289C229.222 42.2297 229.322 41.9807 229.322 41.6819C229.322 41.2835 229.222 40.8353 229.022 40.4369C228.821 40.0385 228.621 39.6402 228.42 39.2916C228.17 38.943 228.07 38.7438 228.019 38.6442L227.969 38.5446L227.869 38.3952L227.719 38.1462L227.669 38.0466L227.619 37.947C227.518 37.698 227.418 37.4988 227.318 37.2498L227.067 36.702L226.867 36.3036L226.666 35.955L226.516 35.5566L227.017 35.3574C227.167 35.3574 227.368 35.2578 227.619 35.1084L227.568 35.1582C228.17 34.8594 228.621 34.5108 229.022 34.1124C229.372 33.714 229.673 33.2161 229.824 32.6683C230.024 32.1205 230.124 31.6225 230.174 31.0249C230.224 30.4771 230.275 29.8795 230.275 29.3317V28.6345C230.275 28.4353 230.224 28.1863 230.224 27.9871ZM227.919 29.6305C227.919 31.1245 227.568 32.1205 226.867 32.7181C226.165 33.2659 225.113 33.5647 223.71 33.5647H222.757C222.407 33.5149 222.056 33.5149 221.705 33.5647C221.354 33.5647 220.953 33.5647 220.603 33.5647H220.101C220.152 33.2161 220.202 32.9173 220.202 32.7679V31.9711C220.202 31.5727 220.202 31.1743 220.202 30.7261C220.202 30.3277 220.202 29.8795 220.202 29.4811C220.202 29.0827 220.152 28.6843 220.152 28.2859V27.041V25.0988C220.152 24.7502 220.152 24.4514 220.152 24.1028C220.152 23.7542 220.152 23.4056 220.152 23.057V22.6586V22.2602V22.1606V22.061H220.803H221.254H221.705L222.156 22.1108H222.657H223.158L223.66 22.061L224.161 22.0112H224.612C225.564 22.0112 226.316 22.31 226.967 22.9076C227.618 23.5052 227.969 24.2522 227.969 25.1984C227.969 25.5968 227.969 25.9454 227.969 26.3438C227.969 26.7422 227.969 27.0907 227.969 27.4393V29.6305H227.919Z" fill="white"/>
<path d="M242.198 22.4594C242.198 22.2104 242.248 22.0112 242.248 21.7622V21.1148L242.148 20.7164L241.947 20.318L241.546 19.9197L240.945 19.7205C240.644 19.7205 240.394 19.8201 240.243 19.9695C240.093 20.1189 239.993 20.318 239.893 20.567C239.842 20.816 239.792 21.065 239.792 21.314V22.0112V22.2104V22.6586V23.1566L239.842 23.6048V24.0032C239.842 24.3518 239.842 24.8498 239.842 25.3976C239.842 25.9952 239.842 26.4434 239.842 26.7919C239.842 27.2401 239.792 27.7381 239.792 28.1863V29.5807V31.2739C239.792 31.8715 239.792 32.4691 239.842 32.967C239.842 33.5148 239.842 34.1124 239.842 34.6602C239.842 35.208 239.842 35.8056 239.842 36.3534C239.842 36.7518 239.842 37.1502 239.842 37.5486C239.842 37.947 239.792 38.2956 239.792 38.694C239.792 39.0923 239.742 39.4907 239.742 39.8891V41.0843C239.742 41.4329 239.842 41.8313 239.993 42.1799C240.193 42.5783 240.544 42.7775 241.045 42.7775L241.596 42.5783L241.947 42.0803L242.098 41.4827L242.148 40.9847V28.1365C242.148 27.7879 242.148 27.4393 242.148 27.0907C242.148 26.7421 242.148 26.3936 242.148 26.045C242.148 25.6964 242.098 25.298 242.098 24.9494V23.8538V23.2064C242.148 22.9076 242.198 22.7084 242.198 22.4594Z" fill="white"/>
<path d="M262.898 21.1649C261.796 20.1689 260.092 19.6709 257.686 19.7207L252.324 19.7705C252.023 20.1689 251.923 20.5175 251.973 20.9159C252.023 21.2645 252.073 21.6131 252.073 21.9119V22.111V22.7584C252.073 23.0074 252.073 23.2066 252.124 23.4058V23.9038V24.0532V24.2524V24.5014V25.8958C252.124 26.344 252.124 26.842 252.073 27.2902V27.838V28.2364V28.6845V30.0291V30.4773L252.124 30.8757V31.1247V31.2243V31.3239V41.5825L252.224 41.9809C252.274 42.2299 252.324 42.3793 252.424 42.5287C252.525 42.6781 252.775 42.7279 253.176 42.7279L253.777 42.5287L254.178 42.1303L254.379 41.4829L254.479 41.0348V40.6862L254.429 40.3376L254.329 39.8894C254.279 39.3416 254.279 38.744 254.279 38.0468V36.2042V35.9552H256.935H257.085H257.285C257.987 35.9552 258.689 35.9054 259.44 35.8556C260.192 35.756 260.793 35.6564 261.295 35.4572C262.397 34.9592 263.149 34.2123 263.65 33.2163C264.151 32.2203 264.402 31.1745 264.402 30.0291V26.095C264.502 23.8042 263.951 22.1608 262.898 21.1649ZM262.147 27.3898V30.0291C262.147 30.9255 261.996 31.6227 261.696 32.1207C261.395 32.6187 260.994 32.9673 260.493 33.2163C259.992 33.4653 259.39 33.5649 258.739 33.6147C258.087 33.6645 257.336 33.6645 256.634 33.6645H256.484H256.333H254.379V32.0709V31.6227V31.1247L254.429 22.2604L255.181 22.111L255.531 22.1608H255.782H256.684H258.037C258.488 22.1608 258.939 22.2106 259.39 22.2604C259.841 22.3102 260.242 22.4596 260.643 22.609C261.044 22.7584 261.395 23.0074 261.696 23.356C261.796 23.5054 261.896 23.7046 261.946 24.0532C261.996 24.4018 262.046 24.7504 262.096 25.1488C262.147 25.5472 262.147 25.9456 262.147 26.344V27.3898Z" fill="white"/>
<path d="M306.447 27.9871V27.3895V26.792V26.3936V25.9952C306.497 25.547 306.497 25.1486 306.447 24.7502C306.397 24.3518 306.347 23.9036 306.197 23.4554C305.946 22.7582 305.545 22.1108 305.044 21.563C304.543 21.0152 303.891 20.6168 303.19 20.3181C302.588 20.0691 301.937 19.9197 301.285 19.8699C300.634 19.8201 300.033 19.7703 299.431 19.7703H296.625H295.673C295.372 19.7703 295.071 19.8201 294.821 19.9197C294.57 20.0193 294.37 20.1687 294.219 20.4177C294.069 20.6666 294.019 21.0152 294.019 21.4634V22.1108L294.069 22.7582V23.3558V23.9534V24.4016L294.019 24.8498L293.969 25.3478V25.8956V41.3333C293.969 41.6819 294.069 42.0305 294.219 42.2795C294.37 42.5783 294.72 42.7277 295.172 42.7277C295.522 42.7277 295.773 42.6281 295.923 42.4787C296.124 42.3293 296.224 42.0803 296.274 41.8313C296.324 41.5823 296.374 41.2835 296.374 40.9847C296.374 40.6859 296.374 40.4369 296.374 40.1381V39.7398V39.1422V38.5446C296.324 38.1462 296.324 37.7478 296.324 37.3494C296.324 36.951 296.324 36.5526 296.424 36.204V36.0546V35.8554H298.028C298.379 35.8554 298.78 35.8554 299.131 35.8554C299.481 35.8554 299.882 35.8554 300.233 35.8554L300.684 36.1542L300.935 36.8016C301.035 37.1004 301.135 37.3494 301.235 37.5486L301.185 37.4988L301.686 38.445V38.3952C301.787 38.7438 301.887 39.0426 302.037 39.2916C302.137 39.5406 302.288 39.7896 302.388 40.0386C302.538 40.2875 302.639 40.5365 302.739 40.7357L302.989 41.2337C303.09 41.5325 303.24 41.7815 303.39 42.0803C303.541 42.3791 303.791 42.5783 304.142 42.6779L304.092 42.6281L304.342 42.7277H304.543C304.894 42.7277 305.144 42.6281 305.295 42.4289C305.445 42.2297 305.545 41.9807 305.545 41.6819C305.545 41.2835 305.445 40.8353 305.244 40.4369C305.044 40.0385 304.844 39.6402 304.643 39.2916C304.393 38.943 304.292 38.7438 304.242 38.6442L304.192 38.5446V38.3454L304.042 38.0964L303.992 37.9968L303.942 37.8972C303.841 37.6482 303.741 37.449 303.641 37.2L303.39 36.6522L303.19 36.2538L302.989 35.9052L302.839 35.5068L303.24 35.4072C303.39 35.4072 303.591 35.3076 303.841 35.1582L303.791 35.208C304.393 34.9092 304.844 34.5606 305.244 34.1622C305.595 33.7638 305.896 33.2659 306.046 32.7181C306.247 32.1703 306.347 31.6723 306.397 31.0747C306.447 30.5269 306.497 29.9293 306.497 29.3815V28.6843C306.497 28.4353 306.497 28.1863 306.447 27.9871ZM304.192 29.6305C304.192 31.1245 303.841 32.1205 303.14 32.7181C302.438 33.2659 301.386 33.5647 299.982 33.5647H299.08C298.73 33.5149 298.379 33.5149 298.028 33.5647C297.677 33.5647 297.276 33.5647 296.926 33.5647H296.424C296.474 33.2161 296.525 32.9173 296.525 32.7679V31.9711C296.525 31.5727 296.525 31.1743 296.525 30.7261C296.525 30.3277 296.525 29.8795 296.525 29.4811C296.474 29.0827 296.474 28.6843 296.474 28.2859V27.041V25.0988C296.474 24.7502 296.474 24.4514 296.474 24.1028C296.474 23.7542 296.474 23.4056 296.474 23.057V22.6586V22.2602V22.1606V22.061H297.126H297.577H298.028L298.479 22.1108H298.98H299.481L299.982 22.061L300.484 22.0112H300.935C301.887 22.0112 302.639 22.31 303.34 22.9076C303.992 23.5052 304.342 24.2522 304.342 25.1984C304.342 25.5968 304.342 25.9454 304.342 26.3438C304.342 26.7422 304.342 27.0907 304.342 27.4393V29.6305H304.192Z" fill="white"/>
<path d="M325.392 31.971C324.74 30.5268 324.139 28.9831 323.587 27.3895L323.638 27.2401L323.738 27.1903L323.988 26.9413L328.549 20.7662L328.599 20.5172V20.2682C328.599 19.9694 328.499 19.7204 328.298 19.5212C328.098 19.322 327.847 19.2224 327.546 19.2224C327.095 19.2224 326.745 19.3718 326.494 19.6706C326.244 19.9694 325.993 20.2682 325.792 20.567L325.592 20.8658L325.241 21.2642L325.091 21.4634L324.84 21.812V21.7622C324.339 22.4594 323.788 23.2063 323.237 24.0031C322.685 24.7999 322.134 25.5469 321.583 26.1943C321.182 26.6923 320.831 27.1405 320.43 27.6385C320.079 28.1365 319.679 28.5847 319.328 29.1325L318.325 30.5766C318.325 30.1284 318.325 29.5806 318.325 28.8337C318.325 28.1365 318.325 27.1405 318.325 25.8457V24.0529C318.325 23.4553 318.325 22.9076 318.325 22.4594C318.325 21.9614 318.325 21.6128 318.275 21.314C318.275 21.0152 318.275 20.8658 318.275 20.816C318.125 20.5172 317.975 20.2682 317.774 20.0192C317.574 19.82 317.323 19.6706 317.073 19.6706C316.822 19.6706 316.622 19.7204 316.471 19.82L316.171 20.2682L316.07 20.816V21.314V22.6586C316.07 23.1068 316.07 23.5549 316.12 23.9035C316.12 24.3517 316.12 24.7501 316.12 25.1485C316.12 25.5469 316.12 25.9453 316.12 26.3437V39.0923V39.2915V39.4907L316.07 39.7895V40.0883V40.2875V40.9349C316.07 41.1839 316.12 41.4827 316.171 41.6819C316.221 41.9308 316.371 42.13 316.521 42.3292C316.672 42.5284 316.922 42.5782 317.223 42.5782C317.574 42.5782 317.874 42.4288 318.075 42.1798C318.275 41.9308 318.426 41.6321 318.426 41.3831V40.3373C318.426 39.8393 318.426 39.2915 318.426 38.6441C318.426 37.9967 318.426 37.3493 318.376 36.8015C318.376 36.2039 318.376 35.7059 318.376 35.2578C318.376 34.8096 318.376 34.6104 318.426 34.5606L318.526 34.3116L318.626 34.1622L318.526 34.212L318.676 34.0128C318.977 33.6642 319.278 33.3156 319.679 32.8674C320.029 32.4192 320.33 32.0706 320.48 31.7718L320.43 31.8216L321.984 29.73C322.084 29.979 322.184 30.2778 322.335 30.5766C322.485 30.8754 322.585 31.1244 322.685 31.4232C322.786 31.6722 322.886 31.9212 322.986 32.1204L323.187 32.5188V32.469L323.537 33.4152L323.688 33.8634L323.888 34.3116L324.038 34.8594L324.139 35.0586V35.0088C324.289 35.4072 324.439 35.8055 324.64 36.2537C324.79 36.6521 324.941 37.1003 325.091 37.4987L325.041 37.4489C325.141 37.7975 325.241 38.1461 325.392 38.3951L325.642 39.0425L325.692 39.0923C325.642 38.9927 325.692 39.0923 325.792 39.3911C325.943 39.6899 326.043 39.9389 326.093 40.0883L326.344 40.6859L326.494 41.2337C326.544 41.5325 326.695 41.8312 326.895 42.1798C327.146 42.4786 327.446 42.6778 327.847 42.6778C328.198 42.6778 328.499 42.5782 328.699 42.4288C328.9 42.2296 329 41.9806 329 41.5823C329 41.4827 328.9 41.1341 328.649 40.4867C328.449 39.8393 328.198 39.1919 327.897 38.3951C327.597 37.6481 327.346 36.9011 327.045 36.2039C326.745 35.5067 326.594 35.0088 326.494 34.8096C326.344 34.4112 326.143 33.963 325.943 33.465C325.742 32.9172 325.542 32.4192 325.392 31.971Z" fill="white"/>
<path d="M204.214 18.0274L204.365 18.9735C204.465 19.4217 204.465 19.4715 204.665 19.7703C204.866 20.0691 205.267 20.1189 205.517 20.1189C205.918 20.1189 206.269 19.9197 206.52 19.3221C206.77 18.7245 206.62 18.7743 206.62 17.9278C206.62 17.131 206.67 17.3302 206.419 16.6828C206.169 16.0354 205.818 15.9358 205.467 15.9358C205.116 15.9358 204.415 16.135 204.264 16.7326C204.064 17.3302 204.164 17.2306 204.214 18.0274Z" fill="white"/>
<path d="M198.602 18.0274L198.452 18.9735C198.352 19.4217 198.352 19.4715 198.151 19.7703C197.951 20.0691 197.55 20.1189 197.3 20.1189C196.899 20.1189 196.548 19.9197 196.297 19.3221C196.047 18.7245 196.197 18.7743 196.197 17.9278C196.197 17.131 196.147 17.3302 196.398 16.6828C196.648 16.0354 196.999 15.9358 197.35 15.9358C197.7 15.9358 198.402 16.135 198.552 16.7326C198.753 17.3302 198.602 17.2306 198.602 18.0274Z" fill="white"/>
<path d="M285.252 41.6321V41.2337L285.152 40.6361L284.951 40.0385L284.801 39.5903C284.65 39.1919 284.5 38.7437 284.3 38.1959C284.099 37.6482 283.949 37.0506 283.748 36.453C283.548 35.8554 283.398 35.2578 283.247 34.6602C283.097 34.0626 282.947 33.5148 282.796 33.0168C282.596 32.2698 282.345 31.4233 282.095 30.4771C281.844 29.5309 281.543 28.6345 281.243 27.7381C280.992 27.0907 280.792 26.3935 280.641 25.6964C280.441 24.9992 280.29 24.302 280.04 23.6048L279.439 21.5132L279.238 20.9156L278.887 20.318L278.386 19.82C278.186 19.6706 277.985 19.6208 277.685 19.6208C277.434 19.6208 277.183 19.6706 277.033 19.82L276.582 20.318L276.281 20.9156L276.131 21.5132C275.981 22.31 275.78 23.1566 275.53 24.1028C275.279 25.049 275.028 25.8457 274.778 26.5927C274.628 26.9413 274.527 27.2899 274.427 27.6385C274.327 27.9871 274.177 28.2859 274.076 28.6345C273.726 29.7799 273.375 30.9253 273.074 32.0209C272.723 33.1164 272.423 34.2618 272.072 35.4072L272.122 35.3574L271.671 36.9012C271.571 37.2 271.47 37.4988 271.37 37.8474C271.27 38.1959 271.17 38.4947 271.12 38.7935C271.019 39.1421 270.919 39.4409 270.869 39.7895C270.819 40.0883 270.719 40.4369 270.568 40.7855L270.618 40.6859C270.468 40.8851 270.418 41.1341 270.418 41.4329C270.418 41.7815 270.518 42.0803 270.769 42.2795C271.019 42.4787 271.32 42.6281 271.671 42.6281C272.022 42.6281 272.322 42.5285 272.523 42.2795C272.723 42.0305 272.823 41.7815 272.874 41.5325C273.024 40.9847 273.124 40.4369 273.274 39.9389C273.425 39.3911 273.575 38.8931 273.776 38.3453L274.277 36.7518L274.878 34.4112C275.028 34.1124 275.129 33.8634 275.179 33.6144L275.329 32.967L275.48 32.3694L275.63 31.7719L276.582 28.5847C276.782 27.8377 276.983 27.1405 277.183 26.3935C277.384 25.6964 277.584 24.9992 277.835 24.2522V24.4016H277.885L278.136 25.1486C278.336 25.8457 278.536 26.5429 278.737 27.2401C278.937 27.9373 279.188 28.6345 279.388 29.2819C279.539 29.7799 279.689 30.2281 279.839 30.7261C279.99 31.1743 280.09 31.6723 280.24 32.1702V32.2698L280.341 32.5188C280.391 32.6184 280.441 32.7678 280.541 33.0168V32.8674C280.641 33.1164 280.691 33.3654 280.792 33.6144C280.892 33.8634 280.942 34.0626 280.992 34.3116L281.593 36.6522C281.644 37.0008 281.744 37.3494 281.894 37.7976C282.044 38.1959 282.195 38.6441 282.395 39.0923C282.546 39.3911 282.646 39.6401 282.746 39.9389C282.846 40.2377 282.947 40.5863 283.047 40.9847L283.247 41.4827L283.598 42.0305L284.049 42.4289L284.6 42.6281L285.101 42.4787L285.352 42.1301L285.252 41.6321Z" fill="white"/>
</svg>
