<svg width="48" height="48" viewBox="0 0 48 48" fill="none" xmlns="http://www.w3.org/2000/svg">
<path d="M31.729 28.6415H30.1029L29.5266 28.0858C31.5437 25.7393 32.7581 22.693 32.7581 19.3791C32.7581 11.9897 26.7684 6 19.3791 6C11.9897 6 6 11.9897 6 19.3791C6 26.7684 11.9897 32.7581 19.3791 32.7581C22.693 32.7581 25.7393 31.5437 28.0858 29.5266L28.6415 30.1029V31.729L38.9331 42L42 38.9331L31.729 28.6415V28.6415ZM19.3791 28.6415C14.2539 28.6415 10.1166 24.5043 10.1166 19.3791C10.1166 14.2539 14.2539 10.1166 19.3791 10.1166C24.5043 10.1166 28.6415 14.2539 28.6415 19.3791C28.6415 24.5043 24.5043 28.6415 19.3791 28.6415Z" fill="#EE1D4C"/>
</svg>
