<svg version="1" xmlns="http://www.w3.org/2000/svg" width="557.333" height="557.333" viewBox="0 0 418.000000 418.000000"><path d="M165.4 3.6c-36.6 5.3-69 19.5-97.3 42.9-6.6 5.4-18.8 17.7-23.9 24-3.1 3.8-6 7.2-6.3 7.5C35.8 79.6 24 99.3 19 109.5c-9.1 18.6-14.9 38.2-17.7 59-1 7.6-1 38.1 0 46 1.8 14.9 5.9 30.7 11.9 46.5.7 1.9 4.1 9.1 7.5 16 3.3 6.9 7.3 15.3 8.7 18.7 5.1 12.1 19.1 36 25.3 42.8 1 1.1 3.4 4 5.4 6.5 5.5 6.8 18.2 19.3 26.3 25.9 29.1 23.8 64.4 39 103.1 44.5 9.8 1.4 43.3 1.5 51.5.2 18.7-3 33.3-6.8 47-12.1 8.9-3.4 26.1-11.4 27-12.6.3-.3 1.9-1.3 3.6-2.2 15.6-8 41.9-30.8 55.6-48.2 23.4-29.6 39.4-68.5 42.6-103.5 1.3-14.6.5-51.1-1.3-54-.2-.3-.6-2.4-1-4.8-1.2-8.3-6.9-28.4-10.2-36.2-12.4-29-25.3-48.4-45.7-68.5-10.2-10.2-23.1-21-29.7-25-.9-.6-5.4-3.3-10-6.1-9.1-5.4-18.1-9.9-29.3-14.4-3.9-1.6-11.8-5.1-17.6-7.8-16.7-7.8-30.4-11.9-56-16.7-7.1-1.3-41.4-1.3-50.6.1zM214 8.4c1.4.2 4.2.7 6.2 1 5.6.8 25.8 5.7 25.8 6.3 0 .3-1.7.2-3.7-.1-15.4-2.3-43.5-2.4-55.4-.1-1.3.3-4.1.7-6.4 1-8.9 1.3-28.5 6.8-39.4 11.1-28.1 11-51.7 26.8-72.6 48.6-18.8 19.4-29.5 35.9-41.9 64-4.3 9.8-10.7 33-12.2 44.3-.3 2.7-.8 5.9-1.1 7-.3 1.1-.6 10.1-.8 20-.2 16.2 0 20.9 2.1 35 .9 5.9-.2 4-2.6-5-8.5-31-9-63.5-1.5-94.2C16 124.7 24.8 105.9 40 83.6c10-14.7 30.2-34 47-45.1 9.4-6.1 27-15.9 27-14.9 0 .2 1-.2 2.3-1 5.9-3.7 32.2-11.5 44.2-13.1 2.8-.4 7.3-1 10-1.5 5.2-.8 39.1-.5 43.5.4zm15 35c39.6 2.6 78.7 20.4 108.4 49.4 14.8 14.4 30.3 37.5 31.1 46.2.1.3.6 2.1 1.3 4 1.8 5.6 5 22.8 5.8 31.5 1.9 22 .2 43-5.5 64.3-3.8 14.2-6.2 20.6-12.6 33.7-20.8 42.8-57.1 75.7-102 92.4-21.1 7.8-41.4 11.4-65 11.4-7.9 0-24.4-1.1-25.4-1.7-.3-.2-2.8-.7-5.6-1-6.1-.8-23.4-5.2-27.2-6.8-4.1-1.8-19.9-12.3-26.3-17.5-24.5-19.9-43.2-45.8-53.9-74.8-3-8.1-7.8-26.7-8.5-33.5-.4-3-.9-6.8-1.3-8.5-1-5-.6-30.5.7-39.5 1.9-14.3 7.1-33.7 11.7-44 6-13.4 16.9-32.2 21.8-37.7.5-.6 2.1-2.6 3.5-4.4 3.7-4.8 18.7-19.8 24.5-24.4 2.8-2.2 5.2-4.3 5.5-4.6 1.6-2 19.8-13 28.9-17.5 20.2-9.9 40.9-15.5 63.1-17 5.2-.4 9.6-.7 9.8-.9.2-.2 1.4-.1 17.2.9zm157.2 143.1c3.1 17.7 3.1 42.6-.1 59-3.4 17.4-7.9 31.1-14.7 44.8-4.5 9-9.4 17.8-10.4 18.7-.3.3-1.4 1.8-2.4 3.5-5.4 8.5-21.2 26-31.2 34.5-24.3 20.7-59.6 36.1-90.9 39.8-11.1 1.3-39.4.6-49-1.2-11-2-22.2-4.9-23.2-6-.4-.5.1-.6 1.2-.3 5.7 1.6 37.8 2.6 44 1.3 1.2-.2 4.8-.7 8-1.1 17.3-2.1 37-7.9 54.4-16.1 21.4-10 37.1-21.3 55.1-39.4 28.1-28.2 45.2-61.5 52.2-101.5 2.9-16.6 3-44.7.3-60.5-.3-1.4.7.9 2.1 5 1.4 4.1 3.5 12.9 4.6 19.5z"/></svg>