<svg width="1920" height="1278" viewBox="0 0 1920 1278" fill="none" xmlns="http://www.w3.org/2000/svg">
<g clip-path="url(#clip0)">
<rect width="1920" height="1278" fill="#C7DEEF"/>
<path d="M163.234 -1.75537C163.234 -1.75537 378.133 212.331 453.623 252.007C520.297 286.999 558.318 330.808 694.971 346.238" stroke="#90B5CF" stroke-width="9.12547"/>
<path d="M492.191 274.325C492.191 274.325 604.876 340.176 685.325 320.063C763.019 300.5 837.407 286.173 877.356 274.325C917.305 262.477 997.479 251.732 1096.94 105.977C1145.43 34.8902 1171.88 -8.09229 1171.88 -8.09229" stroke="#90B5CF" stroke-width="3.65019"/>
<path d="M514.68 288.365C514.68 288.365 595.896 327.605 711.79 323.042C782.969 320.24 831.626 351.197 871.575 347.064C911.524 342.656 968.28 311.521 968.28 311.521" stroke="#90B5CF" stroke-width="9.12547"/>
<path d="M147.805 20.2866L356.367 382.607C356.367 382.607 431.857 471.327 405.408 516.239" stroke="#90B5CF" stroke-width="9.12547"/>
<path d="M356.372 382.333C356.372 382.333 403.485 463.338 377.311 532.771C350.862 602.205 344.25 625.9 344.25 686.241C344.25 746.582 346.178 799.208 326.617 830.618" stroke="#90B5CF" stroke-width="9.12547"/>
<path d="M717.016 1027.62C717.016 1027.62 799.945 1022.66 951.2 1133.15C1068.02 1218.29 1194.2 1309.76 1194.2 1309.76" stroke="#90B5CF" stroke-width="9.12547"/>
<path d="M1020.63 823.729C1020.63 823.729 1003 868.641 1025.59 928.155C1047.9 987.669 1219 1296.26 1219 1296.26" stroke="#90B5CF" stroke-width="9.12547"/>
<path d="M1447.12 -8.09229L1320.66 95.7822C1320.66 95.7822 1188.96 181.196 1167.47 359.739C1148.74 515.413 1116.23 753.47 1116.23 753.47C1116.23 753.47 1099.7 968.934 1194.75 1122.13C1238.83 1192.94 1264.73 1175.3 1289.25 1155.74C1313.77 1136.18 1453.46 1022.66 1453.46 1022.66" stroke="#90B5CF" stroke-width="3.65019"/>
<path d="M1470.26 1030.93C1481.56 1030.93 1490.92 1021.56 1490.92 1010.26C1490.92 998.967 1481.56 989.599 1470.26 989.599C1458.96 989.599 1449.6 998.967 1449.6 1010.26C1449.6 1021.56 1458.96 1030.93 1470.26 1030.93Z" stroke="#90B5CF" stroke-width="3.65019"/>
<path d="M1482.39 1026.24L1701.14 1290.75" stroke="#90B5CF" stroke-width="3.65019"/>
<path d="M1456.49 993.18L1372.18 887.653L1330.86 839.986L1258.12 784.605L1208.25 746.858C1208.25 746.858 1172.44 718.203 1122.29 714.345" stroke="#90B5CF" stroke-width="3.65019"/>
<path d="M1179.32 301.878L1383.2 423.662C1383.2 423.662 1516.55 507.698 1653.48 460.307C1698.66 444.602 1718.22 436.887 1718.22 436.887L1773.6 433.856" stroke="#90B5CF" stroke-width="3.65019"/>
<path d="M1595.62 473.808C1595.62 473.808 1604.98 512.933 1573.85 551.782C1542.72 590.907 1481.28 660.341 1481.28 660.341C1481.28 660.341 1452.9 687.343 1481.28 712.967C1509.66 738.591 1773.6 988.22 1773.6 988.22L1794.54 1010.26L1919.62 1168.69" stroke="#90B5CF" stroke-width="3.65019"/>
<path d="M1484.04 994.007L1646.32 865.059" stroke="#90B5CF" stroke-width="3.65019"/>
<path d="M1503.32 468.297C1503.32 468.297 1507.18 428.346 1545.48 396.384C1583.77 364.423 1676.62 265.233 1676.62 265.233L1669.46 234.649L1571.38 -8.09229" stroke="#90B5CF" stroke-width="3.65019"/>
<path d="M706.273 1029.27C895.714 1029.27 1049.29 875.693 1049.29 686.241C1049.29 496.789 895.714 343.208 706.273 343.208C516.833 343.208 363.262 496.789 363.262 686.241C363.262 875.693 516.833 1029.27 706.273 1029.27Z" stroke="#90B5CF" stroke-width="14.6008"/>
<path d="M1180.15 1289.1L127.418 -8.09229" stroke="#90B5CF" stroke-width="14.6008"/>
<path d="M1211.56 1289.1L158.828 -8.09229" stroke="#90B5CF" stroke-width="14.6008"/>
<path d="M361.603 690.925C361.603 690.925 388.052 861.202 158.551 999.518C-55.2455 1128.19 -319.461 1296.26 -319.461 1296.26" stroke="#90B5CF" stroke-width="14.6008"/>
<path d="M491.372 954.882C491.372 954.882 402.381 879.938 240.656 978.302C121.084 1051.04 -280.336 1296.26 -280.336 1296.26" stroke="#90B5CF" stroke-width="14.6008"/>
<path d="M1024.76 558.946C1024.76 558.946 960.563 384.812 1091.16 234.924C1195.85 114.518 1309.09 -8.09229 1309.09 -8.09229" stroke="#90B5CF" stroke-width="14.6008"/>
<path d="M829.422 366.627C829.422 366.627 909.871 386.19 1043.77 245.67C1136.62 148.133 1273.27 -8.09229 1273.27 -8.09229" stroke="#90B5CF" stroke-width="14.6008"/>
<path opacity="0.6" d="M1131.93 730.877L1163.07 734.734L1326.17 847.977L1384.85 922.094L1186.76 1068.4C1186.48 1068.68 1109.34 933.115 1131.93 730.877Z" fill="#EE1D4C"/>
<path opacity="0.6" d="M1137.44 702.221L1175.74 714.069L1244.06 631.961L1329.75 416.222L1344.63 368.555L1195.3 282.59L1163.06 491.441L1137.44 702.221Z" fill="#EE1D4C"/>
<path d="M1744.92 1151.03L1675.49 1209.3L1705.24 1244.75L1774.67 1186.48L1744.92 1151.03Z" fill="#ADCFE7"/>
<path d="M1818.41 1149.01L1801.31 1163.35L1826.28 1193.11L1843.38 1178.77L1818.41 1149.01Z" fill="#ADCFE7"/>
<path d="M1814.38 1128.74L1807.49 1134.25L1781.04 1102.57L1754.04 1125.16L1794.54 1173.65L1821.54 1150.78L1816.3 1144.72L1822.92 1138.94L1814.38 1128.74Z" fill="#ADCFE7"/>
<path d="M1308.93 1195.79L1286.14 1214.92L1328.99 1266L1351.79 1246.87L1308.93 1195.79Z" fill="#ADCFE7"/>
<path d="M1380.48 1135.38L1308.94 1195.42L1333.74 1224.97L1405.28 1164.93L1380.48 1135.38Z" fill="#ADCFE7"/>
<path d="M1476.95 1060.74L1401.39 1124.15L1421.58 1148.21L1497.14 1084.8L1476.95 1060.74Z" fill="#ADCFE7"/>
<path d="M1580.19 957.209L1518.99 1008.57L1562.56 1060.49L1623.76 1009.13L1580.19 957.209Z" fill="#ADCFE7"/>
<path d="M1627.96 918.265L1606.43 936.33L1657.97 997.747L1679.5 979.682L1627.96 918.265Z" fill="#ADCFE7"/>
<path d="M1616.12 727.835L1584.7 750.671L1598.95 770.286L1630.37 747.451L1616.12 727.835Z" fill="#ADCFE7"/>
<path d="M1650.27 684.856L1631.31 697.645L1653.49 730.536L1672.45 717.748L1650.27 684.856Z" fill="#ADCFE7"/>
<path d="M1707.04 626.374L1688.09 639.163L1710.27 672.054L1729.23 659.266L1707.04 626.374Z" fill="#ADCFE7"/>
<path d="M1525.86 650.038L1500.61 678.088L1517.39 693.207L1542.65 665.157L1525.86 650.038Z" fill="#ADCFE7"/>
<path d="M1569.76 601.375L1544.5 629.425L1561.28 644.544L1586.54 616.494L1569.76 601.375Z" fill="#ADCFE7"/>
<path d="M1613.51 552.158L1588.25 580.208L1605.03 595.328L1630.29 567.278L1613.51 552.158Z" fill="#ADCFE7"/>
<path d="M1697.66 492.961L1633.43 534.676L1661.03 577.196L1725.27 535.481L1697.66 492.961Z" fill="#ADCFE7"/>
<path d="M1771.36 533.256L1756.11 543.16L1771.42 566.73L1786.67 556.827L1771.36 533.256Z" fill="#ADCFE7"/>
<path d="M1800.99 572.08L1785.73 581.984L1821.14 636.52L1836.4 626.617L1800.99 572.08Z" fill="#ADCFE7"/>
<path d="M1847.38 639.227L1832.13 649.131L1875.05 715.221L1890.3 705.318L1847.38 639.227Z" fill="#ADCFE7"/>
<path d="M1850.94 746.843L1835.69 756.746L1847.54 775.002L1862.8 765.098L1850.94 746.843Z" fill="#ADCFE7"/>
<path d="M1887.16 922.401L1871.91 932.304L1883.76 950.56L1899.01 940.656L1887.16 922.401Z" fill="#ADCFE7"/>
<path d="M1496.86 525.211L1483.12 542.797L1524.15 574.859L1537.89 557.273L1496.86 525.211Z" fill="#ADCFE7"/>
<path d="M1472.19 504.667L1460.62 519.546L1455.94 515.964L1442.99 532.771L1460.35 545.997L1463.1 542.415L1475.77 552.334L1497.54 524.506L1472.19 504.667Z" fill="#ADCFE7"/>
<path d="M1669.89 405.881L1609.06 431.082L1618.76 454.502L1679.59 429.3L1669.89 405.881Z" fill="#ADCFE7"/>
<path d="M1888.05 148.106L1816.95 193.407L1826.12 207.815L1897.23 162.514L1888.05 148.106Z" fill="#ADCFE7"/>
<path d="M1794.26 149.787H1794.54L1782.69 123.611L1754.04 136.837L1757.07 143.449L1721.25 159.706L1733.37 186.156L1797.57 156.95L1794.26 149.787Z" fill="#ADCFE7"/>
<path d="M1689.48 54.5138L1668.92 63.8833L1676.92 81.4326L1697.48 72.0631L1689.48 54.5138Z" fill="#ADCFE7"/>
<path d="M1608.5 141.12L1582.79 151.77L1613.48 225.847L1639.18 215.197L1608.5 141.12Z" fill="#ADCFE7"/>
<path d="M1497.14 87.2402L1424.34 117.397L1443.32 163.218L1516.12 133.061L1497.14 87.2402Z" fill="#ADCFE7"/>
<path d="M1484.31 274.876L1458.13 288.928L1452.9 278.734L1442.98 284.244L1433.34 266.335L1401.93 283.142L1411.85 301.878L1418.18 298.296L1426.17 313.45L1426.73 313.175L1471.91 398.038L1532.8 365.801L1484.31 274.876Z" fill="#ADCFE7"/>
<path d="M1542.17 85.8637L1539.41 86.9658L1534.73 75.3936L1498.36 90.2721L1503.04 102.12L1515.72 132.428L1554.84 116.447L1542.17 85.8637Z" fill="#ADCFE7"/>
<path d="M1428.66 128.294L1420.39 132.152L1428.11 163.011L1443.26 163.562L1428.66 128.294Z" fill="#ADCFE7"/>
<path d="M1805.83 226.108L1803.63 220.598L1797.57 223.078L1796.19 219.496L1793.16 211.781L1787.1 196.902L1770.57 203.791L1768.92 199.933L1744.67 210.128L1746.05 213.71L1727.59 221.7L1725.11 215.638L1714.64 220.047L1717.12 225.833L1710.23 228.864L1709.96 228.588L1699.76 232.721L1707.75 252.284L1718.22 248.151L1716.29 243.467L1752.38 228.588L1753.21 230.517L1777.46 220.598L1776.63 218.669L1780.21 217.016L1783.52 224.731L1787.1 223.353L1790.68 232.17L1796.74 229.69V229.966L1805.83 226.108Z" fill="#ADCFE7"/>
<path d="M1692.04 364.974L1670 311.521L1655.4 317.583L1669.18 350.647L1650.44 358.361L1658.43 378.2L1677.17 370.485L1677.44 371.036L1692.04 364.974Z" fill="#ADCFE7"/>
<path d="M1621.51 359.464L1585.14 393.078L1593.13 413.192L1636.94 379.577L1621.51 359.464Z" fill="#ADCFE7"/>
<path d="M1757.76 369.007L1713.59 395.547L1723.24 411.607L1767.41 385.067L1757.76 369.007Z" fill="#ADCFE7"/>
<path d="M1830.83 288.02L1791.87 319.577L1803.48 333.922L1842.45 302.365L1830.83 288.02Z" fill="#ADCFE7"/>
<path d="M1518.86 1125.84L1449 1184.47L1480.7 1222.24L1550.56 1163.62L1518.86 1125.84Z" fill="#ADCFE7"/>
<path d="M1790.34 1058.46L1734.2 1105.57L1753.33 1128.36L1809.46 1081.25L1790.34 1058.46Z" fill="#ADCFE7"/>
<path d="M689.433 475.009V478.265H683.931V493.399H680.064V478.265H674.537V475.009H689.433ZM697.006 486.787C696.782 486.928 696.553 487.044 696.32 487.136C696.096 487.219 695.784 487.298 695.385 487.373L694.586 487.523C693.837 487.656 693.301 487.818 692.977 488.009C692.428 488.334 692.153 488.837 692.153 489.519C692.153 490.126 692.32 490.567 692.652 490.841C692.993 491.107 693.405 491.241 693.887 491.241C694.653 491.241 695.355 491.016 695.996 490.567C696.645 490.118 696.981 489.298 697.006 488.109V486.787ZM694.848 485.127C695.505 485.044 695.975 484.94 696.258 484.815C696.765 484.599 697.019 484.262 697.019 483.805C697.019 483.247 696.823 482.865 696.433 482.657C696.05 482.441 695.484 482.333 694.736 482.333C693.896 482.333 693.301 482.54 692.952 482.956C692.702 483.264 692.536 483.68 692.453 484.204H689.022C689.096 483.015 689.429 482.037 690.02 481.272C690.96 480.074 692.573 479.475 694.861 479.475C696.349 479.475 697.672 479.771 698.828 480.361C699.984 480.952 700.562 482.066 700.562 483.705V489.943C700.562 490.376 700.57 490.9 700.587 491.515C700.612 491.981 700.683 492.297 700.799 492.463C700.916 492.63 701.09 492.767 701.323 492.875V493.399H697.456C697.347 493.124 697.273 492.867 697.231 492.625C697.189 492.384 697.156 492.11 697.131 491.802C696.64 492.334 696.075 492.788 695.434 493.162C694.669 493.603 693.804 493.823 692.839 493.823C691.608 493.823 690.589 493.474 689.783 492.775C688.984 492.068 688.585 491.07 688.585 489.781C688.585 488.109 689.23 486.899 690.519 486.15C691.226 485.743 692.265 485.452 693.638 485.277L694.848 485.127ZM707.362 493.399H703.806V475.009H707.362V493.399ZM714.473 493.399H710.917V475.009H714.473V493.399ZM721.61 478.178H718.004V474.897H721.61V478.178ZM718.004 479.8H721.61V493.399H718.004V479.8ZM732.601 479.475C734.007 479.475 735.155 479.846 736.045 480.586C736.943 481.318 737.392 482.536 737.392 484.241V493.399H733.749V485.127C733.749 484.412 733.653 483.863 733.462 483.48C733.113 482.782 732.447 482.432 731.466 482.432C730.26 482.432 729.432 482.944 728.983 483.967C728.75 484.508 728.634 485.198 728.634 486.038V493.399H725.09V479.825H728.521V481.809C728.979 481.11 729.411 480.607 729.819 480.299C730.551 479.75 731.478 479.475 732.601 479.475ZM748.221 479.475C749.627 479.475 750.775 479.846 751.665 480.586C752.563 481.318 753.012 482.536 753.012 484.241V493.399H749.369V485.127C749.369 484.412 749.274 483.863 749.082 483.48C748.733 482.782 748.067 482.432 747.086 482.432C745.88 482.432 745.052 482.944 744.603 483.967C744.37 484.508 744.254 485.198 744.254 486.038V493.399H740.711V479.825H744.142V481.809C744.599 481.11 745.032 480.607 745.439 480.299C746.171 479.75 747.098 479.475 748.221 479.475ZM767.572 475.071H769.468L763.654 493.399H761.758L767.572 475.071ZM782.93 483.019C783.92 483.019 784.694 482.744 785.251 482.195C785.808 481.638 786.087 480.977 786.087 480.212C786.087 479.546 785.821 478.935 785.288 478.378C784.756 477.82 783.945 477.542 782.855 477.542C781.774 477.542 780.992 477.82 780.51 478.378C780.027 478.935 779.786 479.588 779.786 480.336C779.786 481.176 780.098 481.833 780.722 482.308C781.346 482.782 782.082 483.019 782.93 483.019ZM783.067 491.864C784.107 491.864 784.968 491.586 785.65 491.028C786.34 490.463 786.686 489.623 786.686 488.508C786.686 487.352 786.332 486.475 785.625 485.876C784.918 485.277 784.012 484.977 782.905 484.977C781.832 484.977 780.955 485.285 780.273 485.901C779.599 486.508 779.262 487.352 779.262 488.433C779.262 489.365 779.57 490.172 780.185 490.854C780.809 491.527 781.77 491.864 783.067 491.864ZM779.874 483.88C779.25 483.613 778.763 483.301 778.414 482.944C777.757 482.278 777.428 481.413 777.428 480.349C777.428 479.018 777.911 477.874 778.875 476.918C779.84 475.961 781.209 475.483 782.98 475.483C784.694 475.483 786.037 475.936 787.01 476.843C787.983 477.741 788.47 478.793 788.47 479.999C788.47 481.114 788.187 482.016 787.621 482.707C787.305 483.098 786.815 483.48 786.149 483.855C786.889 484.196 787.472 484.587 787.896 485.027C788.686 485.859 789.081 486.94 789.081 488.271C789.081 489.843 788.553 491.178 787.497 492.276C786.44 493.366 784.947 493.91 783.018 493.91C781.279 493.91 779.807 493.441 778.601 492.501C777.403 491.552 776.804 490.18 776.804 488.383C776.804 487.327 777.062 486.416 777.578 485.651C778.094 484.878 778.859 484.287 779.874 483.88ZM798.962 480.037H801.183V481.933C801.715 481.276 802.198 480.798 802.63 480.498C803.37 479.991 804.211 479.737 805.15 479.737C806.215 479.737 807.072 479.999 807.721 480.523C808.087 480.823 808.419 481.264 808.719 481.846C809.218 481.131 809.804 480.602 810.478 480.261C811.151 479.912 811.908 479.737 812.748 479.737C814.545 479.737 815.768 480.386 816.416 481.684C816.766 482.382 816.94 483.322 816.94 484.503V493.399H814.607V484.117C814.607 483.227 814.383 482.615 813.934 482.283C813.493 481.95 812.952 481.784 812.312 481.784C811.43 481.784 810.669 482.079 810.029 482.669C809.397 483.26 809.08 484.246 809.08 485.626V493.399H806.797V484.678C806.797 483.771 806.689 483.11 806.473 482.694C806.132 482.071 805.496 481.759 804.564 481.759C803.716 481.759 802.942 482.087 802.243 482.744C801.553 483.401 801.208 484.591 801.208 486.312V493.399H798.962V480.037ZM820.247 480.099H822.53V493.399H820.247V480.099ZM820.247 475.071H822.53V477.616H820.247V475.071ZM825.936 480.037H828.069V481.933C828.701 481.151 829.371 480.59 830.078 480.249C830.785 479.908 831.571 479.737 832.436 479.737C834.332 479.737 835.613 480.399 836.279 481.721C836.645 482.445 836.828 483.48 836.828 484.828V493.399H834.544V484.977C834.544 484.162 834.424 483.505 834.183 483.006C833.783 482.174 833.06 481.759 832.012 481.759C831.479 481.759 831.043 481.813 830.702 481.921C830.086 482.104 829.546 482.47 829.08 483.019C828.706 483.46 828.46 483.917 828.344 484.391C828.236 484.857 828.182 485.526 828.182 486.4V493.399H825.936V480.037ZM851.437 475.071H853.334L847.52 493.399H845.623L851.437 475.071ZM863.24 489.082C863.306 490.321 863.785 491.178 864.675 491.652C865.132 491.902 865.648 492.027 866.222 492.027C867.295 492.027 868.209 491.582 868.966 490.692C869.723 489.793 870.26 487.976 870.576 485.239C870.077 486.03 869.457 486.587 868.717 486.911C867.985 487.227 867.195 487.385 866.346 487.385C864.625 487.385 863.261 486.849 862.254 485.776C861.256 484.703 860.757 483.322 860.757 481.634C860.757 480.012 861.252 478.585 862.242 477.354C863.231 476.123 864.691 475.508 866.621 475.508C869.224 475.508 871.021 476.681 872.011 479.026C872.56 480.316 872.834 481.929 872.834 483.867C872.834 486.055 872.505 487.993 871.848 489.681C870.759 492.492 868.912 493.898 866.309 493.898C864.562 493.898 863.236 493.441 862.329 492.526C861.422 491.611 860.969 490.463 860.969 489.082H863.24ZM866.646 485.414C867.536 485.414 868.347 485.123 869.079 484.541C869.819 483.95 870.189 482.923 870.189 481.459C870.189 480.145 869.856 479.168 869.191 478.527C868.534 477.878 867.694 477.554 866.671 477.554C865.573 477.554 864.7 477.924 864.051 478.664C863.41 479.396 863.09 480.378 863.09 481.609C863.09 482.773 863.373 483.701 863.938 484.391C864.504 485.073 865.406 485.414 866.646 485.414ZM882.778 475.071H884.936V485.714L890.7 480.037H893.57L888.454 485.04L893.856 493.399H890.987L886.82 486.662L884.936 488.383V493.399H882.778V475.071ZM895.603 480.037H897.824V481.933C898.356 481.276 898.839 480.798 899.271 480.498C900.011 479.991 900.851 479.737 901.791 479.737C902.856 479.737 903.713 479.999 904.361 480.523C904.727 480.823 905.06 481.264 905.36 481.846C905.859 481.131 906.445 480.602 907.119 480.261C907.792 479.912 908.549 479.737 909.389 479.737C911.186 479.737 912.409 480.386 913.057 481.684C913.407 482.382 913.581 483.322 913.581 484.503V493.399H911.248V484.117C911.248 483.227 911.024 482.615 910.575 482.283C910.134 481.95 909.593 481.784 908.953 481.784C908.071 481.784 907.31 482.079 906.67 482.669C906.037 483.26 905.721 484.246 905.721 485.626V493.399H903.438V484.678C903.438 483.771 903.33 483.11 903.114 482.694C902.773 482.071 902.137 481.759 901.205 481.759C900.357 481.759 899.583 482.087 898.884 482.744C898.194 483.401 897.849 484.591 897.849 486.312V493.399H895.603V480.037Z" fill="#0C0C0C"/>
<path d="M1252.08 77.1383H1256.11L1263.43 89.9764V77.1383H1267.01V95.5283H1263.17L1255.66 82.4657V95.5283H1252.08V77.1383ZM1277.81 88.9159C1277.59 89.0573 1277.36 89.1738 1277.13 89.2653C1276.9 89.3484 1276.59 89.4274 1276.19 89.5023L1275.39 89.652C1274.64 89.7851 1274.11 89.9473 1273.78 90.1386C1273.24 90.463 1272.96 90.9662 1272.96 91.6482C1272.96 92.2554 1273.13 92.6962 1273.46 92.9707C1273.8 93.2369 1274.21 93.3699 1274.69 93.3699C1275.46 93.3699 1276.16 93.1454 1276.8 92.6962C1277.45 92.2471 1277.79 91.4278 1277.81 90.2384V88.9159ZM1275.66 87.2566C1276.31 87.1734 1276.78 87.0694 1277.07 86.9447C1277.57 86.7284 1277.83 86.3916 1277.83 85.9341C1277.83 85.3768 1277.63 84.9942 1277.24 84.7863C1276.86 84.57 1276.29 84.4619 1275.54 84.4619C1274.7 84.4619 1274.11 84.6698 1273.76 85.0857C1273.51 85.3935 1273.34 85.8093 1273.26 86.3333H1269.83C1269.9 85.1439 1270.24 84.1666 1270.83 83.4014C1271.77 82.2037 1273.38 81.6048 1275.67 81.6048C1277.16 81.6048 1278.48 81.9001 1279.64 82.4907C1280.79 83.0812 1281.37 84.1957 1281.37 85.8343V92.0724C1281.37 92.5049 1281.38 93.0289 1281.39 93.6444C1281.42 94.1102 1281.49 94.4263 1281.61 94.5926C1281.72 94.759 1281.9 94.8962 1282.13 95.0043V95.5283H1278.26C1278.15 95.2538 1278.08 94.996 1278.04 94.7548C1278 94.5136 1277.96 94.2391 1277.94 93.9314C1277.45 94.4637 1276.88 94.917 1276.24 95.2913C1275.48 95.7321 1274.61 95.9525 1273.65 95.9525C1272.42 95.9525 1271.4 95.6032 1270.59 94.9045C1269.79 94.1975 1269.39 93.1994 1269.39 91.9102C1269.39 90.2384 1270.04 89.0282 1271.33 88.2796C1272.03 87.8721 1273.07 87.581 1274.45 87.4063L1275.66 87.2566ZM1291.92 81.6048C1291.99 81.6048 1292.05 81.609 1292.09 81.6173C1292.14 81.6173 1292.24 81.6215 1292.4 81.6298V85.2729C1292.17 85.2479 1291.97 85.2313 1291.8 85.2229C1291.62 85.2146 1291.48 85.2105 1291.38 85.2105C1289.94 85.2105 1288.98 85.6763 1288.49 86.6078C1288.22 87.1318 1288.08 87.9386 1288.08 89.0282V95.5283H1284.5V81.9292H1287.89V84.2997C1288.44 83.3931 1288.92 82.7734 1289.33 82.4407C1289.99 81.8835 1290.86 81.6048 1291.92 81.6048ZM1302.88 81.9292H1306.7L1301.79 95.5283H1298.04L1293.16 81.9292H1297.15L1299.98 91.9601L1302.88 81.9292ZM1316.22 88.9159C1315.99 89.0573 1315.76 89.1738 1315.53 89.2653C1315.3 89.3484 1314.99 89.4274 1314.59 89.5023L1313.8 89.652C1313.05 89.7851 1312.51 89.9473 1312.19 90.1386C1311.64 90.463 1311.36 90.9662 1311.36 91.6482C1311.36 92.2554 1311.53 92.6962 1311.86 92.9707C1312.2 93.2369 1312.61 93.3699 1313.1 93.3699C1313.86 93.3699 1314.56 93.1454 1315.21 92.6962C1315.85 92.2471 1316.19 91.4278 1316.22 90.2384V88.9159ZM1314.06 87.2566C1314.71 87.1734 1315.18 87.0694 1315.47 86.9447C1315.97 86.7284 1316.23 86.3916 1316.23 85.9341C1316.23 85.3768 1316.03 84.9942 1315.64 84.7863C1315.26 84.57 1314.69 84.4619 1313.94 84.4619C1313.1 84.4619 1312.51 84.6698 1312.16 85.0857C1311.91 85.3935 1311.74 85.8093 1311.66 86.3333H1308.23C1308.31 85.1439 1308.64 84.1666 1309.23 83.4014C1310.17 82.2037 1311.78 81.6048 1314.07 81.6048C1315.56 81.6048 1316.88 81.9001 1318.04 82.4907C1319.19 83.0812 1319.77 84.1957 1319.77 85.8343V92.0724C1319.77 92.5049 1319.78 93.0289 1319.8 93.6444C1319.82 94.1102 1319.89 94.4263 1320.01 94.5926C1320.12 94.759 1320.3 94.8962 1320.53 95.0043V95.5283H1316.66C1316.56 95.2538 1316.48 94.996 1316.44 94.7548C1316.4 94.5136 1316.37 94.2391 1316.34 93.9314C1315.85 94.4637 1315.28 94.917 1314.64 95.2913C1313.88 95.7321 1313.01 95.9525 1312.05 95.9525C1310.82 95.9525 1309.8 95.6032 1308.99 94.9045C1308.19 94.1975 1307.79 93.1994 1307.79 91.9102C1307.79 90.2384 1308.44 89.0282 1309.73 88.2796C1310.43 87.8721 1311.47 87.581 1312.85 87.4063L1314.06 87.2566ZM1334.21 77.2007H1336.1L1330.29 95.5283H1328.39L1334.21 77.2007ZM1354.92 82.9897C1354.92 82.0332 1354.66 81.3512 1354.16 80.9436C1353.66 80.536 1352.95 80.3323 1352.05 80.3323H1348.47V85.747H1352.05C1352.95 85.747 1353.66 85.5265 1354.16 85.0857C1354.66 84.6449 1354.92 83.9462 1354.92 82.9897ZM1358.72 82.9648C1358.72 85.1356 1358.17 86.6702 1357.08 87.5685C1355.98 88.4668 1354.41 88.9159 1352.37 88.9159H1348.47V95.5283H1344.65V77.1383H1352.66C1354.51 77.1383 1355.98 77.6124 1357.08 78.5606C1358.17 79.5088 1358.72 80.9769 1358.72 82.9648ZM1366.68 84.4993C1365.86 84.4993 1365.22 84.7572 1364.76 85.2729C1364.31 85.7885 1364.03 86.4872 1363.91 87.3689H1369.44C1369.38 86.429 1369.09 85.7178 1368.58 85.2354C1368.07 84.7447 1367.44 84.4993 1366.68 84.4993ZM1366.68 81.5674C1367.81 81.5674 1368.83 81.7795 1369.74 82.2037C1370.65 82.6279 1371.39 83.2975 1371.98 84.2124C1372.52 85.0192 1372.86 85.9549 1373.02 87.0195C1373.11 87.6433 1373.15 88.5416 1373.13 89.7144H1363.82C1363.87 91.0785 1364.3 92.035 1365.11 92.5839C1365.6 92.9249 1366.19 93.0955 1366.88 93.0955C1367.61 93.0955 1368.21 92.8875 1368.67 92.4716C1368.92 92.2471 1369.14 91.9352 1369.33 91.5359H1372.96C1372.87 92.3427 1372.45 93.162 1371.7 93.9937C1370.53 95.3162 1368.9 95.9775 1366.81 95.9775C1365.08 95.9775 1363.55 95.4202 1362.23 94.3056C1360.91 93.1911 1360.24 91.3779 1360.24 88.866C1360.24 86.5122 1360.84 84.7073 1362.03 83.4513C1363.23 82.1954 1364.78 81.5674 1366.68 81.5674ZM1374.14 84.5867V82.054H1376.04V78.2612H1379.56V82.054H1381.77V84.5867H1379.56V91.773C1379.56 92.3302 1379.63 92.6796 1379.77 92.821C1379.91 92.9541 1380.34 93.0206 1381.07 93.0206C1381.18 93.0206 1381.29 93.0206 1381.4 93.0206C1381.53 93.0123 1381.65 93.004 1381.77 92.9956V95.6531L1380.08 95.7155C1378.4 95.7737 1377.25 95.4826 1376.64 94.8421C1376.24 94.4346 1376.04 93.8066 1376.04 92.9582V84.5867H1374.14ZM1389.41 84.4993C1388.59 84.4993 1387.95 84.7572 1387.49 85.2729C1387.04 85.7885 1386.76 86.4872 1386.64 87.3689H1392.17C1392.11 86.429 1391.83 85.7178 1391.31 85.2354C1390.8 84.7447 1390.17 84.4993 1389.41 84.4993ZM1389.41 81.5674C1390.54 81.5674 1391.56 81.7795 1392.47 82.2037C1393.38 82.6279 1394.13 83.2975 1394.72 84.2124C1395.25 85.0192 1395.59 85.9549 1395.75 87.0195C1395.84 87.6433 1395.88 88.5416 1395.86 89.7144H1386.56C1386.61 91.0785 1387.03 92.035 1387.84 92.5839C1388.33 92.9249 1388.92 93.0955 1389.61 93.0955C1390.35 93.0955 1390.94 92.8875 1391.4 92.4716C1391.65 92.2471 1391.87 91.9352 1392.06 91.5359H1395.69C1395.6 92.3427 1395.18 93.162 1394.43 93.9937C1393.26 95.3162 1391.63 95.9775 1389.54 95.9775C1387.81 95.9775 1386.28 95.4202 1384.96 94.3056C1383.64 93.1911 1382.98 91.3779 1382.98 88.866C1382.98 86.5122 1383.57 84.7073 1384.76 83.4513C1385.96 82.1954 1387.51 81.5674 1389.41 81.5674ZM1405.66 81.6048C1405.72 81.6048 1405.78 81.609 1405.82 81.6173C1405.87 81.6173 1405.97 81.6215 1406.13 81.6298V85.2729C1405.91 85.2479 1405.71 85.2313 1405.53 85.2229C1405.36 85.2146 1405.22 85.2105 1405.11 85.2105C1403.68 85.2105 1402.72 85.6763 1402.23 86.6078C1401.95 87.1318 1401.82 87.9386 1401.82 89.0282V95.5283H1398.23V81.9292H1401.63V84.2997C1402.18 83.3931 1402.66 82.7734 1403.06 82.4407C1403.73 81.8835 1404.59 81.6048 1405.66 81.6048ZM1415.58 81.6298C1417.36 81.6298 1418.76 82.2744 1419.77 83.5636C1420.78 84.8528 1421.29 86.5163 1421.29 88.5541C1421.29 90.6667 1420.79 92.4176 1419.79 93.8066C1418.8 95.1956 1417.4 95.8901 1415.61 95.8901C1414.49 95.8901 1413.59 95.6656 1412.91 95.2164C1412.5 94.9503 1412.06 94.4845 1411.58 93.8191V95.5283H1408.1V77.1633H1411.65V83.7008C1412.1 83.0687 1412.59 82.5863 1413.13 82.2536C1413.77 81.8377 1414.59 81.6298 1415.58 81.6298ZM1414.67 92.9582C1415.58 92.9582 1416.29 92.5881 1416.8 91.8478C1417.31 91.1076 1417.56 90.1344 1417.56 88.9284C1417.56 87.9636 1417.44 87.1651 1417.19 86.533C1416.71 85.3352 1415.84 84.7364 1414.57 84.7364C1413.28 84.7364 1412.39 85.3228 1411.91 86.4955C1411.66 87.1193 1411.53 87.9261 1411.53 88.9159C1411.53 90.0804 1411.79 91.0452 1412.31 91.8104C1412.82 92.5756 1413.61 92.9582 1414.67 92.9582ZM1427.39 81.9292V90.1261C1427.39 90.8996 1427.48 91.4819 1427.67 91.8728C1427.99 92.5631 1428.63 92.9083 1429.57 92.9083C1430.79 92.9083 1431.62 92.4176 1432.07 91.4361C1432.3 90.9038 1432.42 90.201 1432.42 89.3276V81.9292H1436.02V95.5283H1432.57V93.607C1432.54 93.6486 1432.45 93.7733 1432.32 93.9813C1432.19 94.1892 1432.03 94.3722 1431.85 94.5302C1431.29 95.0293 1430.75 95.3703 1430.22 95.5533C1429.71 95.7363 1429.1 95.8277 1428.4 95.8277C1426.39 95.8277 1425.03 95.1041 1424.33 93.6569C1423.94 92.8584 1423.75 91.6815 1423.75 90.1261V81.9292H1427.39ZM1446.85 81.6048C1446.92 81.6048 1446.97 81.609 1447.02 81.6173C1447.07 81.6173 1447.17 81.6215 1447.33 81.6298V85.2729C1447.1 85.2479 1446.9 85.2313 1446.73 85.2229C1446.55 85.2146 1446.41 85.2105 1446.31 85.2105C1444.87 85.2105 1443.91 85.6763 1443.42 86.6078C1443.15 87.1318 1443.01 87.9386 1443.01 89.0282V95.5283H1439.43V81.9292H1442.82V84.2997C1443.37 83.3931 1443.85 82.7734 1444.26 82.4407C1444.92 81.8835 1445.79 81.6048 1446.85 81.6048ZM1453.08 80.3073H1449.47V77.0261H1453.08V80.3073ZM1449.47 81.9292H1453.08V95.5283H1449.47V81.9292Z" fill="#0C0C0C"/>
<path d="M986.626 248.166L988.223 249.655L984.011 254.172L995.819 265.183L994.1 267.026L982.292 256.015L978.081 260.532L976.484 259.043L986.626 248.166ZM998.017 257.611C998.491 258.053 999.027 258.229 999.624 258.137C1000.22 258.046 1000.74 257.763 1001.18 257.288C1001.72 256.71 1002.11 256.026 1002.35 255.235C1002.75 253.908 1002.45 252.774 1001.44 251.832L1000.12 250.599C1000.06 250.918 999.926 251.276 999.716 251.672C999.506 252.068 999.278 252.435 999.031 252.773L998.231 253.887C997.754 254.557 997.462 255.12 997.354 255.577C997.169 256.349 997.39 257.027 998.017 257.611ZM998.405 250.535C998.708 250.112 998.785 249.712 998.637 249.335C998.559 249.126 998.383 248.894 998.109 248.638C997.55 248.116 996.958 247.94 996.334 248.109C995.71 248.266 995.052 248.716 994.36 249.458C993.56 250.316 993.224 251.14 993.352 251.93C993.42 252.369 993.678 252.854 994.126 253.386L992.697 254.919C991.521 253.765 991.047 252.596 991.277 251.411C991.506 250.214 992.082 249.12 993.007 248.128C994.079 246.978 995.169 246.249 996.276 245.939C997.378 245.636 998.391 245.915 999.315 246.778L1004.95 252.028C1005.12 252.187 1005.28 252.281 1005.45 252.31C1005.62 252.334 1005.81 252.233 1006.02 252.008C1006.09 251.935 1006.16 251.85 1006.24 251.753C1006.32 251.65 1006.39 251.539 1006.47 251.418L1007.68 252.55C1007.52 252.874 1007.38 253.111 1007.27 253.262C1007.17 253.413 1007.01 253.604 1006.79 253.835C1006.26 254.401 1005.68 254.624 1005.04 254.505C1004.7 254.44 1004.31 254.254 1003.87 253.946C1004 254.689 1003.93 255.524 1003.67 256.451C1003.41 257.378 1002.93 258.219 1002.22 258.973C1001.38 259.88 1000.41 260.367 999.325 260.434C998.238 260.49 997.281 260.132 996.454 259.36C995.547 258.515 995.109 257.577 995.137 256.546C995.166 255.515 995.551 254.487 996.292 253.46L998.405 250.535ZM995.781 238.347L997.313 236.704L1010.72 249.204L1009.19 250.847L995.781 238.347ZM999.661 234.186L1001.19 232.543L1014.6 245.043L1013.07 246.686L999.661 234.186ZM1007.18 233.499L1008.73 231.829L1018.46 240.9L1016.9 242.57L1007.18 233.499ZM1003.5 230.07L1005.06 228.4L1006.92 230.136L1005.36 231.806L1003.5 230.07ZM1011.01 229.296L1012.46 227.735L1013.85 229.028C1013.71 228.033 1013.76 227.16 1013.99 226.411C1014.22 225.661 1014.63 224.97 1015.22 224.337C1016.52 222.95 1017.87 222.464 1019.3 222.879C1020.07 223.105 1020.96 223.678 1021.94 224.597L1028.21 230.442L1026.65 232.112L1020.49 226.369C1019.9 225.813 1019.34 225.453 1018.81 225.289C1017.93 225.014 1017.13 225.259 1016.41 226.026C1016.05 226.415 1015.79 226.771 1015.64 227.095C1015.35 227.67 1015.25 228.315 1015.33 229.03C1015.4 229.604 1015.57 230.096 1015.84 230.504C1016.1 230.901 1016.56 231.397 1017.2 231.993L1022.31 236.766L1020.78 238.409L1011.01 229.296ZM1020.71 218.893L1022.16 217.332L1023.55 218.626C1023.41 217.63 1023.46 216.757 1023.69 216.008C1023.92 215.258 1024.33 214.567 1024.92 213.934C1026.22 212.547 1027.57 212.061 1029 212.476C1029.77 212.702 1030.66 213.275 1031.64 214.194L1037.91 220.039L1036.35 221.709L1030.19 215.966C1029.6 215.41 1029.03 215.05 1028.51 214.886C1027.62 214.611 1026.83 214.856 1026.11 215.623C1025.75 216.012 1025.49 216.368 1025.34 216.692C1025.05 217.267 1024.95 217.912 1025.03 218.627C1025.1 219.201 1025.27 219.693 1025.54 220.101C1025.8 220.498 1026.26 220.994 1026.89 221.59L1032.01 226.363L1030.48 228.006L1020.71 218.893ZM1038.76 213.918C1039.23 214.361 1039.77 214.536 1040.36 214.445C1040.96 214.353 1041.48 214.07 1041.92 213.596C1042.46 213.018 1042.85 212.334 1043.09 211.542C1043.49 210.216 1043.19 209.082 1042.18 208.14L1040.86 206.906C1040.8 207.226 1040.66 207.584 1040.45 207.98C1040.24 208.375 1040.02 208.742 1039.77 209.081L1038.97 210.194C1038.49 210.864 1038.2 211.428 1038.09 211.885C1037.91 212.656 1038.13 213.334 1038.76 213.918ZM1039.14 206.843C1039.45 206.42 1039.52 206.02 1039.38 205.643C1039.3 205.433 1039.12 205.201 1038.85 204.946C1038.29 204.424 1037.7 204.248 1037.07 204.417C1036.45 204.574 1035.79 205.023 1035.1 205.766C1034.3 206.623 1033.96 207.447 1034.09 208.237C1034.16 208.676 1034.42 209.162 1034.87 209.693L1033.44 211.227C1032.26 210.073 1031.79 208.904 1032.02 207.718C1032.24 206.522 1032.82 205.427 1033.75 204.436C1034.82 203.286 1035.91 202.556 1037.01 202.247C1038.12 201.944 1039.13 202.223 1040.05 203.085L1045.68 208.335C1045.85 208.494 1046.02 208.588 1046.19 208.618C1046.36 208.641 1046.55 208.541 1046.76 208.315C1046.83 208.242 1046.9 208.157 1046.98 208.061C1047.05 207.958 1047.13 207.846 1047.21 207.726L1048.42 208.858C1048.26 209.181 1048.12 209.418 1048.01 209.569C1047.91 209.72 1047.75 209.911 1047.53 210.142C1047 210.708 1046.42 210.932 1045.78 210.813C1045.44 210.748 1045.05 210.562 1044.61 210.253C1044.74 210.996 1044.67 211.831 1044.41 212.759C1044.15 213.686 1043.66 214.527 1042.96 215.281C1042.12 216.188 1041.15 216.674 1040.06 216.742C1038.98 216.798 1038.02 216.44 1037.19 215.668C1036.29 214.823 1035.85 213.885 1035.88 212.854C1035.9 211.823 1036.29 210.794 1037.03 209.768L1039.14 206.843ZM1045 192.84L1046.46 191.279L1048.14 192.853C1047.94 192.419 1047.83 191.734 1047.83 190.799C1047.82 189.857 1048.11 189.061 1048.72 188.41C1048.75 188.38 1048.8 188.331 1048.88 188.264C1048.95 188.196 1049.08 188.083 1049.26 187.924L1050.99 189.54C1050.89 189.621 1050.79 189.701 1050.7 189.78C1050.62 189.853 1050.54 189.939 1050.45 190.036C1049.68 190.864 1049.35 191.749 1049.47 192.692C1049.59 193.63 1049.99 194.422 1050.68 195.069L1056.31 200.31L1054.77 201.953L1045 192.84ZM1050.81 186.704L1052.36 185.034L1062.09 194.105L1060.53 195.775L1050.81 186.704ZM1047.13 183.275L1048.69 181.605L1050.55 183.341L1048.99 185.011L1047.13 183.275ZM1054.64 182.501L1056.1 180.94L1057.48 182.233C1057.34 181.238 1057.39 180.365 1057.62 179.616C1057.85 178.866 1058.27 178.175 1058.86 177.542C1060.15 176.155 1061.51 175.669 1062.93 176.084C1063.71 176.31 1064.59 176.883 1065.57 177.802L1071.84 183.647L1070.29 185.317L1064.13 179.574C1063.53 179.018 1062.97 178.658 1062.44 178.494C1061.56 178.219 1060.76 178.464 1060.04 179.231C1059.68 179.62 1059.42 179.976 1059.27 180.3C1058.98 180.874 1058.88 181.52 1058.97 182.235C1059.03 182.809 1059.2 183.3 1059.47 183.709C1059.74 184.106 1060.19 184.602 1060.83 185.198L1065.95 189.971L1064.41 191.614L1054.64 182.501ZM1067.38 168.487C1068.1 167.72 1068.91 167.227 1069.82 167.006C1070.32 166.895 1070.93 166.868 1071.64 166.925L1070.41 165.777L1071.82 164.262L1080.71 172.55C1081.95 173.707 1082.76 174.803 1083.13 175.837C1083.82 177.755 1083.29 179.66 1081.52 181.552C1080.54 182.605 1079.48 183.269 1078.34 183.544C1077.2 183.825 1076.09 183.54 1075 182.689L1076.56 181.019C1077.07 181.349 1077.56 181.505 1078.02 181.489C1078.73 181.459 1079.45 181.045 1080.2 180.248C1081.37 178.989 1081.7 177.75 1081.17 176.532C1080.86 175.813 1080.03 174.836 1078.67 173.601C1078.86 174.394 1078.86 175.136 1078.67 175.825C1078.49 176.514 1078.04 177.239 1077.33 178C1076.34 179.058 1075.1 179.637 1073.61 179.736C1072.12 179.824 1070.51 179.059 1068.77 177.443C1067.14 175.917 1066.23 174.327 1066.06 172.673C1065.89 171.014 1066.33 169.618 1067.38 168.487ZM1075.16 170.21C1073.95 169.081 1072.82 168.494 1071.77 168.448C1070.72 168.402 1069.84 168.766 1069.12 169.538C1068.04 170.694 1067.84 171.99 1068.53 173.426C1068.9 174.19 1069.55 175.008 1070.48 175.882C1071.59 176.909 1072.63 177.469 1073.62 177.564C1074.62 177.647 1075.46 177.312 1076.17 176.557C1077.27 175.377 1077.51 174.05 1076.89 172.577C1076.54 171.748 1075.96 170.959 1075.16 170.21ZM1071.62 158.822L1073.17 157.161L1075.9 159.705L1077.35 158.145L1078.69 159.396L1077.24 160.956L1083.62 166.904C1083.96 167.222 1084.29 167.319 1084.62 167.195C1084.81 167.13 1085.04 166.948 1085.32 166.65C1085.39 166.571 1085.47 166.486 1085.56 166.395C1085.64 166.298 1085.73 166.183 1085.83 166.05L1087.12 167.258C1087 167.498 1086.86 167.732 1086.69 167.962C1086.53 168.185 1086.33 168.416 1086.11 168.653C1085.4 169.419 1084.72 169.758 1084.07 169.669C1083.42 169.574 1082.78 169.234 1082.16 168.65L1075.69 162.617L1074.45 163.94L1073.11 162.689L1074.35 161.366L1071.62 158.822ZM1082.47 152.219C1083.11 151.526 1083.9 151.006 1084.84 150.662C1085.77 150.312 1086.65 150.207 1087.49 150.349C1088.28 150.48 1089.06 150.797 1089.82 151.3C1090.36 151.622 1091.13 152.243 1092.11 153.162L1085.43 160.325C1086.45 161.22 1087.47 161.729 1088.48 161.852C1089.48 161.97 1090.41 161.57 1091.27 160.651C1092.07 159.793 1092.43 158.845 1092.34 157.806C1092.28 157.208 1092.09 156.647 1091.77 156.122L1093.28 154.507C1093.6 154.884 1093.87 155.402 1094.09 156.059C1094.3 156.705 1094.41 157.307 1094.41 157.866C1094.43 158.819 1094.19 159.743 1093.67 160.638C1093.4 161.124 1093.03 161.616 1092.57 162.115C1091.43 163.332 1090.03 163.952 1088.36 163.975C1086.68 163.992 1085.05 163.258 1083.45 161.772C1081.88 160.308 1081.01 158.694 1080.82 156.929C1080.64 155.164 1081.18 153.594 1082.47 152.219ZM1089.23 153.633C1088.46 153.037 1087.75 152.661 1087.09 152.508C1085.88 152.22 1084.79 152.603 1083.81 153.655C1083.1 154.41 1082.79 155.298 1082.86 156.319C1082.92 157.335 1083.36 158.25 1084.17 159.063L1089.23 153.633ZM1092.17 141.816C1092.81 141.123 1093.6 140.603 1094.54 140.259C1095.47 139.909 1096.35 139.804 1097.19 139.946C1097.98 140.077 1098.76 140.394 1099.52 140.897C1100.06 141.219 1100.83 141.84 1101.81 142.759L1095.13 149.922C1096.15 150.817 1097.17 151.326 1098.18 151.449C1099.18 151.567 1100.11 151.167 1100.97 150.248C1101.77 149.39 1102.13 148.442 1102.04 147.404C1101.98 146.805 1101.79 146.244 1101.47 145.719L1102.98 144.104C1103.3 144.481 1103.57 144.999 1103.78 145.656C1104 146.302 1104.11 146.904 1104.11 147.463C1104.13 148.416 1103.89 149.34 1103.37 150.235C1103.1 150.721 1102.73 151.214 1102.27 151.712C1101.13 152.929 1099.73 153.549 1098.06 153.572C1096.38 153.589 1094.75 152.855 1093.15 151.369C1091.58 149.905 1090.71 148.291 1090.52 146.526C1090.34 144.761 1090.88 143.191 1092.17 141.816ZM1098.93 143.23C1098.16 142.634 1097.45 142.258 1096.79 142.105C1095.58 141.817 1094.49 142.2 1093.51 143.252C1092.8 144.007 1092.49 144.895 1092.56 145.916C1092.62 146.932 1093.06 147.847 1093.87 148.66L1098.93 143.23Z" fill="#0C0C0C"/>
<path d="M165.921 1065.17L167.11 1067L161.931 1070.36L170.722 1083.9L168.609 1085.28L159.817 1071.73L154.638 1075.1L153.449 1073.27L165.921 1065.17ZM174.688 1077.09C175.041 1077.63 175.518 1077.93 176.12 1077.99C176.721 1078.04 177.294 1077.89 177.838 1077.54C178.501 1077.11 179.043 1076.54 179.464 1075.83C180.18 1074.64 180.162 1073.47 179.41 1072.31L178.425 1070.79C178.29 1071.09 178.073 1071.4 177.773 1071.74C177.474 1072.07 177.164 1072.37 176.842 1072.64L175.797 1073.53C175.172 1074.06 174.752 1074.54 174.537 1074.95C174.171 1075.66 174.221 1076.37 174.688 1077.09ZM176.777 1070.32C177.173 1069.98 177.345 1069.61 177.292 1069.21C177.267 1068.99 177.152 1068.72 176.949 1068.41C176.532 1067.76 176 1067.45 175.354 1067.46C174.711 1067.46 173.963 1067.74 173.112 1068.29C172.129 1068.93 171.603 1069.65 171.536 1070.45C171.496 1070.89 171.629 1071.42 171.935 1072.05L170.177 1073.19C169.315 1071.78 169.139 1070.54 169.648 1069.44C170.16 1068.34 170.984 1067.41 172.121 1066.68C173.44 1065.82 174.674 1065.37 175.823 1065.34C176.965 1065.31 177.881 1065.83 178.569 1066.89L182.761 1073.35C182.888 1073.54 183.028 1073.68 183.182 1073.74C183.343 1073.81 183.552 1073.76 183.81 1073.59C183.894 1073.53 183.986 1073.47 184.086 1073.39C184.182 1073.31 184.282 1073.22 184.387 1073.13L185.29 1074.52C185.052 1074.79 184.863 1074.99 184.723 1075.11C184.583 1075.23 184.38 1075.38 184.115 1075.55C183.466 1075.97 182.846 1076.04 182.254 1075.77C181.942 1075.63 181.61 1075.35 181.257 1074.95C181.2 1075.7 180.932 1076.49 180.453 1077.33C179.975 1078.17 179.303 1078.87 178.438 1079.43C177.399 1080.1 176.344 1080.34 175.274 1080.14C174.206 1079.94 173.364 1079.36 172.748 1078.41C172.073 1077.37 171.874 1076.35 172.151 1075.36C172.429 1074.37 173.051 1073.46 174.018 1072.64L176.777 1070.32ZM177.18 1057.86L179.064 1056.63L189.044 1072L187.161 1073.23L177.18 1057.86ZM181.951 1054.76L183.835 1053.53L193.816 1068.91L191.932 1070.13L181.951 1054.76ZM189.409 1055.91L191.324 1054.67L198.566 1065.82L196.651 1067.07L189.409 1055.91ZM186.671 1051.69L188.585 1050.45L189.971 1052.58L188.057 1053.83L186.671 1051.69ZM194.146 1052.76L195.935 1051.6L196.968 1053.19C197.072 1052.19 197.328 1051.35 197.736 1050.68C198.143 1050.01 198.709 1049.44 199.435 1048.97C201.025 1047.94 202.459 1047.79 203.738 1048.54C204.439 1048.95 205.156 1049.72 205.89 1050.85L210.557 1058.03L208.643 1059.28L204.057 1052.21C203.613 1051.53 203.154 1051.05 202.68 1050.76C201.892 1050.28 201.058 1050.32 200.179 1050.89C199.733 1051.18 199.396 1051.47 199.169 1051.74C198.753 1052.23 198.498 1052.83 198.407 1053.55C198.333 1054.12 198.376 1054.64 198.537 1055.1C198.7 1055.55 199.019 1056.14 199.495 1056.87L203.306 1062.74L201.423 1063.97L194.146 1052.76ZM206.075 1045.01L207.864 1043.85L208.897 1045.44C209.001 1044.44 209.257 1043.61 209.664 1042.94C210.071 1042.26 210.638 1041.69 211.363 1041.22C212.954 1040.19 214.388 1040.05 215.666 1040.79C216.367 1041.2 217.085 1041.97 217.818 1043.1L222.486 1050.29L220.571 1051.53L215.985 1044.47C215.541 1043.79 215.082 1043.3 214.608 1043.01C213.82 1042.53 212.987 1042.58 212.108 1043.15C211.662 1043.44 211.325 1043.72 211.098 1044C210.681 1044.49 210.427 1045.09 210.335 1045.8C210.261 1046.38 210.305 1046.89 210.465 1047.35C210.628 1047.8 210.948 1048.39 211.423 1049.13L215.235 1055L213.351 1056.22L206.075 1045.01ZM224.787 1044.55C225.141 1045.1 225.618 1045.4 226.22 1045.45C226.821 1045.51 227.394 1045.36 227.938 1045.01C228.601 1044.58 229.143 1044.01 229.564 1043.3C230.28 1042.11 230.262 1040.93 229.51 1039.78L228.525 1038.26C228.39 1038.56 228.172 1038.87 227.873 1039.2C227.574 1039.54 227.263 1039.84 226.942 1040.11L225.896 1040.99C225.272 1041.53 224.852 1042 224.637 1042.42C224.271 1043.12 224.321 1043.84 224.787 1044.55ZM226.876 1037.78C227.273 1037.45 227.444 1037.08 227.392 1036.67C227.367 1036.45 227.252 1036.19 227.048 1035.87C226.632 1035.23 226.1 1034.92 225.454 1034.93C224.81 1034.93 224.063 1035.21 223.212 1035.76C222.229 1036.4 221.703 1037.12 221.636 1037.91C221.596 1038.36 221.729 1038.89 222.035 1039.51L220.277 1040.66C219.415 1039.25 219.239 1038 219.748 1036.91C220.26 1035.8 221.084 1034.88 222.221 1034.14C223.54 1033.29 224.773 1032.84 225.923 1032.81C227.065 1032.78 227.98 1033.3 228.669 1034.36L232.861 1040.81C232.988 1041.01 233.128 1041.14 233.282 1041.21C233.443 1041.27 233.652 1041.22 233.91 1041.06C233.994 1041 234.086 1040.94 234.186 1040.86C234.281 1040.78 234.382 1040.69 234.487 1040.59L235.39 1041.98C235.152 1042.26 234.962 1042.45 234.822 1042.57C234.683 1042.7 234.48 1042.84 234.215 1043.01C233.566 1043.44 232.946 1043.51 232.354 1043.24C232.042 1043.1 231.71 1042.82 231.357 1042.42C231.299 1043.17 231.032 1043.96 230.553 1044.8C230.075 1045.63 229.403 1046.33 228.538 1046.89C227.499 1047.57 226.444 1047.81 225.373 1047.61C224.305 1047.4 223.463 1046.82 222.847 1045.87C222.173 1044.83 221.974 1043.82 222.251 1042.82C222.528 1041.83 223.151 1040.93 224.118 1040.11L226.876 1037.78ZM235.948 1025.61L237.738 1024.45L238.994 1026.39C238.896 1025.92 238.959 1025.23 239.182 1024.32C239.401 1023.4 239.883 1022.7 240.63 1022.22C240.665 1022.19 240.726 1022.16 240.815 1022.11C240.903 1022.06 241.055 1021.99 241.271 1021.88L242.562 1023.86C242.436 1023.91 242.323 1023.97 242.221 1024.03C242.125 1024.08 242.022 1024.14 241.91 1024.21C240.962 1024.83 240.432 1025.61 240.321 1026.55C240.206 1027.49 240.407 1028.36 240.923 1029.15L245.108 1035.6L243.225 1036.82L235.948 1025.61ZM243.066 1021.07L244.981 1019.82L252.224 1030.98L250.309 1032.22L243.066 1021.07ZM240.328 1016.85L242.243 1015.61L243.629 1017.74L241.714 1018.98L240.328 1016.85ZM247.804 1017.92L249.593 1016.75L250.626 1018.34C250.73 1017.34 250.986 1016.51 251.393 1015.84C251.8 1015.17 252.367 1014.6 253.092 1014.12C254.683 1013.09 256.117 1012.95 257.395 1013.7C258.096 1014.1 258.814 1014.87 259.547 1016L264.215 1023.19L262.3 1024.43L257.714 1017.37C257.27 1016.69 256.811 1016.2 256.337 1015.91C255.549 1015.43 254.716 1015.48 253.837 1016.05C253.39 1016.34 253.054 1016.62 252.827 1016.9C252.41 1017.39 252.156 1017.99 252.064 1018.7C251.99 1019.28 252.034 1019.8 252.194 1020.26C252.357 1020.71 252.676 1021.3 253.152 1022.03L256.964 1027.9L255.08 1029.12L247.804 1017.92ZM263.558 1007.4C264.437 1006.83 265.345 1006.55 266.281 1006.56C266.796 1006.57 267.39 1006.69 268.063 1006.92L267.145 1005.5L268.882 1004.38L275.5 1014.57C276.424 1015.99 276.944 1017.25 277.06 1018.35C277.266 1020.37 276.284 1022.09 274.115 1023.5C272.908 1024.28 271.717 1024.67 270.54 1024.66C269.368 1024.66 268.36 1024.11 267.515 1023.03L269.43 1021.78C269.846 1022.23 270.279 1022.5 270.728 1022.59C271.425 1022.73 272.231 1022.51 273.145 1021.91C274.588 1020.98 275.203 1019.85 274.988 1018.55C274.864 1017.77 274.291 1016.62 273.269 1015.09C273.263 1015.91 273.086 1016.63 272.737 1017.25C272.388 1017.88 271.778 1018.47 270.906 1019.04C269.692 1019.83 268.35 1020.09 266.879 1019.82C265.41 1019.55 264.03 1018.42 262.74 1016.43C261.521 1014.55 261.027 1012.79 261.257 1011.14C261.494 1009.49 262.261 1008.24 263.558 1007.4ZM270.685 1010.96C269.784 1009.57 268.83 1008.72 267.823 1008.43C266.816 1008.13 265.87 1008.27 264.984 1008.84C263.658 1009.7 263.155 1010.91 263.473 1012.47C263.645 1013.3 264.08 1014.25 264.777 1015.33C265.597 1016.59 266.477 1017.39 267.416 1017.72C268.358 1018.04 269.262 1017.92 270.127 1017.36C271.48 1016.48 272.036 1015.25 271.794 1013.67C271.653 1012.78 271.283 1011.88 270.685 1010.96ZM270.006 999.05L271.91 997.813L273.942 1000.94L275.731 999.78L276.73 1001.32L274.94 1002.48L279.69 1009.79C279.943 1010.19 280.246 1010.36 280.597 1010.32C280.793 1010.3 281.062 1010.18 281.404 1009.96C281.495 1009.9 281.592 1009.84 281.697 1009.77C281.797 1009.7 281.912 1009.61 282.043 1009.5L283.008 1010.99C282.832 1011.19 282.635 1011.38 282.416 1011.56C282.204 1011.74 281.962 1011.92 281.69 1012.1C280.811 1012.67 280.069 1012.83 279.465 1012.59C278.857 1012.34 278.32 1011.85 277.853 1011.14L273.036 1003.72L271.519 1004.7L270.52 1003.16L272.037 1002.18L270.006 999.05ZM282.129 995.269C282.924 994.752 283.817 994.44 284.808 994.332C285.794 994.217 286.675 994.329 287.451 994.668C288.195 994.989 288.874 995.485 289.489 996.157C289.935 996.601 290.526 997.388 291.259 998.518L283.046 1003.85C283.819 1004.97 284.681 1005.71 285.631 1006.07C286.577 1006.43 287.577 1006.26 288.631 1005.58C289.614 1004.94 290.188 1004.11 290.353 1003.08C290.443 1002.48 290.397 1001.89 290.215 1001.31L292.067 1000.11C292.286 1000.55 292.421 1001.12 292.472 1001.81C292.526 1002.49 292.487 1003.1 292.353 1003.64C292.144 1004.57 291.68 1005.4 290.963 1006.15C290.582 1006.55 290.105 1006.94 289.533 1007.31C288.138 1008.22 286.628 1008.48 285.001 1008.1C283.37 1007.71 281.961 1006.6 280.775 1004.78C279.606 1002.98 279.145 1001.2 279.393 999.44C279.64 997.683 280.552 996.292 282.129 995.269ZM288.352 998.278C287.745 997.512 287.144 996.975 286.548 996.668C285.443 996.096 284.287 996.202 283.08 996.986C282.215 997.548 281.694 998.333 281.515 999.341C281.332 1000.34 281.536 1001.34 282.126 1002.32L288.352 998.278ZM294.057 987.522C294.852 987.006 295.745 986.694 296.736 986.586C297.723 986.471 298.604 986.583 299.38 986.922C300.123 987.243 300.802 987.739 301.417 988.411C301.864 988.854 302.454 989.641 303.188 990.771L294.974 996.105C295.747 997.22 296.609 997.959 297.56 998.324C298.506 998.681 299.506 998.518 300.559 997.834C301.543 997.195 302.117 996.361 302.282 995.332C302.372 994.738 302.326 994.148 302.144 993.562L303.996 992.359C304.214 992.803 304.349 993.369 304.401 994.06C304.455 994.739 304.415 995.35 304.282 995.893C304.072 996.822 303.609 997.659 302.891 998.402C302.511 998.808 302.034 999.197 301.462 999.568C300.067 1000.47 298.556 1000.74 296.93 1000.35C295.299 999.966 293.89 998.857 292.703 997.03C291.535 995.23 291.074 993.451 291.321 991.694C291.569 989.937 292.481 988.546 294.057 987.522ZM300.281 990.532C299.674 989.766 299.073 989.229 298.476 988.922C297.371 988.35 296.216 988.456 295.009 989.24C294.144 989.802 293.622 990.587 293.444 991.595C293.261 992.596 293.465 993.59 294.055 994.575L300.281 990.532Z" fill="#0C0C0C"/>
<path d="M129.11 847.705C129.11 846.748 128.856 846.066 128.349 845.658C127.85 845.251 127.147 845.047 126.241 845.047H122.66V850.462H126.241C127.147 850.462 127.85 850.241 128.349 849.801C128.856 849.36 129.11 848.661 129.11 847.705ZM132.915 847.68C132.915 849.85 132.366 851.385 131.269 852.283C130.171 853.182 128.603 853.631 126.565 853.631H122.66V860.243H118.842V841.853H126.852C128.698 841.853 130.171 842.327 131.269 843.275C132.366 844.224 132.915 845.692 132.915 847.68ZM143.009 853.631C142.784 853.772 142.555 853.889 142.322 853.98C142.098 854.063 141.786 854.142 141.387 854.217L140.588 854.367C139.84 854.5 139.303 854.662 138.979 854.853C138.43 855.178 138.155 855.681 138.155 856.363C138.155 856.97 138.322 857.411 138.654 857.686C138.995 857.952 139.407 858.085 139.89 858.085C140.655 858.085 141.358 857.86 141.998 857.411C142.647 856.962 142.984 856.143 143.009 854.953V853.631ZM140.85 851.971C141.507 851.888 141.977 851.784 142.26 851.66C142.767 851.443 143.021 851.106 143.021 850.649C143.021 850.092 142.826 849.709 142.435 849.501C142.052 849.285 141.487 849.177 140.738 849.177C139.898 849.177 139.303 849.385 138.954 849.801C138.704 850.108 138.538 850.524 138.455 851.048H135.024C135.099 849.859 135.431 848.881 136.022 848.116C136.962 846.919 138.575 846.32 140.863 846.32C142.352 846.32 143.674 846.615 144.83 847.205C145.986 847.796 146.564 848.911 146.564 850.549V856.787C146.564 857.22 146.573 857.744 146.589 858.359C146.614 858.825 146.685 859.141 146.801 859.307C146.918 859.474 147.093 859.611 147.325 859.719V860.243H143.458C143.35 859.969 143.275 859.711 143.233 859.47C143.192 859.228 143.158 858.954 143.133 858.646C142.643 859.179 142.077 859.632 141.437 860.006C140.671 860.447 139.806 860.667 138.842 860.667C137.611 860.667 136.592 860.318 135.785 859.619C134.986 858.912 134.587 857.914 134.587 856.625C134.587 854.953 135.232 853.743 136.521 852.994C137.228 852.587 138.268 852.296 139.64 852.121L140.85 851.971ZM141.898 841.616H145.155V844.573H141.898V841.616ZM136.908 841.616H140.164V844.573H136.908V841.616ZM157.119 846.32C157.186 846.32 157.24 846.324 157.282 846.332C157.331 846.332 157.435 846.336 157.593 846.345V849.988C157.369 849.963 157.169 849.946 156.995 849.938C156.82 849.929 156.678 849.925 156.57 849.925C155.14 849.925 154.179 850.391 153.688 851.323C153.414 851.847 153.277 852.653 153.277 853.743V860.243H149.696V846.644H153.089V849.015C153.638 848.108 154.117 847.488 154.524 847.156C155.19 846.598 156.055 846.32 157.119 846.32ZM167.225 846.32C168.631 846.32 169.779 846.69 170.669 847.43C171.567 848.162 172.016 849.381 172.016 851.086V860.243H168.373V851.971C168.373 851.256 168.277 850.707 168.086 850.325C167.737 849.626 167.071 849.277 166.09 849.277C164.884 849.277 164.056 849.788 163.607 850.811C163.374 851.352 163.258 852.042 163.258 852.882V860.243H159.714V846.669H163.145V848.653C163.603 847.954 164.035 847.451 164.443 847.143C165.175 846.594 166.102 846.32 167.225 846.32ZM178.853 846.644V854.841C178.853 855.614 178.944 856.197 179.127 856.588C179.452 857.278 180.088 857.623 181.036 857.623C182.251 857.623 183.082 857.132 183.532 856.151C183.764 855.619 183.881 854.916 183.881 854.042V846.644H187.486V860.243H184.031V858.322C183.997 858.363 183.914 858.488 183.781 858.696C183.648 858.904 183.49 859.087 183.307 859.245C182.75 859.744 182.209 860.085 181.685 860.268C181.169 860.451 180.562 860.543 179.863 860.543C177.851 860.543 176.495 859.819 175.796 858.372C175.405 857.573 175.21 856.396 175.21 854.841V846.644H178.853ZM202.196 841.916H204.092L198.278 860.243H196.382L202.196 841.916ZM216.394 845.047V849.988H220.748C221.613 849.988 222.262 849.888 222.694 849.688C223.46 849.339 223.842 848.649 223.842 847.617C223.842 846.503 223.472 845.754 222.732 845.371C222.316 845.155 221.692 845.047 220.86 845.047H216.394ZM221.659 841.853C222.948 841.878 223.938 842.036 224.628 842.327C225.327 842.618 225.917 843.047 226.4 843.612C226.799 844.078 227.115 844.594 227.348 845.159C227.581 845.725 227.697 846.37 227.697 847.093C227.697 847.967 227.477 848.827 227.036 849.676C226.595 850.516 225.868 851.111 224.853 851.46C225.701 851.801 226.3 852.287 226.649 852.92C227.007 853.543 227.186 854.5 227.186 855.789V857.024C227.186 857.864 227.219 858.434 227.286 858.734C227.385 859.208 227.618 859.557 227.984 859.782V860.243H223.755C223.638 859.836 223.555 859.507 223.505 859.258C223.406 858.742 223.351 858.214 223.343 857.673L223.318 855.964C223.302 854.791 223.085 854.009 222.669 853.618C222.262 853.227 221.493 853.032 220.361 853.032H216.394V860.243H212.639V841.853H221.659ZM234.385 845.022H230.779V841.741H234.385V845.022ZM230.779 846.644H234.385V860.243H230.779V846.644ZM241.496 845.022H237.89V841.741H241.496V845.022ZM237.89 846.644H241.496V860.243H237.89V846.644ZM252.45 853.631C252.226 853.772 251.997 853.889 251.764 853.98C251.539 854.063 251.228 854.142 250.828 854.217L250.03 854.367C249.281 854.5 248.745 854.662 248.42 854.853C247.871 855.178 247.597 855.681 247.597 856.363C247.597 856.97 247.763 857.411 248.096 857.686C248.437 857.952 248.849 858.085 249.331 858.085C250.096 858.085 250.799 857.86 251.44 857.411C252.088 856.962 252.425 856.143 252.45 854.953V853.631ZM250.292 851.971C250.949 851.888 251.419 851.784 251.702 851.66C252.209 851.443 252.463 851.106 252.463 850.649C252.463 850.092 252.267 849.709 251.876 849.501C251.494 849.285 250.928 849.177 250.18 849.177C249.339 849.177 248.745 849.385 248.395 849.801C248.146 850.108 247.98 850.524 247.896 851.048H244.465C244.54 849.859 244.873 848.881 245.464 848.116C246.403 846.919 248.017 846.32 250.304 846.32C251.793 846.32 253.116 846.615 254.272 847.205C255.428 847.796 256.006 848.911 256.006 850.549V856.787C256.006 857.22 256.014 857.744 256.031 858.359C256.056 858.825 256.127 859.141 256.243 859.307C256.359 859.474 256.534 859.611 256.767 859.719V860.243H252.899C252.791 859.969 252.716 859.711 252.675 859.47C252.633 859.228 252.6 858.954 252.575 858.646C252.084 859.179 251.519 859.632 250.878 860.006C250.113 860.447 249.248 860.667 248.283 860.667C247.052 860.667 246.033 860.318 245.226 859.619C244.428 858.912 244.029 857.914 244.029 856.625C244.029 854.953 244.673 853.743 245.963 852.994C246.67 852.587 247.709 852.296 249.082 852.121L250.292 851.971Z" fill="#0C0C0C"/>
<path d="M758.125 902.081V905.338H752.623V920.471H748.755V905.338H743.228V902.081H758.125ZM765.698 913.859C765.473 914 765.245 914.117 765.012 914.208C764.787 914.291 764.475 914.37 764.076 914.445L763.277 914.595C762.529 914.728 761.992 914.89 761.668 915.081C761.119 915.406 760.845 915.909 760.845 916.591C760.845 917.198 761.011 917.639 761.344 917.914C761.685 918.18 762.096 918.313 762.579 918.313C763.344 918.313 764.047 918.088 764.687 917.639C765.336 917.19 765.673 916.371 765.698 915.181V913.859ZM763.539 912.199C764.197 912.116 764.666 912.012 764.949 911.888C765.457 911.671 765.71 911.334 765.71 910.877C765.71 910.32 765.515 909.937 765.124 909.729C764.741 909.513 764.176 909.405 763.427 909.405C762.587 909.405 761.992 909.613 761.643 910.029C761.394 910.336 761.227 910.752 761.144 911.276H757.713C757.788 910.087 758.121 909.109 758.711 908.344C759.651 907.147 761.265 906.548 763.552 906.548C765.041 906.548 766.363 906.843 767.519 907.434C768.675 908.024 769.254 909.139 769.254 910.777V917.015C769.254 917.448 769.262 917.972 769.279 918.587C769.303 919.053 769.374 919.369 769.491 919.535C769.607 919.702 769.782 919.839 770.015 919.947V920.471H766.147C766.039 920.197 765.964 919.939 765.922 919.698C765.881 919.456 765.848 919.182 765.823 918.874C765.332 919.407 764.766 919.86 764.126 920.234C763.361 920.675 762.496 920.895 761.531 920.895C760.3 920.895 759.281 920.546 758.474 919.847C757.676 919.14 757.276 918.142 757.276 916.853C757.276 915.181 757.921 913.971 759.21 913.222C759.917 912.815 760.957 912.524 762.329 912.349L763.539 912.199ZM779.808 906.548C779.875 906.548 779.929 906.552 779.971 906.56C780.021 906.56 780.125 906.564 780.283 906.573V910.216C780.058 910.191 779.858 910.174 779.684 910.166C779.509 910.158 779.368 910.153 779.259 910.153C777.829 910.153 776.868 910.619 776.377 911.551C776.103 912.075 775.966 912.881 775.966 913.971V920.471H772.385V906.872H775.779V909.243C776.328 908.336 776.806 907.716 777.213 907.384C777.879 906.826 778.744 906.548 779.808 906.548ZM780.981 909.53V906.997H782.878V903.204H786.396V906.997H788.604V909.53H786.396V916.716C786.396 917.273 786.467 917.622 786.608 917.764C786.749 917.897 787.182 917.963 787.906 917.963C788.014 917.963 788.126 917.963 788.242 917.963C788.367 917.955 788.488 917.947 788.604 917.939V920.596L786.92 920.658C785.24 920.717 784.092 920.425 783.476 919.785C783.077 919.377 782.878 918.749 782.878 917.901V909.53H780.981ZM794.431 906.872V915.069C794.431 915.843 794.522 916.425 794.705 916.816C795.029 917.506 795.666 917.851 796.614 917.851C797.828 917.851 798.66 917.36 799.109 916.379C799.342 915.847 799.459 915.144 799.459 914.271V906.872H803.064V920.471H799.608V918.55C799.575 918.591 799.492 918.716 799.359 918.924C799.226 919.132 799.068 919.315 798.885 919.473C798.327 919.972 797.787 920.313 797.263 920.496C796.747 920.679 796.14 920.771 795.441 920.771C793.428 920.771 792.073 920.047 791.374 918.6C790.983 917.801 790.788 916.624 790.788 915.069V906.872H794.431Z" fill="#0C0C0C"/>
<path d="M1182.32 430.754V436.401H1187.3C1188.29 436.401 1189.03 436.286 1189.52 436.058C1190.4 435.659 1190.83 434.87 1190.83 433.691C1190.83 432.418 1190.41 431.562 1189.56 431.125C1189.09 430.878 1188.38 430.754 1187.43 430.754H1182.32ZM1188.34 427.104C1189.81 427.133 1190.94 427.313 1191.73 427.646C1192.53 427.979 1193.21 428.468 1193.76 429.114C1194.21 429.647 1194.57 430.236 1194.84 430.883C1195.11 431.529 1195.24 432.266 1195.24 433.093C1195.24 434.091 1194.99 435.075 1194.48 436.044C1193.98 437.004 1193.15 437.684 1191.99 438.083C1192.96 438.473 1193.64 439.029 1194.04 439.751C1194.45 440.464 1194.66 441.557 1194.66 443.031V444.442C1194.66 445.402 1194.69 446.054 1194.77 446.396C1194.88 446.938 1195.15 447.337 1195.57 447.594V448.121H1190.73C1190.6 447.655 1190.51 447.28 1190.45 446.995C1190.33 446.405 1190.27 445.802 1190.26 445.184L1190.23 443.23C1190.22 441.89 1189.97 440.997 1189.49 440.55C1189.03 440.103 1188.15 439.88 1186.86 439.88H1182.32V448.121H1178.03V427.104H1188.34ZM1202.88 430.726H1198.76V426.976H1202.88V430.726ZM1198.76 432.579H1202.88V448.121H1198.76V432.579ZM1215.44 432.209C1217.05 432.209 1218.36 432.632 1219.38 433.478C1220.41 434.314 1220.92 435.707 1220.92 437.655V448.121H1216.76V438.668C1216.76 437.85 1216.65 437.223 1216.43 436.786C1216.03 435.987 1215.27 435.588 1214.15 435.588C1212.77 435.588 1211.82 436.172 1211.31 437.342C1211.04 437.959 1210.91 438.748 1210.91 439.709V448.121H1206.86V432.608H1210.78V434.875C1211.3 434.076 1211.8 433.501 1212.26 433.15C1213.1 432.522 1214.16 432.209 1215.44 432.209ZM1231.36 444.785C1232.31 444.785 1233.11 444.428 1233.77 443.715C1234.42 442.993 1234.75 441.847 1234.75 440.279C1234.75 438.806 1234.44 437.684 1233.81 436.914C1233.19 436.144 1232.36 435.759 1231.31 435.759C1229.89 435.759 1228.9 436.429 1228.36 437.769C1228.08 438.482 1227.93 439.362 1227.93 440.407C1227.93 441.31 1228.09 442.113 1228.39 442.817C1228.94 444.129 1229.93 444.785 1231.36 444.785ZM1230.34 432.209C1231.12 432.209 1231.8 432.327 1232.38 432.565C1233.37 432.974 1234.17 433.725 1234.78 434.818V432.579H1238.73V447.323C1238.73 449.328 1238.39 450.84 1237.72 451.857C1236.56 453.606 1234.33 454.48 1231.04 454.48C1229.06 454.48 1227.44 454.091 1226.18 453.311C1224.93 452.532 1224.23 451.367 1224.1 449.818H1228.52C1228.63 450.293 1228.82 450.635 1229.08 450.844C1229.51 451.215 1230.25 451.401 1231.29 451.401C1232.75 451.401 1233.73 450.911 1234.22 449.932C1234.55 449.305 1234.71 448.249 1234.71 446.767V445.768C1234.32 446.434 1233.9 446.933 1233.45 447.266C1232.64 447.883 1231.59 448.192 1230.3 448.192C1228.31 448.192 1226.71 447.494 1225.51 446.096C1224.32 444.69 1223.73 442.788 1223.73 440.393C1223.73 438.083 1224.3 436.144 1225.45 434.575C1226.6 432.998 1228.23 432.209 1230.34 432.209ZM1246.71 430.726H1242.59V426.976H1246.71V430.726ZM1242.59 432.579H1246.71V448.121H1242.59V432.579ZM1257.19 435.616V432.722H1259.36V428.387H1263.38V432.722H1265.91V435.616H1263.38V443.829C1263.38 444.466 1263.46 444.865 1263.62 445.027C1263.79 445.179 1264.28 445.255 1265.11 445.255C1265.23 445.255 1265.36 445.255 1265.49 445.255C1265.63 445.246 1265.77 445.236 1265.91 445.227V448.264L1263.98 448.335C1262.06 448.402 1260.75 448.069 1260.04 447.337C1259.59 446.871 1259.36 446.153 1259.36 445.184V435.616H1257.19ZM1274.65 435.517C1273.7 435.517 1272.97 435.811 1272.45 436.401C1271.94 436.99 1271.61 437.788 1271.48 438.796H1277.8C1277.73 437.722 1277.4 436.909 1276.81 436.358C1276.23 435.797 1275.51 435.517 1274.65 435.517ZM1274.65 432.166C1275.94 432.166 1277.1 432.408 1278.14 432.893C1279.18 433.378 1280.03 434.143 1280.71 435.189C1281.31 436.111 1281.71 437.18 1281.89 438.397C1281.99 439.11 1282.04 440.136 1282.02 441.477H1271.38C1271.44 443.036 1271.93 444.129 1272.85 444.756C1273.41 445.146 1274.08 445.341 1274.87 445.341C1275.71 445.341 1276.39 445.103 1276.91 444.628C1277.2 444.371 1277.45 444.015 1277.67 443.558H1281.82C1281.71 444.48 1281.23 445.417 1280.38 446.367C1279.05 447.879 1277.18 448.634 1274.79 448.634C1272.81 448.634 1271.07 447.998 1269.56 446.724C1268.04 445.45 1267.29 443.378 1267.29 440.507C1267.29 437.817 1267.97 435.754 1269.33 434.319C1270.7 432.883 1272.47 432.166 1274.65 432.166ZM1290.9 435.517C1289.96 435.517 1289.23 435.811 1288.7 436.401C1288.19 436.99 1287.87 437.788 1287.73 438.796H1294.05C1293.98 437.722 1293.66 436.909 1293.07 436.358C1292.49 435.797 1291.77 435.517 1290.9 435.517ZM1290.9 432.166C1292.19 432.166 1293.36 432.408 1294.39 432.893C1295.43 433.378 1296.29 434.143 1296.96 435.189C1297.57 436.111 1297.96 437.18 1298.14 438.397C1298.25 439.11 1298.29 440.136 1298.27 441.477H1287.64C1287.69 443.036 1288.18 444.129 1289.1 444.756C1289.66 445.146 1290.34 445.341 1291.13 445.341C1291.96 445.341 1292.64 445.103 1293.17 444.628C1293.45 444.371 1293.7 444.015 1293.92 443.558H1298.07C1297.97 444.48 1297.49 445.417 1296.63 446.367C1295.3 447.879 1293.44 448.634 1291.04 448.634C1289.07 448.634 1287.32 447.998 1285.81 446.724C1284.3 445.45 1283.54 443.378 1283.54 440.507C1283.54 437.817 1284.22 435.754 1285.58 434.319C1286.95 432.883 1288.72 432.166 1290.9 432.166ZM1194.71 496.781V487.791C1198.88 487.605 1201.8 487.327 1203.47 486.957C1206.13 486.37 1208.29 485.196 1209.96 483.435C1211.1 482.23 1211.97 480.623 1212.55 478.615C1212.89 477.411 1213.06 476.515 1213.06 475.928H1224.05V543.121H1210.52V496.781H1194.71ZM1240.45 496.781V487.791C1244.62 487.605 1247.54 487.327 1249.21 486.957C1251.87 486.37 1254.03 485.196 1255.7 483.435C1256.84 482.23 1257.71 480.623 1258.29 478.615C1258.63 477.411 1258.8 476.515 1258.8 475.928H1269.79V543.121H1256.25V496.781H1240.45Z" fill="white"/>
<path d="M1176.84 852.352V857.998H1181.82C1182.81 857.998 1183.55 857.884 1184.05 857.656C1184.92 857.257 1185.36 856.468 1185.36 855.289C1185.36 854.015 1184.93 853.16 1184.09 852.723C1183.61 852.475 1182.9 852.352 1181.95 852.352H1176.84ZM1182.86 848.702C1184.34 848.73 1185.47 848.911 1186.26 849.243C1187.05 849.576 1187.73 850.066 1188.28 850.712C1188.74 851.244 1189.1 851.834 1189.36 852.48C1189.63 853.127 1189.76 853.863 1189.76 854.69C1189.76 855.688 1189.51 856.672 1189.01 857.642C1188.5 858.602 1187.67 859.281 1186.51 859.681C1187.48 860.07 1188.17 860.627 1188.57 861.349C1188.97 862.062 1189.18 863.155 1189.18 864.628V866.04C1189.18 867 1189.22 867.651 1189.29 867.993C1189.41 868.535 1189.67 868.935 1190.09 869.191V869.719H1185.26C1185.12 869.253 1185.03 868.877 1184.97 868.592C1184.86 868.003 1184.8 867.399 1184.79 866.781L1184.76 864.828C1184.74 863.488 1184.49 862.594 1184.02 862.147C1183.55 861.701 1182.67 861.477 1181.38 861.477H1176.84V869.719H1172.55V848.702H1182.86ZM1197.41 852.323H1193.29V848.573H1197.41V852.323ZM1193.29 854.177H1197.41V869.719H1193.29V854.177ZM1209.97 853.806C1211.57 853.806 1212.89 854.229 1213.9 855.075C1214.93 855.912 1215.44 857.304 1215.44 859.253V869.719H1211.28V860.265C1211.28 859.448 1211.17 858.82 1210.95 858.383C1210.55 857.585 1209.79 857.185 1208.67 857.185C1207.29 857.185 1206.35 857.77 1205.83 858.939C1205.57 859.557 1205.43 860.346 1205.43 861.306V869.719H1201.38V854.205H1205.3V856.473C1205.83 855.674 1206.32 855.099 1206.79 854.747C1207.62 854.12 1208.68 853.806 1209.97 853.806ZM1225.88 866.382C1226.83 866.382 1227.63 866.026 1228.29 865.313C1228.95 864.59 1229.27 863.445 1229.27 861.877C1229.27 860.403 1228.96 859.281 1228.33 858.512C1227.71 857.742 1226.88 857.357 1225.84 857.357C1224.41 857.357 1223.43 858.027 1222.89 859.367C1222.6 860.08 1222.46 860.959 1222.46 862.005C1222.46 862.908 1222.61 863.711 1222.91 864.415C1223.47 865.726 1224.45 866.382 1225.88 866.382ZM1224.87 853.806C1225.65 853.806 1226.33 853.925 1226.91 854.163C1227.9 854.571 1228.69 855.322 1229.3 856.416V854.177H1233.25V868.92C1233.25 870.926 1232.91 872.437 1232.24 873.454C1231.08 875.204 1228.86 876.078 1225.57 876.078C1223.58 876.078 1221.96 875.688 1220.7 874.909C1219.45 874.129 1218.76 872.965 1218.62 871.416H1223.04C1223.16 871.891 1223.34 872.233 1223.6 872.442C1224.04 872.813 1224.77 872.998 1225.81 872.998C1227.27 872.998 1228.25 872.509 1228.75 871.53C1229.07 870.902 1229.23 869.847 1229.23 868.364V867.366C1228.84 868.031 1228.42 868.531 1227.98 868.863C1227.17 869.481 1226.12 869.79 1224.82 869.79C1222.83 869.79 1221.23 869.091 1220.03 867.694C1218.85 866.287 1218.25 864.386 1218.25 861.991C1218.25 859.681 1218.83 857.742 1219.98 856.173C1221.13 854.595 1222.76 853.806 1224.87 853.806ZM1241.24 852.323H1237.12V848.573H1241.24V852.323ZM1237.12 854.177H1241.24V869.719H1237.12V854.177ZM1251.72 857.214V854.32H1253.88V849.985H1257.9V854.32H1260.43V857.214H1257.9V865.427C1257.9 866.064 1257.99 866.463 1258.15 866.625C1258.31 866.777 1258.8 866.853 1259.63 866.853C1259.75 866.853 1259.88 866.853 1260.02 866.853C1260.16 866.843 1260.3 866.834 1260.43 866.824V869.861L1258.5 869.933C1256.58 869.999 1255.27 869.666 1254.57 868.935C1254.11 868.469 1253.88 867.751 1253.88 866.781V857.214H1251.72ZM1269.17 857.114C1268.23 857.114 1267.5 857.409 1266.97 857.998C1266.46 858.588 1266.14 859.386 1266 860.394H1272.32C1272.25 859.32 1271.93 858.507 1271.34 857.955C1270.76 857.395 1270.03 857.114 1269.17 857.114ZM1269.17 853.763C1270.46 853.763 1271.63 854.006 1272.66 854.491C1273.7 854.975 1274.55 855.741 1275.23 856.786C1275.84 857.708 1276.23 858.778 1276.41 859.994C1276.52 860.707 1276.56 861.734 1276.54 863.074H1265.9C1265.96 864.633 1266.45 865.726 1267.37 866.354C1267.93 866.743 1268.61 866.938 1269.4 866.938C1270.23 866.938 1270.91 866.701 1271.44 866.225C1271.72 865.969 1271.97 865.612 1272.19 865.156H1276.34C1276.24 866.078 1275.76 867.014 1274.9 867.965C1273.57 869.476 1271.71 870.232 1269.31 870.232C1267.33 870.232 1265.59 869.595 1264.08 868.321C1262.57 867.048 1261.81 864.975 1261.81 862.105C1261.81 859.415 1262.49 857.352 1263.85 855.916C1265.22 854.481 1266.99 853.763 1269.17 853.763ZM1285.42 857.114C1284.48 857.114 1283.75 857.409 1283.23 857.998C1282.71 858.588 1282.39 859.386 1282.26 860.394H1288.57C1288.51 859.32 1288.18 858.507 1287.59 857.955C1287.01 857.395 1286.29 857.114 1285.42 857.114ZM1285.42 853.763C1286.72 853.763 1287.88 854.006 1288.92 854.491C1289.95 854.975 1290.81 855.741 1291.48 856.786C1292.09 857.708 1292.49 858.778 1292.67 859.994C1292.77 860.707 1292.81 861.734 1292.8 863.074H1282.16C1282.22 864.633 1282.71 865.726 1283.63 866.354C1284.19 866.743 1284.86 866.938 1285.65 866.938C1286.49 866.938 1287.17 866.701 1287.69 866.225C1287.98 865.969 1288.23 865.612 1288.45 865.156H1292.6C1292.49 866.078 1292.01 867.014 1291.16 867.965C1289.82 869.476 1287.96 870.232 1285.57 870.232C1283.59 870.232 1281.84 869.595 1280.33 868.321C1278.82 867.048 1278.07 864.975 1278.07 862.105C1278.07 859.415 1278.75 857.352 1280.11 855.916C1281.47 854.481 1283.25 853.763 1285.42 853.763ZM1186.64 918.378V909.388C1190.81 909.203 1193.73 908.925 1195.4 908.554C1198.06 907.967 1200.22 906.793 1201.89 905.032C1203.03 903.828 1203.9 902.221 1204.48 900.213C1204.82 899.008 1204.99 898.112 1204.99 897.525H1215.97V964.719H1202.44V918.378H1186.64ZM1246.47 944.097C1246.47 946.785 1246.9 949.009 1247.77 950.77C1249.37 954.014 1252.29 955.636 1256.52 955.636C1259.12 955.636 1261.37 954.756 1263.29 952.995C1265.24 951.203 1266.21 948.639 1266.21 945.302C1266.21 940.884 1264.42 937.934 1260.83 936.451C1258.8 935.617 1255.58 935.2 1251.2 935.2V925.747C1255.49 925.685 1258.49 925.268 1260.19 924.495C1263.12 923.198 1264.59 920.572 1264.59 916.618C1264.59 914.053 1263.83 911.968 1262.32 910.362C1260.83 908.755 1258.73 907.952 1256.01 907.952C1252.89 907.952 1250.59 908.94 1249.11 910.918C1247.66 912.895 1246.96 915.536 1247.02 918.842H1234.7C1234.82 915.505 1235.39 912.339 1236.41 909.342C1237.49 906.716 1239.19 904.291 1241.51 902.067C1243.24 900.491 1245.29 899.286 1247.67 898.452C1250.05 897.618 1252.97 897.201 1256.43 897.201C1262.86 897.201 1268.03 898.869 1271.96 902.206C1275.91 905.511 1277.89 909.96 1277.89 915.552C1277.89 919.506 1276.71 922.843 1274.37 925.561C1272.88 927.26 1271.34 928.419 1269.73 929.037C1270.94 929.037 1272.67 930.072 1274.92 932.142C1278.29 935.262 1279.97 939.525 1279.97 944.931C1279.97 950.616 1278 955.621 1274.04 959.946C1270.12 964.24 1264.29 966.387 1256.57 966.387C1247.06 966.387 1240.44 963.282 1236.74 957.073C1234.79 953.767 1233.71 949.442 1233.49 944.097H1246.47Z" fill="white"/>
<path d="M611.066 469.209L646.883 511.641" stroke="#0C0C0C" stroke-width="5.47529"/>
<path d="M640.544 471.139L610.788 468.108L607.758 497.59" stroke="#0C0C0C" stroke-width="5.47529"/>
<path d="M1233.63 128.307L1197.27 170.188" stroke="#0C0C0C" stroke-width="5.47529"/>
<path d="M1236.39 157.513L1235.01 127.756L1204.98 129.409" stroke="#0C0C0C" stroke-width="5.47529"/>
<path d="M160.16 923.502L207.273 894.296" stroke="#0C0C0C" stroke-width="5.47529"/>
<path d="M165.948 894.848L158.785 923.778L187.714 930.942" stroke="#0C0C0C" stroke-width="5.47529"/>
<path d="M772.33 875.502L737.34 832.243" stroke="#0C0C0C" stroke-width="5.47529"/>
<path d="M743.121 873.022L772.601 876.604L776.182 847.122" stroke="#0C0C0C" stroke-width="5.47529"/>
<path d="M720.014 613.644L718.306 615.003L714.462 610.17L701.827 620.22L700.259 618.248L712.893 608.198L709.049 603.364L710.757 602.005L720.014 613.644ZM708.99 623.514C708.482 623.917 708.23 624.421 708.232 625.025C708.234 625.63 708.437 626.185 708.841 626.693C709.333 627.312 709.952 627.796 710.699 628.148C711.951 628.746 713.117 628.616 714.198 627.756L715.614 626.63C715.306 626.524 714.972 626.338 714.612 626.072C714.251 625.806 713.922 625.526 713.624 625.231L712.641 624.276C712.049 623.705 711.535 623.333 711.099 623.159C710.364 622.862 709.661 622.98 708.99 623.514ZM715.93 624.944C716.303 625.306 716.687 625.441 717.082 625.35C717.301 625.304 717.556 625.164 717.849 624.931C718.448 624.455 718.71 623.896 718.635 623.254C718.572 622.613 718.225 621.896 717.593 621.102C716.863 620.184 716.098 619.73 715.298 619.739C714.854 619.742 714.335 619.926 713.743 620.29L712.439 618.65C713.753 617.657 714.98 617.362 716.118 617.764C717.268 618.167 718.264 618.899 719.108 619.96C720.087 621.191 720.647 622.376 720.789 623.517C720.927 624.652 720.5 625.612 719.511 626.399L713.487 631.192C713.305 631.337 713.187 631.489 713.133 631.648C713.084 631.815 713.156 632.018 713.347 632.259C713.41 632.337 713.483 632.422 713.567 632.515C713.658 632.602 713.757 632.693 713.864 632.788L712.566 633.821C712.27 633.61 712.056 633.441 711.922 633.313C711.789 633.185 711.624 632.998 711.427 632.75C710.945 632.145 710.811 631.535 711.023 630.92C711.137 630.595 711.379 630.238 711.749 629.848C710.995 629.863 710.18 629.672 709.301 629.276C708.423 628.88 707.663 628.279 707.021 627.471C706.249 626.501 705.911 625.474 706.005 624.39C706.11 623.307 706.606 622.413 707.491 621.709C708.461 620.938 709.453 620.642 710.469 620.823C711.484 621.004 712.444 621.536 713.35 622.421L715.93 624.944ZM724.485 627.241L725.813 628.911L724.007 630.348C724.467 630.205 725.16 630.201 726.086 630.336C727.018 630.466 727.761 630.879 728.315 631.576C728.341 631.608 728.382 631.666 728.437 631.75C728.493 631.833 728.586 631.977 728.717 632.181L726.861 633.657C726.798 633.537 726.733 633.429 726.667 633.333C726.607 633.243 726.535 633.146 726.452 633.042C725.748 632.156 724.92 631.704 723.97 631.685C723.025 631.66 722.182 631.943 721.44 632.533L715.426 637.317L714.028 635.56L724.485 627.241ZM732.941 631.881L734.355 633.658L731.436 635.98L732.764 637.65L731.328 638.792L730 637.122L723.175 642.551C722.811 642.841 722.665 643.159 722.738 643.505C722.775 643.698 722.921 643.955 723.175 644.273C723.242 644.358 723.314 644.449 723.392 644.547C723.476 644.639 723.577 644.745 723.693 644.865L722.307 645.968C722.088 645.813 721.877 645.635 721.675 645.435C721.478 645.24 721.279 645.016 721.077 644.763C720.424 643.942 720.19 643.22 720.374 642.596C720.564 641.966 720.994 641.385 721.664 640.852L728.587 635.345L727.461 633.929L728.896 632.787L730.022 634.203L732.941 631.881ZM735.567 641.175L728.625 646.697C728.091 647.122 727.723 647.553 727.519 647.992C727.142 648.801 727.293 649.632 727.972 650.485C728.945 651.709 730.154 652.107 731.6 651.68C732.377 651.455 733.277 650.936 734.299 650.123L739.435 646.037L740.833 647.795L730.376 656.113L729.055 654.453L730.614 653.246C730.035 653.334 729.475 653.317 728.932 653.196C727.852 652.961 726.932 652.364 726.171 651.408C724.985 649.917 724.675 648.505 725.241 647.173C725.542 646.455 726.138 645.742 727.03 645.032L734.138 639.378L735.567 641.175ZM747.449 656.114L748.832 657.852L747.348 659.033C748.193 659.04 748.868 659.12 749.371 659.272C750.229 659.536 750.951 660.035 751.536 660.771C752.198 661.604 752.527 662.437 752.52 663.271C752.514 663.744 752.376 664.279 752.107 664.876C752.977 664.821 753.755 664.951 754.442 665.266C755.134 665.576 755.742 666.06 756.265 666.717C757.384 668.123 757.637 669.484 757.025 670.799C756.696 671.508 756.069 672.229 755.145 672.965L748.183 678.502L746.731 676.676L753.995 670.898C754.692 670.344 755.03 669.788 755.011 669.229C754.997 668.677 754.791 668.15 754.392 667.649C753.843 666.959 753.139 666.547 752.278 666.414C751.422 666.287 750.454 666.653 749.374 667.512L743.291 672.351L741.87 670.564L748.694 665.135C749.404 664.571 749.854 664.074 750.045 663.646C750.321 662.991 750.169 662.299 749.589 661.57C749.061 660.906 748.322 660.505 747.373 660.367C746.429 660.236 745.284 660.706 743.936 661.778L738.39 666.19L736.992 664.432L747.449 656.114ZM760.698 672.772L762.026 674.441L760.542 675.622C761.548 675.63 762.404 675.804 763.111 676.145C763.818 676.486 764.44 676.995 764.979 677.672C766.159 679.157 766.439 680.571 765.818 681.915C765.48 682.652 764.783 683.439 763.729 684.278L757.021 689.614L755.6 687.827L762.191 682.585C762.829 682.077 763.268 681.574 763.508 681.074C763.91 680.244 763.785 679.419 763.133 678.599C762.802 678.182 762.488 677.874 762.191 677.674C761.664 677.307 761.041 677.111 760.322 677.088C759.744 677.07 759.233 677.163 758.79 677.367C758.358 677.572 757.8 677.947 757.117 678.49L751.639 682.847L750.242 681.09L760.698 672.772ZM772.751 681.932L774.164 683.709L771.245 686.031L772.573 687.701L771.138 688.843L769.81 687.173L762.985 692.602C762.62 692.892 762.475 693.21 762.548 693.556C762.585 693.749 762.73 694.006 762.984 694.325C763.051 694.409 763.124 694.5 763.201 694.598C763.285 694.69 763.386 694.797 763.502 694.916L762.116 696.019C761.897 695.864 761.686 695.686 761.484 695.486C761.287 695.291 761.088 695.067 760.886 694.814C760.234 693.993 759.999 693.271 760.183 692.647C760.373 692.017 760.803 691.436 761.474 690.903L768.396 685.396L767.27 683.98L768.705 682.838L769.831 684.254L772.751 681.932Z" fill="#0C0C0C"/>
</g>
<defs>
<clipPath id="clip0">
<rect width="1920" height="1278" fill="white"/>
</clipPath>
</defs>
</svg>
