<svg width="1920" height="1278" viewBox="0 0 1920 1278" fill="none" xmlns="http://www.w3.org/2000/svg">
<g clip-path="url(#clip0)">
<rect width="1920" height="1278" fill="#C7DEEF"/>
<path d="M163.234 -2.00684C163.234 -2.00684 378.133 212.079 453.623 251.755C520.297 286.748 558.318 330.557 694.971 345.986" stroke="#90B5CF" stroke-width="9.12547"/>
<path d="M492.191 274.074C492.191 274.074 604.876 339.925 685.325 319.811C763.019 300.249 837.407 285.921 877.356 274.074C917.305 262.226 997.479 251.48 1096.94 105.725C1145.43 34.6388 1171.88 -8.34375 1171.88 -8.34375" stroke="#90B5CF" stroke-width="3.65019"/>
<path d="M514.68 288.114C514.68 288.114 595.896 327.354 711.79 322.791C782.969 319.989 831.626 350.946 871.575 346.813C911.524 342.405 968.28 311.27 968.28 311.27" stroke="#90B5CF" stroke-width="9.12547"/>
<path d="M147.805 20.0352L356.367 382.356C356.367 382.356 431.857 471.076 405.408 515.987" stroke="#90B5CF" stroke-width="9.12547"/>
<path d="M356.372 382.081C356.372 382.081 403.485 463.087 377.311 532.52C350.862 601.953 344.25 625.649 344.25 685.99C344.25 746.33 346.178 798.957 326.617 830.367" stroke="#90B5CF" stroke-width="9.12547"/>
<path d="M717.016 1027.37C717.016 1027.37 799.945 1022.41 951.2 1132.9C1068.02 1218.04 1194.2 1309.51 1194.2 1309.51" stroke="#90B5CF" stroke-width="9.12547"/>
<path d="M1020.63 823.479C1020.63 823.479 1003 868.39 1025.59 927.904C1047.9 987.418 1219 1296.01 1219 1296.01" stroke="#90B5CF" stroke-width="9.12547"/>
<path d="M1447.12 -8.34375L1320.66 95.5307C1320.66 95.5307 1188.96 180.945 1167.47 359.487C1148.74 515.161 1116.23 753.218 1116.23 753.218C1116.23 753.218 1099.7 968.682 1194.75 1121.88C1238.83 1192.69 1264.73 1175.05 1289.25 1155.49C1313.77 1135.93 1453.46 1022.41 1453.46 1022.41" stroke="#90B5CF" stroke-width="3.65019"/>
<path d="M1470.26 1030.68C1481.56 1030.68 1490.92 1021.31 1490.92 1010.01C1490.92 998.715 1481.56 989.347 1470.26 989.347C1458.96 989.347 1449.6 998.715 1449.6 1010.01C1449.6 1021.31 1458.96 1030.68 1470.26 1030.68Z" stroke="#90B5CF" stroke-width="3.65019"/>
<path d="M1482.39 1025.99L1701.14 1290.5" stroke="#90B5CF" stroke-width="3.65019"/>
<path d="M1456.49 992.929L1372.18 887.401L1330.86 839.735L1258.12 784.354L1208.25 746.606C1208.25 746.606 1172.44 717.951 1122.29 714.094" stroke="#90B5CF" stroke-width="3.65019"/>
<path d="M1179.32 301.627L1383.2 423.411C1383.2 423.411 1516.55 507.447 1653.48 460.056C1698.66 444.351 1718.22 436.636 1718.22 436.636L1773.6 433.605" stroke="#90B5CF" stroke-width="3.65019"/>
<path d="M1595.62 473.557C1595.62 473.557 1604.98 512.682 1573.85 551.531C1542.72 590.656 1481.28 660.09 1481.28 660.09C1481.28 660.09 1452.9 687.092 1481.28 712.716C1509.66 738.34 1773.6 987.969 1773.6 987.969L1794.54 1010.01L1919.62 1168.44" stroke="#90B5CF" stroke-width="3.65019"/>
<path d="M1484.04 993.755L1646.32 864.808" stroke="#90B5CF" stroke-width="3.65019"/>
<path d="M1503.32 468.046C1503.32 468.046 1507.18 428.094 1545.48 396.133C1583.77 364.172 1676.62 264.981 1676.62 264.981L1669.46 234.397L1571.38 -8.34375" stroke="#90B5CF" stroke-width="3.65019"/>
<path d="M706.273 1029.02C895.714 1029.02 1049.29 875.442 1049.29 685.99C1049.29 496.537 895.714 342.956 706.273 342.956C516.833 342.956 363.262 496.537 363.262 685.99C363.262 875.442 516.833 1029.02 706.273 1029.02Z" stroke="#90B5CF" stroke-width="14.6008"/>
<path d="M1180.15 1288.85L127.418 -8.34375" stroke="#90B5CF" stroke-width="14.6008"/>
<path d="M1211.56 1288.85L158.828 -8.34375" stroke="#90B5CF" stroke-width="14.6008"/>
<path d="M361.603 690.674C361.603 690.674 388.052 860.951 158.551 999.266C-55.2455 1127.94 -319.461 1296.01 -319.461 1296.01" stroke="#90B5CF" stroke-width="14.6008"/>
<path d="M491.372 954.63C491.372 954.63 402.381 879.686 240.656 978.05C121.084 1050.79 -280.336 1296.01 -280.336 1296.01" stroke="#90B5CF" stroke-width="14.6008"/>
<path d="M1024.76 558.695C1024.76 558.695 960.563 384.561 1091.16 234.673C1195.85 114.267 1309.09 -8.34375 1309.09 -8.34375" stroke="#90B5CF" stroke-width="14.6008"/>
<path d="M829.422 366.376C829.422 366.376 909.871 385.938 1043.77 245.418C1136.62 147.881 1273.27 -8.34375 1273.27 -8.34375" stroke="#90B5CF" stroke-width="14.6008"/>
<path opacity="0.6" d="M1131.93 730.626L1163.07 734.483L1326.17 847.726L1384.85 921.843L1186.76 1068.15C1186.48 1068.42 1109.34 932.864 1131.93 730.626Z" fill="#EE1D4C"/>
<path opacity="0.6" d="M1137.44 701.971L1175.74 713.818L1244.06 631.711L1329.75 415.971L1344.63 368.305L1195.3 282.34L1163.06 491.191L1137.44 701.971Z" fill="#EE1D4C"/>
<path d="M1744.92 1150.78L1675.49 1209.04L1705.24 1244.5L1774.67 1186.23L1744.92 1150.78Z" fill="#ADCFE7"/>
<path d="M1818.41 1148.76L1801.31 1163.1L1826.28 1192.86L1843.38 1178.52L1818.41 1148.76Z" fill="#ADCFE7"/>
<path d="M1814.38 1128.49L1807.49 1134L1781.04 1102.31L1754.04 1124.91L1794.54 1173.4L1821.54 1150.53L1816.3 1144.47L1822.92 1138.68L1814.38 1128.49Z" fill="#ADCFE7"/>
<path d="M1308.93 1195.54L1286.14 1214.67L1328.99 1265.74L1351.79 1246.62L1308.93 1195.54Z" fill="#ADCFE7"/>
<path d="M1380.48 1135.13L1308.94 1195.17L1333.74 1224.72L1405.28 1164.68L1380.48 1135.13Z" fill="#ADCFE7"/>
<path d="M1476.95 1060.49L1401.39 1123.9L1421.58 1147.96L1497.14 1084.55L1476.95 1060.49Z" fill="#ADCFE7"/>
<path d="M1580.19 956.958L1518.99 1008.32L1562.56 1060.24L1623.76 1008.88L1580.19 956.958Z" fill="#ADCFE7"/>
<path d="M1627.96 918.014L1606.43 936.079L1657.97 997.496L1679.5 979.431L1627.96 918.014Z" fill="#ADCFE7"/>
<path d="M1616.12 727.584L1584.7 750.42L1598.95 770.035L1630.37 747.2L1616.12 727.584Z" fill="#ADCFE7"/>
<path d="M1650.27 684.605L1631.31 697.394L1653.49 730.285L1672.45 717.497L1650.27 684.605Z" fill="#ADCFE7"/>
<path d="M1707.04 626.123L1688.09 638.911L1710.27 671.803L1729.23 659.014L1707.04 626.123Z" fill="#ADCFE7"/>
<path d="M1525.86 649.786L1500.61 677.836L1517.39 692.955L1542.65 664.905L1525.86 649.786Z" fill="#ADCFE7"/>
<path d="M1569.76 601.124L1544.5 629.174L1561.28 644.293L1586.54 616.243L1569.76 601.124Z" fill="#ADCFE7"/>
<path d="M1613.51 551.908L1588.25 579.958L1605.03 595.077L1630.29 567.027L1613.51 551.908Z" fill="#ADCFE7"/>
<path d="M1697.66 492.71L1633.43 534.425L1661.03 576.945L1725.27 535.23L1697.66 492.71Z" fill="#ADCFE7"/>
<path d="M1771.36 533.005L1756.11 542.908L1771.42 566.479L1786.67 556.576L1771.36 533.005Z" fill="#ADCFE7"/>
<path d="M1800.99 571.829L1785.73 581.732L1821.14 636.269L1836.4 626.365L1800.99 571.829Z" fill="#ADCFE7"/>
<path d="M1847.38 638.976L1832.13 648.88L1875.05 714.971L1890.3 705.067L1847.38 638.976Z" fill="#ADCFE7"/>
<path d="M1850.94 746.592L1835.69 756.495L1847.54 774.751L1862.8 764.847L1850.94 746.592Z" fill="#ADCFE7"/>
<path d="M1887.16 922.149L1871.91 932.053L1883.76 950.309L1899.01 940.405L1887.16 922.149Z" fill="#ADCFE7"/>
<path d="M1496.86 524.96L1483.12 542.546L1524.15 574.608L1537.89 557.022L1496.86 524.96Z" fill="#ADCFE7"/>
<path d="M1472.19 504.417L1460.62 519.296L1455.94 515.714L1442.99 532.521L1460.35 545.746L1463.1 542.164L1475.77 552.084L1497.54 524.255L1472.19 504.417Z" fill="#ADCFE7"/>
<path d="M1669.89 405.63L1609.06 430.831L1618.76 454.251L1679.59 429.049L1669.89 405.63Z" fill="#ADCFE7"/>
<path d="M1888.05 147.855L1816.95 193.156L1826.12 207.564L1897.23 162.263L1888.05 147.855Z" fill="#ADCFE7"/>
<path d="M1794.26 149.536H1794.54L1782.69 123.36L1754.04 136.586L1757.07 143.198L1721.25 159.455L1733.37 185.905L1797.57 156.699L1794.26 149.536Z" fill="#ADCFE7"/>
<path d="M1689.48 54.2623L1668.92 63.6318L1676.92 81.1811L1697.48 71.8116L1689.48 54.2623Z" fill="#ADCFE7"/>
<path d="M1608.5 140.869L1582.79 151.519L1613.48 225.596L1639.18 214.946L1608.5 140.869Z" fill="#ADCFE7"/>
<path d="M1497.14 86.9892L1424.34 117.146L1443.32 162.968L1516.12 132.81L1497.14 86.9892Z" fill="#ADCFE7"/>
<path d="M1484.31 274.625L1458.13 288.677L1452.9 278.483L1442.98 283.993L1433.34 266.084L1401.93 282.891L1411.85 301.627L1418.18 298.045L1426.17 313.199L1426.73 312.924L1471.91 397.787L1532.8 365.55L1484.31 274.625Z" fill="#ADCFE7"/>
<path d="M1542.17 85.6127L1539.41 86.7148L1534.73 75.1426L1498.36 90.0211L1503.04 101.869L1515.72 132.177L1554.84 116.196L1542.17 85.6127Z" fill="#ADCFE7"/>
<path d="M1428.66 128.043L1420.39 131.9L1428.11 162.76L1443.26 163.311L1428.66 128.043Z" fill="#ADCFE7"/>
<path d="M1805.83 225.857L1803.63 220.347L1797.57 222.827L1796.19 219.245L1793.16 211.53L1787.1 196.651L1770.57 203.54L1768.92 199.682L1744.67 209.877L1746.05 213.459L1727.59 221.449L1725.11 215.387L1714.64 219.796L1717.12 225.582L1710.23 228.613L1709.96 228.337L1699.76 232.47L1707.75 252.033L1718.22 247.9L1716.29 243.216L1752.38 228.337L1753.21 230.266L1777.46 220.347L1776.63 218.418L1780.21 216.765L1783.52 224.48L1787.1 223.102L1790.68 231.919L1796.74 229.439V229.715L1805.83 225.857Z" fill="#ADCFE7"/>
<path d="M1692.04 364.723L1670 311.271L1655.4 317.332L1669.18 350.396L1650.44 358.11L1658.43 377.949L1677.17 370.234L1677.44 370.785L1692.04 364.723Z" fill="#ADCFE7"/>
<path d="M1621.51 359.213L1585.14 392.827L1593.13 412.941L1636.94 379.326L1621.51 359.213Z" fill="#ADCFE7"/>
<path d="M1757.76 368.756L1713.59 395.296L1723.24 411.356L1767.41 384.816L1757.76 368.756Z" fill="#ADCFE7"/>
<path d="M1830.83 287.768L1791.87 319.325L1803.48 333.671L1842.45 302.114L1830.83 287.768Z" fill="#ADCFE7"/>
<path d="M1518.86 1125.59L1449 1184.21L1480.7 1221.99L1550.56 1163.37L1518.86 1125.59Z" fill="#ADCFE7"/>
<path d="M1790.34 1058.2L1734.2 1105.32L1753.33 1128.11L1809.46 1081L1790.34 1058.2Z" fill="#ADCFE7"/>
<path d="M689.433 474.757V478.014H683.931V493.147H680.064V478.014H674.537V474.757H689.433ZM697.006 486.535C696.782 486.676 696.553 486.793 696.32 486.884C696.096 486.968 695.784 487.047 695.385 487.121L694.586 487.271C693.837 487.404 693.301 487.566 692.977 487.758C692.428 488.082 692.153 488.585 692.153 489.267C692.153 489.875 692.32 490.315 692.652 490.59C692.993 490.856 693.405 490.989 693.887 490.989C694.653 490.989 695.355 490.764 695.996 490.315C696.645 489.866 696.981 489.047 697.006 487.858V486.535ZM694.848 484.876C695.505 484.793 695.975 484.689 696.258 484.564C696.765 484.348 697.019 484.011 697.019 483.553C697.019 482.996 696.823 482.613 696.433 482.405C696.05 482.189 695.484 482.081 694.736 482.081C693.896 482.081 693.301 482.289 692.952 482.705C692.702 483.013 692.536 483.428 692.453 483.952H689.022C689.096 482.763 689.429 481.786 690.02 481.021C690.96 479.823 692.573 479.224 694.861 479.224C696.349 479.224 697.672 479.519 698.828 480.11C699.984 480.7 700.562 481.815 700.562 483.453V489.692C700.562 490.124 700.57 490.648 700.587 491.264C700.612 491.729 700.683 492.045 700.799 492.212C700.916 492.378 701.09 492.515 701.323 492.623V493.147H697.456C697.347 492.873 697.273 492.615 697.231 492.374C697.189 492.133 697.156 491.858 697.131 491.551C696.64 492.083 696.075 492.536 695.434 492.91C694.669 493.351 693.804 493.572 692.839 493.572C691.608 493.572 690.589 493.222 689.783 492.524C688.984 491.817 688.585 490.819 688.585 489.529C688.585 487.858 689.23 486.647 690.519 485.899C691.226 485.491 692.265 485.2 693.638 485.025L694.848 484.876ZM707.362 493.147H703.806V474.757H707.362V493.147ZM714.473 493.147H710.917V474.757H714.473V493.147ZM721.61 477.926H718.004V474.645H721.61V477.926ZM718.004 479.548H721.61V493.147H718.004V479.548ZM732.601 479.224C734.007 479.224 735.155 479.594 736.045 480.334C736.943 481.066 737.392 482.285 737.392 483.99V493.147H733.749V484.876C733.749 484.16 733.653 483.611 733.462 483.229C733.113 482.53 732.447 482.181 731.466 482.181C730.26 482.181 729.432 482.692 728.983 483.715C728.75 484.256 728.634 484.946 728.634 485.786V493.147H725.09V479.573H728.521V481.557C728.979 480.858 729.411 480.355 729.819 480.047C730.551 479.498 731.478 479.224 732.601 479.224ZM748.221 479.224C749.627 479.224 750.775 479.594 751.665 480.334C752.563 481.066 753.012 482.285 753.012 483.99V493.147H749.369V484.876C749.369 484.16 749.274 483.611 749.082 483.229C748.733 482.53 748.067 482.181 747.086 482.181C745.88 482.181 745.052 482.692 744.603 483.715C744.37 484.256 744.254 484.946 744.254 485.786V493.147H740.711V479.573H744.142V481.557C744.599 480.858 745.032 480.355 745.439 480.047C746.171 479.498 747.098 479.224 748.221 479.224ZM767.572 474.82H769.468L763.654 493.147H761.758L767.572 474.82ZM782.93 482.767C783.92 482.767 784.694 482.493 785.251 481.944C785.808 481.387 786.087 480.725 786.087 479.96C786.087 479.295 785.821 478.683 785.288 478.126C784.756 477.569 783.945 477.29 782.855 477.29C781.774 477.29 780.992 477.569 780.51 478.126C780.027 478.683 779.786 479.336 779.786 480.085C779.786 480.925 780.098 481.582 780.722 482.056C781.346 482.53 782.082 482.767 782.93 482.767ZM783.067 491.613C784.107 491.613 784.968 491.334 785.65 490.777C786.34 490.211 786.686 489.371 786.686 488.257C786.686 487.101 786.332 486.223 785.625 485.624C784.918 485.025 784.012 484.726 782.905 484.726C781.832 484.726 780.955 485.034 780.273 485.649C779.599 486.256 779.262 487.101 779.262 488.182C779.262 489.113 779.57 489.92 780.185 490.602C780.809 491.276 781.77 491.613 783.067 491.613ZM779.874 483.628C779.25 483.362 778.763 483.05 778.414 482.692C777.757 482.027 777.428 481.162 777.428 480.097C777.428 478.767 777.911 477.623 778.875 476.666C779.84 475.71 781.209 475.232 782.98 475.232C784.694 475.232 786.037 475.685 787.01 476.591C787.983 477.49 788.47 478.542 788.47 479.748C788.47 480.863 788.187 481.765 787.621 482.455C787.305 482.846 786.815 483.229 786.149 483.603C786.889 483.944 787.472 484.335 787.896 484.776C788.686 485.608 789.081 486.689 789.081 488.02C789.081 489.592 788.553 490.927 787.497 492.025C786.44 493.114 784.947 493.659 783.018 493.659C781.279 493.659 779.807 493.189 778.601 492.249C777.403 491.301 776.804 489.929 776.804 488.132C776.804 487.076 777.062 486.165 777.578 485.4C778.094 484.626 778.859 484.036 779.874 483.628ZM798.962 479.785H801.183V481.682C801.715 481.025 802.198 480.546 802.63 480.247C803.37 479.74 804.211 479.486 805.15 479.486C806.215 479.486 807.072 479.748 807.721 480.272C808.087 480.571 808.419 481.012 808.719 481.594C809.218 480.879 809.804 480.351 810.478 480.01C811.151 479.661 811.908 479.486 812.748 479.486C814.545 479.486 815.768 480.135 816.416 481.432C816.766 482.131 816.94 483.071 816.94 484.252V493.147H814.607V483.865C814.607 482.975 814.383 482.364 813.934 482.031C813.493 481.698 812.952 481.532 812.312 481.532C811.43 481.532 810.669 481.827 810.029 482.418C809.397 483.008 809.08 483.994 809.08 485.375V493.147H806.797V484.427C806.797 483.52 806.689 482.859 806.473 482.443C806.132 481.819 805.496 481.507 804.564 481.507C803.716 481.507 802.942 481.836 802.243 482.493C801.553 483.15 801.208 484.339 801.208 486.061V493.147H798.962V479.785ZM820.247 479.848H822.53V493.147H820.247V479.848ZM820.247 474.82H822.53V477.365H820.247V474.82ZM825.936 479.785H828.069V481.682C828.701 480.9 829.371 480.339 830.078 479.998C830.785 479.656 831.571 479.486 832.436 479.486C834.332 479.486 835.613 480.147 836.279 481.47C836.645 482.193 836.828 483.229 836.828 484.576V493.147H834.544V484.726C834.544 483.911 834.424 483.254 834.183 482.755C833.783 481.923 833.06 481.507 832.012 481.507C831.479 481.507 831.043 481.561 830.702 481.669C830.086 481.852 829.546 482.218 829.08 482.767C828.706 483.208 828.46 483.666 828.344 484.14C828.236 484.605 828.182 485.275 828.182 486.148V493.147H825.936V479.785ZM851.437 474.82H853.334L847.52 493.147H845.623L851.437 474.82ZM863.24 488.831C863.306 490.07 863.785 490.927 864.675 491.401C865.132 491.65 865.648 491.775 866.222 491.775C867.295 491.775 868.209 491.33 868.966 490.44C869.723 489.542 870.26 487.724 870.576 484.988C870.077 485.778 869.457 486.335 868.717 486.66C867.985 486.976 867.195 487.134 866.346 487.134C864.625 487.134 863.261 486.597 862.254 485.524C861.256 484.452 860.757 483.071 860.757 481.382C860.757 479.76 861.252 478.334 862.242 477.103C863.231 475.872 864.691 475.257 866.621 475.257C869.224 475.257 871.021 476.429 872.011 478.775C872.56 480.064 872.834 481.678 872.834 483.616C872.834 485.803 872.505 487.741 871.848 489.43C870.759 492.241 868.912 493.647 866.309 493.647C864.562 493.647 863.236 493.189 862.329 492.274C861.422 491.359 860.969 490.211 860.969 488.831H863.24ZM866.646 485.163C867.536 485.163 868.347 484.872 869.079 484.289C869.819 483.699 870.189 482.672 870.189 481.208C870.189 479.894 869.856 478.916 869.191 478.276C868.534 477.627 867.694 477.303 866.671 477.303C865.573 477.303 864.7 477.673 864.051 478.413C863.41 479.145 863.09 480.126 863.09 481.357C863.09 482.522 863.373 483.449 863.938 484.14C864.504 484.822 865.406 485.163 866.646 485.163ZM882.778 474.82H884.936V485.462L890.7 479.785H893.57L888.454 484.788L893.856 493.147H890.987L886.82 486.41L884.936 488.132V493.147H882.778V474.82ZM895.603 479.785H897.824V481.682C898.356 481.025 898.839 480.546 899.271 480.247C900.011 479.74 900.851 479.486 901.791 479.486C902.856 479.486 903.713 479.748 904.361 480.272C904.727 480.571 905.06 481.012 905.36 481.594C905.859 480.879 906.445 480.351 907.119 480.01C907.792 479.661 908.549 479.486 909.389 479.486C911.186 479.486 912.409 480.135 913.057 481.432C913.407 482.131 913.581 483.071 913.581 484.252V493.147H911.248V483.865C911.248 482.975 911.024 482.364 910.575 482.031C910.134 481.698 909.593 481.532 908.953 481.532C908.071 481.532 907.31 481.827 906.67 482.418C906.037 483.008 905.721 483.994 905.721 485.375V493.147H903.438V484.427C903.438 483.52 903.33 482.859 903.114 482.443C902.773 481.819 902.137 481.507 901.205 481.507C900.357 481.507 899.583 481.836 898.884 482.493C898.194 483.15 897.849 484.339 897.849 486.061V493.147H895.603V479.785Z" fill="#0C0C0C"/>
<path d="M1252.08 76.8874H1256.11L1263.43 89.7254V76.8874H1267.01V95.2773H1263.17L1255.66 82.2147V95.2773H1252.08V76.8874ZM1277.81 88.6649C1277.59 88.8063 1277.36 88.9228 1277.13 89.0143C1276.9 89.0974 1276.59 89.1765 1276.19 89.2513L1275.39 89.401C1274.64 89.5341 1274.11 89.6963 1273.78 89.8876C1273.24 90.212 1272.96 90.7152 1272.96 91.3972C1272.96 92.0044 1273.13 92.4452 1273.46 92.7197C1273.8 92.9859 1274.21 93.119 1274.69 93.119C1275.46 93.119 1276.16 92.8944 1276.8 92.4452C1277.45 91.9961 1277.79 91.1768 1277.81 89.9874V88.6649ZM1275.66 87.0056C1276.31 86.9224 1276.78 86.8185 1277.07 86.6937C1277.57 86.4774 1277.83 86.1406 1277.83 85.6831C1277.83 85.1258 1277.63 84.7432 1277.24 84.5353C1276.86 84.3191 1276.29 84.2109 1275.54 84.2109C1274.7 84.2109 1274.11 84.4189 1273.76 84.8347C1273.51 85.1425 1273.34 85.5584 1273.26 86.0824H1269.83C1269.9 84.893 1270.24 83.9157 1270.83 83.1504C1271.77 81.9527 1273.38 81.3539 1275.67 81.3539C1277.16 81.3539 1278.48 81.6491 1279.64 82.2397C1280.79 82.8302 1281.37 83.9448 1281.37 85.5833V91.8214C1281.37 92.2539 1281.38 92.7779 1281.39 93.3934C1281.42 93.8592 1281.49 94.1753 1281.61 94.3416C1281.72 94.508 1281.9 94.6452 1282.13 94.7533V95.2773H1278.26C1278.15 95.0029 1278.08 94.745 1278.04 94.5038C1278 94.2626 1277.96 93.9881 1277.94 93.6804C1277.45 94.2127 1276.88 94.666 1276.24 95.0403C1275.48 95.4811 1274.61 95.7015 1273.65 95.7015C1272.42 95.7015 1271.4 95.3522 1270.59 94.6535C1269.79 93.9465 1269.39 92.9484 1269.39 91.6592C1269.39 89.9874 1270.04 88.7772 1271.33 88.0287C1272.03 87.6211 1273.07 87.33 1274.45 87.1553L1275.66 87.0056ZM1291.92 81.3539C1291.99 81.3539 1292.05 81.358 1292.09 81.3663C1292.14 81.3663 1292.24 81.3705 1292.4 81.3788V85.0219C1292.17 84.9969 1291.97 84.9803 1291.8 84.972C1291.62 84.9637 1291.48 84.9595 1291.38 84.9595C1289.94 84.9595 1288.98 85.4253 1288.49 86.3568C1288.22 86.8808 1288.08 87.6876 1288.08 88.7772V95.2773H1284.5V81.6782H1287.89V84.0487C1288.44 83.1421 1288.92 82.5225 1289.33 82.1898C1289.99 81.6325 1290.86 81.3539 1291.92 81.3539ZM1302.88 81.6782H1306.7L1301.79 95.2773H1298.04L1293.16 81.6782H1297.15L1299.98 91.7091L1302.88 81.6782ZM1316.22 88.6649C1315.99 88.8063 1315.76 88.9228 1315.53 89.0143C1315.3 89.0974 1314.99 89.1765 1314.59 89.2513L1313.8 89.401C1313.05 89.5341 1312.51 89.6963 1312.19 89.8876C1311.64 90.212 1311.36 90.7152 1311.36 91.3972C1311.36 92.0044 1311.53 92.4452 1311.86 92.7197C1312.2 92.9859 1312.61 93.119 1313.1 93.119C1313.86 93.119 1314.56 92.8944 1315.21 92.4452C1315.85 91.9961 1316.19 91.1768 1316.22 89.9874V88.6649ZM1314.06 87.0056C1314.71 86.9224 1315.18 86.8185 1315.47 86.6937C1315.97 86.4774 1316.23 86.1406 1316.23 85.6831C1316.23 85.1258 1316.03 84.7432 1315.64 84.5353C1315.26 84.3191 1314.69 84.2109 1313.94 84.2109C1313.1 84.2109 1312.51 84.4189 1312.16 84.8347C1311.91 85.1425 1311.74 85.5584 1311.66 86.0824H1308.23C1308.31 84.893 1308.64 83.9157 1309.23 83.1504C1310.17 81.9527 1311.78 81.3539 1314.07 81.3539C1315.56 81.3539 1316.88 81.6491 1318.04 82.2397C1319.19 82.8302 1319.77 83.9448 1319.77 85.5833V91.8214C1319.77 92.2539 1319.78 92.7779 1319.8 93.3934C1319.82 93.8592 1319.89 94.1753 1320.01 94.3416C1320.12 94.508 1320.3 94.6452 1320.53 94.7533V95.2773H1316.66C1316.56 95.0029 1316.48 94.745 1316.44 94.5038C1316.4 94.2626 1316.37 93.9881 1316.34 93.6804C1315.85 94.2127 1315.28 94.666 1314.64 95.0403C1313.88 95.4811 1313.01 95.7015 1312.05 95.7015C1310.82 95.7015 1309.8 95.3522 1308.99 94.6535C1308.19 93.9465 1307.79 92.9484 1307.79 91.6592C1307.79 89.9874 1308.44 88.7772 1309.73 88.0287C1310.43 87.6211 1311.47 87.33 1312.85 87.1553L1314.06 87.0056ZM1334.21 76.9498H1336.1L1330.29 95.2773H1328.39L1334.21 76.9498ZM1354.92 82.7387C1354.92 81.7822 1354.66 81.1002 1354.16 80.6926C1353.66 80.2851 1352.95 80.0813 1352.05 80.0813H1348.47V85.496H1352.05C1352.95 85.496 1353.66 85.2756 1354.16 84.8347C1354.66 84.3939 1354.92 83.6952 1354.92 82.7387ZM1358.72 82.7138C1358.72 84.8846 1358.17 86.4192 1357.08 87.3175C1355.98 88.2158 1354.41 88.6649 1352.37 88.6649H1348.47V95.2773H1344.65V76.8874H1352.66C1354.51 76.8874 1355.98 77.3615 1357.08 78.3097C1358.17 79.2579 1358.72 80.7259 1358.72 82.7138ZM1366.68 84.2484C1365.86 84.2484 1365.22 84.5062 1364.76 85.0219C1364.31 85.5376 1364.03 86.2362 1363.91 87.1179H1369.44C1369.38 86.178 1369.09 85.4669 1368.58 84.9844C1368.07 84.4937 1367.44 84.2484 1366.68 84.2484ZM1366.68 81.3164C1367.81 81.3164 1368.83 81.5285 1369.74 81.9527C1370.65 82.3769 1371.39 83.0465 1371.98 83.9614C1372.52 84.7682 1372.86 85.7039 1373.02 86.7686C1373.11 87.3924 1373.15 88.2907 1373.13 89.4634H1363.82C1363.87 90.8275 1364.3 91.784 1365.11 92.333C1365.6 92.674 1366.19 92.8445 1366.88 92.8445C1367.61 92.8445 1368.21 92.6365 1368.67 92.2207C1368.92 91.9961 1369.14 91.6842 1369.33 91.2849H1372.96C1372.87 92.0917 1372.45 92.911 1371.7 93.7428C1370.53 95.0652 1368.9 95.7265 1366.81 95.7265C1365.08 95.7265 1363.55 95.1692 1362.23 94.0547C1360.91 92.9401 1360.24 91.1269 1360.24 88.615C1360.24 86.2612 1360.84 84.4563 1362.03 83.2003C1363.23 81.9444 1364.78 81.3164 1366.68 81.3164ZM1374.14 84.3357V81.803H1376.04V78.0102H1379.56V81.803H1381.77V84.3357H1379.56V91.522C1379.56 92.0793 1379.63 92.4286 1379.77 92.57C1379.91 92.7031 1380.34 92.7696 1381.07 92.7696C1381.18 92.7696 1381.29 92.7696 1381.4 92.7696C1381.53 92.7613 1381.65 92.753 1381.77 92.7447V95.4021L1380.08 95.4645C1378.4 95.5227 1377.25 95.2316 1376.64 94.5912C1376.24 94.1836 1376.04 93.5556 1376.04 92.7072V84.3357H1374.14ZM1389.41 84.2484C1388.59 84.2484 1387.95 84.5062 1387.49 85.0219C1387.04 85.5376 1386.76 86.2362 1386.64 87.1179H1392.17C1392.11 86.178 1391.83 85.4669 1391.31 84.9844C1390.8 84.4937 1390.17 84.2484 1389.41 84.2484ZM1389.41 81.3164C1390.54 81.3164 1391.56 81.5285 1392.47 81.9527C1393.38 82.3769 1394.13 83.0465 1394.72 83.9614C1395.25 84.7682 1395.59 85.7039 1395.75 86.7686C1395.84 87.3924 1395.88 88.2907 1395.86 89.4634H1386.56C1386.61 90.8275 1387.03 91.784 1387.84 92.333C1388.33 92.674 1388.92 92.8445 1389.61 92.8445C1390.35 92.8445 1390.94 92.6365 1391.4 92.2207C1391.65 91.9961 1391.87 91.6842 1392.06 91.2849H1395.69C1395.6 92.0917 1395.18 92.911 1394.43 93.7428C1393.26 95.0652 1391.63 95.7265 1389.54 95.7265C1387.81 95.7265 1386.28 95.1692 1384.96 94.0547C1383.64 92.9401 1382.98 91.1269 1382.98 88.615C1382.98 86.2612 1383.57 84.4563 1384.76 83.2003C1385.96 81.9444 1387.51 81.3164 1389.41 81.3164ZM1405.66 81.3539C1405.72 81.3539 1405.78 81.358 1405.82 81.3663C1405.87 81.3663 1405.97 81.3705 1406.13 81.3788V85.0219C1405.91 84.9969 1405.71 84.9803 1405.53 84.972C1405.36 84.9637 1405.22 84.9595 1405.11 84.9595C1403.68 84.9595 1402.72 85.4253 1402.23 86.3568C1401.95 86.8808 1401.82 87.6876 1401.82 88.7772V95.2773H1398.23V81.6782H1401.63V84.0487C1402.18 83.1421 1402.66 82.5225 1403.06 82.1898C1403.73 81.6325 1404.59 81.3539 1405.66 81.3539ZM1415.58 81.3788C1417.36 81.3788 1418.76 82.0234 1419.77 83.3126C1420.78 84.6018 1421.29 86.2653 1421.29 88.3031C1421.29 90.4158 1420.79 92.1666 1419.79 93.5556C1418.8 94.9446 1417.4 95.6392 1415.61 95.6392C1414.49 95.6392 1413.59 95.4146 1412.91 94.9654C1412.5 94.6993 1412.06 94.2335 1411.58 93.5681V95.2773H1408.1V76.9123H1411.65V83.4499C1412.1 82.8177 1412.59 82.3353 1413.13 82.0026C1413.77 81.5868 1414.59 81.3788 1415.58 81.3788ZM1414.67 92.7072C1415.58 92.7072 1416.29 92.3371 1416.8 91.5969C1417.31 90.8566 1417.56 89.8835 1417.56 88.6774C1417.56 87.7126 1417.44 86.9141 1417.19 86.282C1416.71 85.0843 1415.84 84.4854 1414.57 84.4854C1413.28 84.4854 1412.39 85.0718 1411.91 86.2445C1411.66 86.8684 1411.53 87.6752 1411.53 88.6649C1411.53 89.8294 1411.79 90.7942 1412.31 91.5594C1412.82 92.3246 1413.61 92.7072 1414.67 92.7072ZM1427.39 81.6782V89.8751C1427.39 90.6487 1427.48 91.2309 1427.67 91.6218C1427.99 92.3122 1428.63 92.6573 1429.57 92.6573C1430.79 92.6573 1431.62 92.1666 1432.07 91.1851C1432.3 90.6528 1432.42 89.95 1432.42 89.0767V81.6782H1436.02V95.2773H1432.57V93.356C1432.54 93.3976 1432.45 93.5224 1432.32 93.7303C1432.19 93.9382 1432.03 94.1212 1431.85 94.2792C1431.29 94.7783 1430.75 95.1193 1430.22 95.3023C1429.71 95.4853 1429.1 95.5768 1428.4 95.5768C1426.39 95.5768 1425.03 94.8532 1424.33 93.4059C1423.94 92.6074 1423.75 91.4305 1423.75 89.8751V81.6782H1427.39ZM1446.85 81.3539C1446.92 81.3539 1446.97 81.358 1447.02 81.3663C1447.07 81.3663 1447.17 81.3705 1447.33 81.3788V85.0219C1447.1 84.9969 1446.9 84.9803 1446.73 84.972C1446.55 84.9637 1446.41 84.9595 1446.31 84.9595C1444.87 84.9595 1443.91 85.4253 1443.42 86.3568C1443.15 86.8808 1443.01 87.6876 1443.01 88.7772V95.2773H1439.43V81.6782H1442.82V84.0487C1443.37 83.1421 1443.85 82.5225 1444.26 82.1898C1444.92 81.6325 1445.79 81.3539 1446.85 81.3539ZM1453.08 80.0563H1449.47V76.7751H1453.08V80.0563ZM1449.47 81.6782H1453.08V95.2773H1449.47V81.6782Z" fill="#0C0C0C"/>
<path d="M986.626 247.915L988.223 249.404L984.011 253.921L995.819 264.932L994.1 266.776L982.292 255.765L978.081 260.282L976.484 258.793L986.626 247.915ZM998.017 257.36C998.491 257.803 999.027 257.978 999.624 257.887C1000.22 257.795 1000.74 257.512 1001.18 257.038C1001.72 256.46 1002.11 255.775 1002.35 254.984C1002.75 253.658 1002.45 252.524 1001.44 251.582L1000.12 250.348C1000.06 250.668 999.926 251.026 999.716 251.422C999.506 251.817 999.278 252.184 999.031 252.523L998.231 253.636C997.754 254.306 997.462 254.87 997.354 255.327C997.169 256.098 997.39 256.776 998.017 257.36ZM998.405 250.284C998.708 249.862 998.785 249.462 998.637 249.085C998.559 248.875 998.383 248.643 998.109 248.388C997.55 247.866 996.958 247.69 996.334 247.858C995.71 248.016 995.052 248.465 994.36 249.208C993.56 250.065 993.224 250.889 993.352 251.679C993.42 252.118 993.678 252.604 994.126 253.135L992.697 254.668C991.521 253.515 991.047 252.345 991.277 251.16C991.506 249.964 992.082 248.869 993.007 247.878C994.079 246.728 995.169 245.998 996.276 245.689C997.378 245.385 998.391 245.665 999.315 246.527L1004.95 251.777C1005.12 251.936 1005.28 252.03 1005.45 252.06C1005.62 252.083 1005.81 251.982 1006.02 251.757C1006.09 251.684 1006.16 251.599 1006.24 251.502C1006.32 251.4 1006.39 251.288 1006.47 251.168L1007.68 252.3C1007.52 252.623 1007.38 252.86 1007.27 253.011C1007.17 253.162 1007.01 253.353 1006.79 253.584C1006.26 254.15 1005.68 254.373 1005.04 254.255C1004.7 254.19 1004.31 254.003 1003.87 253.695C1004 254.438 1003.93 255.273 1003.67 256.201C1003.41 257.128 1002.93 257.969 1002.22 258.723C1001.38 259.629 1000.41 260.116 999.325 260.184C998.238 260.239 997.281 259.881 996.454 259.11C995.547 258.265 995.109 257.327 995.137 256.296C995.166 255.265 995.551 254.236 996.292 253.21L998.405 250.284ZM995.781 238.096L997.313 236.454L1010.72 248.954L1009.19 250.596L995.781 238.096ZM999.661 233.935L1001.19 232.293L1014.6 244.792L1013.07 246.435L999.661 233.935ZM1007.18 233.249L1008.73 231.579L1018.46 240.65L1016.9 242.319L1007.18 233.249ZM1003.5 229.82L1005.06 228.15L1006.92 229.886L1005.36 231.555L1003.5 229.82ZM1011.01 229.045L1012.46 227.485L1013.85 228.778C1013.71 227.782 1013.76 226.91 1013.99 226.16C1014.22 225.41 1014.63 224.719 1015.22 224.087C1016.52 222.699 1017.87 222.214 1019.3 222.629C1020.07 222.855 1020.96 223.427 1021.94 224.346L1028.21 230.192L1026.65 231.862L1020.49 226.118C1019.9 225.562 1019.34 225.202 1018.81 225.038C1017.93 224.763 1017.13 225.009 1016.41 225.775C1016.05 226.165 1015.79 226.521 1015.64 226.844C1015.35 227.419 1015.25 228.064 1015.33 228.779C1015.4 229.354 1015.57 229.845 1015.84 230.254C1016.1 230.65 1016.56 231.146 1017.2 231.742L1022.31 236.516L1020.78 238.158L1011.01 229.045ZM1020.71 218.642L1022.16 217.082L1023.55 218.375C1023.41 217.379 1023.46 216.507 1023.69 215.757C1023.92 215.007 1024.33 214.316 1024.92 213.684C1026.22 212.297 1027.57 211.811 1029 212.226C1029.77 212.452 1030.66 213.024 1031.64 213.943L1037.91 219.789L1036.35 221.459L1030.19 215.715C1029.6 215.159 1029.03 214.799 1028.51 214.635C1027.62 214.36 1026.83 214.606 1026.11 215.372C1025.75 215.762 1025.49 216.118 1025.34 216.441C1025.05 217.016 1024.95 217.661 1025.03 218.376C1025.1 218.951 1025.27 219.442 1025.54 219.851C1025.8 220.247 1026.26 220.744 1026.89 221.339L1032.01 226.113L1030.48 227.755L1020.71 218.642ZM1038.76 213.668C1039.23 214.11 1039.77 214.286 1040.36 214.194C1040.96 214.103 1041.48 213.82 1041.92 213.345C1042.46 212.768 1042.85 212.083 1043.09 211.292C1043.49 209.965 1043.19 208.831 1042.18 207.89L1040.86 206.656C1040.8 206.976 1040.66 207.333 1040.45 207.729C1040.24 208.125 1040.02 208.492 1039.77 208.83L1038.97 209.944C1038.49 210.614 1038.2 211.177 1038.09 211.634C1037.91 212.406 1038.13 213.084 1038.76 213.668ZM1039.14 206.592C1039.45 206.169 1039.52 205.77 1039.38 205.392C1039.3 205.183 1039.12 204.951 1038.85 204.696C1038.29 204.174 1037.7 203.997 1037.07 204.166C1036.45 204.323 1035.79 204.773 1035.1 205.515C1034.3 206.373 1033.96 207.197 1034.09 207.987C1034.16 208.426 1034.42 208.911 1034.87 209.443L1033.44 210.976C1032.26 209.822 1031.79 208.653 1032.02 207.468C1032.24 206.271 1032.82 205.177 1033.75 204.185C1034.82 203.035 1035.91 202.306 1037.01 201.996C1038.12 201.693 1039.13 201.973 1040.05 202.835L1045.68 208.085C1045.85 208.244 1046.02 208.338 1046.19 208.367C1046.36 208.391 1046.55 208.29 1046.76 208.065C1046.83 207.992 1046.9 207.907 1046.98 207.81C1047.05 207.707 1047.13 207.596 1047.21 207.475L1048.42 208.607C1048.26 208.931 1048.12 209.168 1048.01 209.319C1047.91 209.47 1047.75 209.661 1047.53 209.892C1047 210.458 1046.42 210.681 1045.78 210.562C1045.44 210.498 1045.05 210.311 1044.61 210.003C1044.74 210.746 1044.67 211.581 1044.41 212.508C1044.15 213.435 1043.66 214.276 1042.96 215.031C1042.12 215.937 1041.15 216.424 1040.06 216.491C1038.98 216.547 1038.02 216.189 1037.19 215.418C1036.29 214.572 1035.85 213.634 1035.88 212.603C1035.9 211.572 1036.29 210.544 1037.03 209.517L1039.14 206.592ZM1045 192.589L1046.46 191.029L1048.14 192.603C1047.94 192.169 1047.83 191.484 1047.83 190.548C1047.82 189.607 1048.11 188.811 1048.72 188.16C1048.75 188.129 1048.8 188.081 1048.88 188.013C1048.95 187.946 1049.08 187.833 1049.26 187.673L1050.99 189.29C1050.89 189.37 1050.79 189.45 1050.7 189.53C1050.62 189.603 1050.54 189.688 1050.45 189.786C1049.68 190.613 1049.35 191.498 1049.47 192.442C1049.59 193.379 1049.99 194.171 1050.68 194.818L1056.31 200.06L1054.77 201.702L1045 192.589ZM1050.81 186.454L1052.36 184.784L1062.09 193.855L1060.53 195.524L1050.81 186.454ZM1047.13 183.025L1048.69 181.355L1050.55 183.091L1048.99 184.76L1047.13 183.025ZM1054.64 182.25L1056.1 180.69L1057.48 181.983C1057.34 180.987 1057.39 180.115 1057.62 179.365C1057.85 178.615 1058.27 177.924 1058.86 177.292C1060.15 175.904 1061.51 175.419 1062.93 175.834C1063.71 176.06 1064.59 176.632 1065.57 177.551L1071.84 183.397L1070.29 185.067L1064.13 179.323C1063.53 178.767 1062.97 178.407 1062.44 178.243C1061.56 177.968 1060.76 178.214 1060.04 178.98C1059.68 179.37 1059.42 179.726 1059.27 180.049C1058.98 180.624 1058.88 181.269 1058.97 181.984C1059.03 182.559 1059.2 183.05 1059.47 183.459C1059.74 183.855 1060.19 184.351 1060.83 184.947L1065.95 189.721L1064.41 191.363L1054.64 182.25ZM1067.38 168.236C1068.1 167.469 1068.91 166.976 1069.82 166.756C1070.32 166.644 1070.93 166.617 1071.64 166.675L1070.41 165.526L1071.82 164.011L1080.71 172.299C1081.95 173.456 1082.76 174.552 1083.13 175.587C1083.82 177.505 1083.29 179.41 1081.52 181.302C1080.54 182.354 1079.48 183.018 1078.34 183.293C1077.2 183.575 1076.09 183.29 1075 182.439L1076.56 180.769C1077.07 181.098 1077.56 181.255 1078.02 181.239C1078.73 181.208 1079.45 180.794 1080.2 179.997C1081.37 178.738 1081.7 177.5 1081.17 176.282C1080.86 175.563 1080.03 174.586 1078.67 173.35C1078.86 174.144 1078.86 174.885 1078.67 175.575C1078.49 176.264 1078.04 176.989 1077.33 177.749C1076.34 178.808 1075.1 179.387 1073.61 179.486C1072.12 179.573 1070.51 178.809 1068.77 177.192C1067.14 175.666 1066.23 174.076 1066.06 172.423C1065.89 170.763 1066.33 169.368 1067.38 168.236ZM1075.16 169.959C1073.95 168.831 1072.82 168.243 1071.77 168.198C1070.72 168.152 1069.84 168.515 1069.12 169.288C1068.04 170.444 1067.84 171.739 1068.53 173.175C1068.9 173.939 1069.55 174.758 1070.48 175.631C1071.59 176.658 1072.63 177.219 1073.62 177.314C1074.62 177.397 1075.46 177.061 1076.17 176.307C1077.27 175.127 1077.51 173.8 1076.89 172.327C1076.54 171.497 1075.96 170.708 1075.16 169.959ZM1078.93 156.197L1080.39 154.637L1082.08 156.211C1081.87 155.777 1081.76 155.092 1081.76 154.156C1081.75 153.215 1082.05 152.419 1082.65 151.768C1082.68 151.737 1082.73 151.688 1082.81 151.621C1082.88 151.554 1083.01 151.44 1083.19 151.281L1084.93 152.898C1084.82 152.978 1084.72 153.058 1084.63 153.138C1084.55 153.211 1084.47 153.296 1084.38 153.394C1083.61 154.221 1083.28 155.106 1083.4 156.05C1083.52 156.987 1083.92 157.779 1084.62 158.426L1090.24 163.668L1088.71 165.31L1078.93 156.197ZM1097.02 154.267C1098.04 153.178 1098.32 152.05 1097.88 150.883C1097.43 149.704 1096.7 148.643 1095.69 147.701C1094.78 146.851 1093.9 146.304 1093.06 146.063C1091.72 145.686 1090.53 146.063 1089.48 147.195C1088.54 148.199 1088.24 149.286 1088.58 150.457C1088.93 151.628 1089.64 152.718 1090.72 153.728C1091.76 154.698 1092.84 155.278 1093.96 155.469C1095.08 155.659 1096.1 155.259 1097.02 154.267ZM1088.09 145.813C1089.26 144.554 1090.67 143.881 1092.32 143.794C1093.97 143.706 1095.61 144.423 1097.24 145.943C1098.82 147.413 1099.76 149.01 1100.08 150.735C1100.39 152.46 1099.8 154.129 1098.29 155.741C1097.04 157.086 1095.59 157.731 1093.95 157.676C1092.3 157.616 1090.71 156.871 1089.17 155.442C1087.53 153.91 1086.61 152.274 1086.42 150.533C1086.22 148.792 1086.78 147.219 1088.09 145.813ZM1102.74 145.045C1103.21 145.488 1103.75 145.663 1104.35 145.572C1104.94 145.48 1105.46 145.197 1105.91 144.723C1106.45 144.145 1106.83 143.46 1107.07 142.669C1107.48 141.342 1107.18 140.208 1106.17 139.267L1104.84 138.033C1104.78 138.353 1104.65 138.71 1104.44 139.106C1104.23 139.502 1104 139.869 1103.75 140.207L1102.95 141.321C1102.48 141.991 1102.18 142.554 1102.08 143.011C1101.89 143.783 1102.11 144.461 1102.74 145.045ZM1103.13 137.969C1103.43 137.547 1103.51 137.147 1103.36 136.769C1103.28 136.56 1103.11 136.328 1102.83 136.073C1102.27 135.551 1101.68 135.374 1101.06 135.543C1100.43 135.7 1099.77 136.15 1099.08 136.892C1098.28 137.75 1097.95 138.574 1098.07 139.364C1098.14 139.803 1098.4 140.288 1098.85 140.82L1097.42 142.353C1096.24 141.199 1095.77 140.03 1096 138.845C1096.23 137.648 1096.8 136.554 1097.73 135.562C1098.8 134.413 1099.89 133.683 1101 133.373C1102.1 133.07 1103.11 133.35 1104.04 134.212L1109.67 139.462C1109.84 139.621 1110.01 139.715 1110.17 139.744C1110.34 139.768 1110.53 139.667 1110.74 139.442C1110.81 139.369 1110.89 139.284 1110.96 139.187C1111.04 139.084 1111.11 138.973 1111.19 138.853L1112.41 139.984C1112.24 140.308 1112.1 140.545 1112 140.696C1111.89 140.847 1111.73 141.038 1111.51 141.269C1110.99 141.835 1110.4 142.058 1109.76 141.939C1109.43 141.875 1109.04 141.688 1108.6 141.38C1108.72 142.123 1108.65 142.958 1108.39 143.885C1108.13 144.812 1107.65 145.653 1106.94 146.408C1106.1 147.314 1105.13 147.801 1104.05 147.868C1102.96 147.924 1102 147.566 1101.18 146.795C1100.27 145.949 1099.83 145.011 1099.86 143.98C1099.89 142.949 1100.27 141.921 1101.01 140.894L1103.13 137.969ZM1110.06 132.836C1111.11 133.812 1112.19 134.406 1113.31 134.62C1114.43 134.834 1115.45 134.452 1116.36 133.472C1117.07 132.712 1117.33 131.785 1117.13 130.691C1116.93 129.586 1116.22 128.463 1115 127.322C1113.76 126.171 1112.62 125.572 1111.56 125.527C1110.49 125.476 1109.61 125.822 1108.92 126.564C1108.15 127.391 1107.84 128.359 1107.99 129.466C1108.14 130.567 1108.83 131.69 1110.06 132.836ZM1107.2 125.538C1107.89 124.79 1108.64 124.311 1109.42 124.101C1109.88 123.979 1110.51 123.945 1111.31 124L1106.37 119.396L1107.84 117.818L1121.29 130.36L1119.92 131.838L1118.56 130.57C1118.8 131.515 1118.81 132.374 1118.59 133.147C1118.37 133.92 1117.95 134.644 1117.32 135.319C1116.3 136.408 1114.97 136.926 1113.31 136.872C1111.65 136.812 1110.06 136.073 1108.54 134.655C1107.11 133.327 1106.22 131.817 1105.85 130.123C1105.49 128.417 1105.94 126.889 1107.2 125.538Z" fill="#0C0C0C"/>
<path d="M165.921 1064.92L167.11 1066.75L161.931 1070.11L170.722 1083.65L168.609 1085.02L159.817 1071.48L154.638 1074.85L153.449 1073.02L165.921 1064.92ZM174.688 1076.84C175.041 1077.38 175.518 1077.68 176.12 1077.74C176.721 1077.79 177.294 1077.64 177.838 1077.29C178.501 1076.86 179.043 1076.29 179.464 1075.58C180.18 1074.39 180.162 1073.22 179.41 1072.06L178.425 1070.54C178.29 1070.84 178.073 1071.15 177.773 1071.49C177.474 1071.82 177.164 1072.12 176.842 1072.39L175.797 1073.28C175.172 1073.81 174.752 1074.29 174.537 1074.7C174.171 1075.41 174.221 1076.12 174.688 1076.84ZM176.777 1070.07C177.173 1069.73 177.345 1069.36 177.292 1068.96C177.267 1068.74 177.152 1068.47 176.949 1068.15C176.532 1067.51 176 1067.2 175.354 1067.21C174.711 1067.21 173.963 1067.49 173.112 1068.04C172.129 1068.68 171.603 1069.4 171.536 1070.2C171.496 1070.64 171.629 1071.17 171.935 1071.8L170.177 1072.94C169.315 1071.53 169.139 1070.28 169.648 1069.19C170.16 1068.08 170.984 1067.16 172.121 1066.42C173.44 1065.57 174.674 1065.12 175.823 1065.09C176.965 1065.06 177.881 1065.58 178.569 1066.64L182.761 1073.1C182.888 1073.29 183.028 1073.42 183.182 1073.49C183.343 1073.56 183.552 1073.51 183.81 1073.34C183.894 1073.28 183.986 1073.22 184.086 1073.14C184.182 1073.06 184.282 1072.97 184.387 1072.87L185.29 1074.27C185.052 1074.54 184.863 1074.74 184.723 1074.86C184.583 1074.98 184.38 1075.12 184.115 1075.3C183.466 1075.72 182.846 1075.79 182.254 1075.52C181.942 1075.38 181.61 1075.1 181.257 1074.7C181.2 1075.45 180.932 1076.24 180.453 1077.08C179.975 1077.92 179.303 1078.62 178.438 1079.18C177.399 1079.85 176.344 1080.09 175.274 1079.89C174.206 1079.68 173.364 1079.11 172.748 1078.16C172.073 1077.12 171.874 1076.1 172.151 1075.11C172.429 1074.11 173.051 1073.21 174.018 1072.39L176.777 1070.07ZM177.18 1057.61L179.064 1056.38L189.044 1071.75L187.161 1072.98L177.18 1057.61ZM181.951 1054.51L183.835 1053.28L193.816 1068.66L191.932 1069.88L181.951 1054.51ZM189.409 1055.66L191.324 1054.42L198.566 1065.57L196.651 1066.81L189.409 1055.66ZM186.671 1051.44L188.585 1050.2L189.971 1052.33L188.057 1053.58L186.671 1051.44ZM194.146 1052.51L195.935 1051.35L196.968 1052.94C197.072 1051.94 197.328 1051.1 197.736 1050.43C198.143 1049.76 198.709 1049.19 199.435 1048.72C201.025 1047.68 202.459 1047.54 203.738 1048.29C204.439 1048.7 205.156 1049.46 205.89 1050.59L210.557 1057.78L208.643 1059.03L204.057 1051.96C203.613 1051.28 203.154 1050.79 202.68 1050.51C201.892 1050.03 201.058 1050.07 200.179 1050.64C199.733 1050.93 199.396 1051.22 199.169 1051.49C198.753 1051.98 198.498 1052.58 198.407 1053.3C198.333 1053.87 198.376 1054.39 198.537 1054.85C198.7 1055.3 199.019 1055.89 199.495 1056.62L203.306 1062.49L201.423 1063.72L194.146 1052.51ZM206.075 1044.76L207.864 1043.6L208.897 1045.19C209.001 1044.19 209.257 1043.36 209.664 1042.68C210.071 1042.01 210.638 1041.44 211.363 1040.97C212.954 1039.94 214.388 1039.8 215.666 1040.54C216.367 1040.95 217.085 1041.72 217.818 1042.85L222.486 1050.04L220.571 1051.28L215.985 1044.22C215.541 1043.53 215.082 1043.05 214.608 1042.76C213.82 1042.28 212.987 1042.33 212.108 1042.9C211.662 1043.19 211.325 1043.47 211.098 1043.75C210.681 1044.24 210.427 1044.84 210.335 1045.55C210.261 1046.12 210.305 1046.64 210.465 1047.1C210.628 1047.55 210.948 1048.14 211.423 1048.88L215.235 1054.75L213.351 1055.97L206.075 1044.76ZM224.787 1044.3C225.141 1044.85 225.618 1045.15 226.22 1045.2C226.821 1045.26 227.394 1045.11 227.938 1044.76C228.601 1044.33 229.143 1043.76 229.564 1043.05C230.28 1041.86 230.262 1040.68 229.51 1039.53L228.525 1038.01C228.39 1038.3 228.172 1038.62 227.873 1038.95C227.574 1039.29 227.263 1039.59 226.942 1039.85L225.896 1040.74C225.272 1041.28 224.852 1041.75 224.637 1042.17C224.271 1042.87 224.321 1043.58 224.787 1044.3ZM226.876 1037.53C227.273 1037.2 227.444 1036.83 227.392 1036.42C227.367 1036.2 227.252 1035.93 227.048 1035.62C226.632 1034.98 226.1 1034.66 225.454 1034.68C224.81 1034.68 224.063 1034.96 223.212 1035.51C222.229 1036.15 221.703 1036.86 221.636 1037.66C221.596 1038.1 221.729 1038.64 222.035 1039.26L220.277 1040.4C219.415 1039 219.239 1037.75 219.748 1036.66C220.26 1035.55 221.084 1034.63 222.221 1033.89C223.54 1033.03 224.773 1032.59 225.923 1032.56C227.065 1032.53 227.98 1033.05 228.669 1034.11L232.861 1040.56C232.988 1040.76 233.128 1040.89 233.282 1040.96C233.443 1041.02 233.652 1040.97 233.91 1040.8C233.994 1040.75 234.086 1040.69 234.186 1040.61C234.281 1040.53 234.382 1040.44 234.487 1040.34L235.39 1041.73C235.152 1042.01 234.962 1042.2 234.822 1042.32C234.683 1042.44 234.48 1042.59 234.215 1042.76C233.566 1043.18 232.946 1043.26 232.354 1042.99C232.042 1042.85 231.71 1042.57 231.357 1042.16C231.299 1042.92 231.032 1043.71 230.553 1044.55C230.075 1045.38 229.403 1046.08 228.538 1046.64C227.499 1047.32 226.444 1047.56 225.373 1047.36C224.305 1047.15 223.463 1046.57 222.847 1045.62C222.173 1044.58 221.974 1043.57 222.251 1042.57C222.528 1041.58 223.151 1040.68 224.118 1039.86L226.876 1037.53ZM235.948 1025.36L237.738 1024.2L238.994 1026.14C238.896 1025.67 238.959 1024.98 239.182 1024.07C239.401 1023.15 239.883 1022.45 240.63 1021.97C240.665 1021.94 240.726 1021.91 240.815 1021.86C240.903 1021.81 241.055 1021.73 241.271 1021.62L242.562 1023.61C242.436 1023.66 242.323 1023.72 242.221 1023.77C242.125 1023.83 242.022 1023.89 241.91 1023.96C240.962 1024.58 240.432 1025.36 240.321 1026.3C240.206 1027.24 240.407 1028.11 240.923 1028.9L245.108 1035.35L243.225 1036.57L235.948 1025.36ZM243.066 1020.82L244.981 1019.57L252.224 1030.73L250.309 1031.97L243.066 1020.82ZM240.328 1016.6L242.243 1015.35L243.629 1017.49L241.714 1018.73L240.328 1016.6ZM247.804 1017.66L249.593 1016.5L250.626 1018.09C250.73 1017.09 250.986 1016.26 251.393 1015.59C251.8 1014.92 252.367 1014.34 253.092 1013.87C254.683 1012.84 256.117 1012.7 257.395 1013.44C258.096 1013.85 258.814 1014.62 259.547 1015.75L264.215 1022.94L262.3 1024.18L257.714 1017.12C257.27 1016.44 256.811 1015.95 256.337 1015.66C255.549 1015.18 254.716 1015.23 253.837 1015.8C253.39 1016.09 253.054 1016.37 252.827 1016.65C252.41 1017.14 252.156 1017.74 252.064 1018.45C251.99 1019.03 252.034 1019.54 252.194 1020.01C252.357 1020.45 252.676 1021.05 253.152 1021.78L256.964 1027.65L255.08 1028.87L247.804 1017.66ZM263.558 1007.15C264.437 1006.58 265.345 1006.3 266.281 1006.31C266.796 1006.32 267.39 1006.44 268.063 1006.67L267.145 1005.25L268.882 1004.13L275.5 1014.32C276.424 1015.74 276.944 1017 277.06 1018.09C277.266 1020.12 276.284 1021.84 274.115 1023.25C272.908 1024.03 271.717 1024.42 270.54 1024.41C269.368 1024.41 268.36 1023.86 267.515 1022.78L269.43 1021.53C269.846 1021.98 270.279 1022.24 270.728 1022.34C271.425 1022.48 272.231 1022.26 273.145 1021.66C274.588 1020.73 275.203 1019.6 274.988 1018.29C274.864 1017.52 274.291 1016.37 273.269 1014.84C273.263 1015.66 273.086 1016.38 272.737 1017C272.388 1017.63 271.778 1018.22 270.906 1018.79C269.692 1019.58 268.35 1019.84 266.879 1019.57C265.41 1019.3 264.03 1018.17 262.74 1016.18C261.521 1014.3 261.027 1012.54 261.257 1010.89C261.494 1009.24 262.261 1007.99 263.558 1007.15ZM270.685 1010.7C269.784 1009.32 268.83 1008.47 267.823 1008.18C266.816 1007.88 265.87 1008.02 264.984 1008.59C263.658 1009.45 263.155 1010.66 263.473 1012.22C263.645 1013.05 264.08 1014 264.777 1015.08C265.597 1016.34 266.477 1017.14 267.416 1017.47C268.358 1017.79 269.262 1017.67 270.127 1017.11C271.48 1016.23 272.036 1015 271.794 1013.42C271.653 1012.53 271.283 1011.63 270.685 1010.7ZM277.677 998.265L279.466 997.103L280.723 999.039C280.625 998.567 280.688 997.877 280.911 996.968C281.13 996.053 281.612 995.353 282.359 994.868C282.394 994.845 282.455 994.81 282.543 994.763C282.632 994.716 282.784 994.637 283 994.526L284.291 996.514C284.165 996.566 284.052 996.62 283.949 996.676C283.854 996.728 283.751 996.791 283.639 996.863C282.691 997.479 282.161 998.259 282.05 999.204C281.935 1000.14 282.136 1001.01 282.652 1001.8L286.837 1008.25L284.954 1009.47L277.677 998.265ZM295.697 1000.77C296.945 999.96 297.494 998.934 297.343 997.693C297.194 996.441 296.744 995.236 295.992 994.078C295.313 993.031 294.593 992.289 293.832 991.851C292.632 991.162 291.383 991.24 290.085 992.082C288.934 992.83 288.382 993.813 288.43 995.031C288.477 996.25 288.904 997.48 289.711 998.722C290.485 999.915 291.392 1000.74 292.432 1001.19C293.471 1001.65 294.56 1001.51 295.697 1000.77ZM289.071 990.405C290.515 989.468 292.048 989.156 293.671 989.471C295.293 989.786 296.711 990.878 297.925 992.748C299.098 994.555 299.628 996.333 299.515 998.083C299.401 999.832 298.42 1001.31 296.572 1002.51C295.03 1003.51 293.468 1003.78 291.887 1003.33C290.3 1002.88 288.937 1001.77 287.795 1000.01C286.572 998.127 286.076 996.317 286.307 994.58C286.538 992.843 287.459 991.452 289.071 990.405ZM303.474 993.206C303.827 993.75 304.305 994.05 304.906 994.106C305.507 994.161 306.08 994.013 306.624 993.659C307.287 993.229 307.829 992.659 308.251 991.949C308.966 990.76 308.948 989.587 308.196 988.429L307.211 986.911C307.076 987.207 306.859 987.522 306.56 987.855C306.26 988.188 305.95 988.489 305.628 988.757L304.583 989.645C303.958 990.179 303.538 990.655 303.323 991.072C302.957 991.776 303.007 992.487 303.474 993.206ZM305.563 986.435C305.959 986.098 306.131 985.728 306.078 985.326C306.053 985.105 305.939 984.837 305.735 984.523C305.318 983.881 304.787 983.567 304.141 983.58C303.497 983.581 302.75 983.858 301.899 984.411C300.915 985.049 300.389 985.768 300.322 986.565C300.282 987.007 300.415 987.541 300.722 988.165L298.964 989.307C298.102 987.903 297.925 986.654 298.435 985.559C298.946 984.454 299.771 983.531 300.908 982.793C302.226 981.937 303.46 981.493 304.609 981.46C305.751 981.433 306.667 981.949 307.355 983.009L311.547 989.466C311.674 989.661 311.814 989.793 311.968 989.862C312.129 989.926 312.338 989.874 312.596 989.707C312.68 989.652 312.772 989.588 312.872 989.513C312.968 989.431 313.068 989.341 313.173 989.243L314.077 990.635C313.838 990.909 313.649 991.106 313.509 991.227C313.369 991.347 313.167 991.494 312.901 991.666C312.253 992.087 311.632 992.163 311.04 991.892C310.728 991.748 310.396 991.473 310.043 991.067C309.986 991.818 309.718 992.612 309.239 993.449C308.761 994.285 308.089 994.984 307.224 995.546C306.185 996.221 305.13 996.459 304.06 996.262C302.992 996.053 302.15 995.474 301.534 994.525C300.859 993.486 300.66 992.469 300.938 991.476C301.215 990.483 301.837 989.578 302.804 988.761L305.563 986.435ZM313.534 983.132C314.313 984.332 315.22 985.172 316.255 985.65C317.289 986.129 318.368 986.003 319.491 985.274C320.363 984.708 320.836 983.87 320.909 982.761C320.985 981.641 320.568 980.38 319.658 978.978C318.738 977.561 317.769 976.703 316.751 976.402C315.728 976.095 314.791 976.217 313.94 976.77C312.991 977.386 312.456 978.249 312.334 979.36C312.219 980.466 312.619 981.723 313.534 983.132ZM312.518 975.358C313.376 974.801 314.212 974.516 315.026 974.502C315.497 974.494 316.115 974.614 316.88 974.86L313.205 969.199L315.015 968.024L325.029 983.448L323.334 984.549L322.322 982.989C322.331 983.965 322.135 984.802 321.735 985.498C321.334 986.195 320.746 986.794 319.972 987.297C318.723 988.108 317.303 988.287 315.709 987.834C314.112 987.374 312.746 986.272 311.614 984.528C310.554 982.896 310.052 981.214 310.108 979.482C310.166 977.738 310.969 976.364 312.518 975.358Z" fill="#0C0C0C"/>
<path d="M129.11 847.454C129.11 846.497 128.856 845.815 128.349 845.407C127.85 845 127.147 844.796 126.241 844.796H122.66V850.211H126.241C127.147 850.211 127.85 849.99 128.349 849.55C128.856 849.109 129.11 848.41 129.11 847.454ZM132.915 847.429C132.915 849.599 132.366 851.134 131.269 852.032C130.171 852.931 128.603 853.38 126.565 853.38H122.66V859.992H118.842V841.602H126.852C128.698 841.602 130.171 842.076 131.269 843.025C132.366 843.973 132.915 845.441 132.915 847.429ZM143.009 853.38C142.784 853.521 142.555 853.638 142.322 853.729C142.098 853.812 141.786 853.891 141.387 853.966L140.588 854.116C139.84 854.249 139.303 854.411 138.979 854.602C138.43 854.927 138.155 855.43 138.155 856.112C138.155 856.719 138.322 857.16 138.654 857.435C138.995 857.701 139.407 857.834 139.89 857.834C140.655 857.834 141.358 857.609 141.998 857.16C142.647 856.711 142.984 855.892 143.009 854.702V853.38ZM140.85 851.72C141.507 851.637 141.977 851.533 142.26 851.409C142.767 851.192 143.021 850.855 143.021 850.398C143.021 849.841 142.826 849.458 142.435 849.25C142.052 849.034 141.487 848.926 140.738 848.926C139.898 848.926 139.303 849.134 138.954 849.55C138.704 849.857 138.538 850.273 138.455 850.797H135.024C135.099 849.608 135.431 848.63 136.022 847.865C136.962 846.668 138.575 846.069 140.863 846.069C142.352 846.069 143.674 846.364 144.83 846.955C145.986 847.545 146.564 848.66 146.564 850.298V856.536C146.564 856.969 146.573 857.493 146.589 858.108C146.614 858.574 146.685 858.89 146.801 859.056C146.918 859.223 147.093 859.36 147.325 859.468V859.992H143.458C143.35 859.718 143.275 859.46 143.233 859.219C143.192 858.977 143.158 858.703 143.133 858.395C142.643 858.928 142.077 859.381 141.437 859.755C140.671 860.196 139.806 860.416 138.842 860.416C137.611 860.416 136.592 860.067 135.785 859.368C134.986 858.661 134.587 857.663 134.587 856.374C134.587 854.702 135.232 853.492 136.521 852.743C137.228 852.336 138.268 852.045 139.64 851.87L140.85 851.72ZM141.898 841.365H145.155V844.322H141.898V841.365ZM136.908 841.365H140.164V844.322H136.908V841.365ZM157.119 846.069C157.186 846.069 157.24 846.073 157.282 846.081C157.331 846.081 157.435 846.085 157.593 846.094V849.737C157.369 849.712 157.169 849.695 156.995 849.687C156.82 849.678 156.678 849.674 156.57 849.674C155.14 849.674 154.179 850.14 153.688 851.072C153.414 851.596 153.277 852.402 153.277 853.492V859.992H149.696V846.393H153.089V848.764C153.638 847.857 154.117 847.237 154.524 846.905C155.19 846.347 156.055 846.069 157.119 846.069ZM167.225 846.069C168.631 846.069 169.779 846.439 170.669 847.179C171.567 847.911 172.016 849.13 172.016 850.835V859.992H168.373V851.72C168.373 851.005 168.277 850.456 168.086 850.074C167.737 849.375 167.071 849.026 166.09 849.026C164.884 849.026 164.056 849.537 163.607 850.56C163.374 851.101 163.258 851.791 163.258 852.631V859.992H159.714V846.418H163.145V848.402C163.603 847.703 164.035 847.2 164.443 846.892C165.175 846.343 166.102 846.069 167.225 846.069ZM178.853 846.393V854.59C178.853 855.364 178.944 855.946 179.127 856.337C179.452 857.027 180.088 857.372 181.036 857.372C182.251 857.372 183.082 856.881 183.532 855.9C183.764 855.368 183.881 854.665 183.881 853.791V846.393H187.486V859.992H184.031V858.071C183.997 858.112 183.914 858.237 183.781 858.445C183.648 858.653 183.49 858.836 183.307 858.994C182.75 859.493 182.209 859.834 181.685 860.017C181.169 860.2 180.562 860.292 179.863 860.292C177.851 860.292 176.495 859.568 175.796 858.121C175.405 857.322 175.21 856.145 175.21 854.59V846.393H178.853ZM202.196 841.665H204.092L198.278 859.992H196.382L202.196 841.665ZM216.394 844.796V849.737H220.748C221.613 849.737 222.262 849.637 222.694 849.437C223.46 849.088 223.842 848.398 223.842 847.366C223.842 846.252 223.472 845.503 222.732 845.121C222.316 844.904 221.692 844.796 220.86 844.796H216.394ZM221.659 841.602C222.948 841.627 223.938 841.785 224.628 842.076C225.327 842.367 225.917 842.796 226.4 843.361C226.799 843.827 227.115 844.343 227.348 844.908C227.581 845.474 227.697 846.119 227.697 846.842C227.697 847.716 227.477 848.576 227.036 849.425C226.595 850.265 225.868 850.86 224.853 851.209C225.701 851.55 226.3 852.037 226.649 852.669C227.007 853.292 227.186 854.249 227.186 855.538V856.773C227.186 857.613 227.219 858.183 227.286 858.483C227.385 858.957 227.618 859.306 227.984 859.531V859.992H223.755C223.638 859.585 223.555 859.256 223.505 859.007C223.406 858.491 223.351 857.963 223.343 857.422L223.318 855.713C223.302 854.54 223.085 853.758 222.669 853.367C222.262 852.976 221.493 852.781 220.361 852.781H216.394V859.992H212.639V841.602H221.659ZM234.385 844.771H230.779V841.49H234.385V844.771ZM230.779 846.393H234.385V859.992H230.779V846.393ZM241.496 844.771H237.89V841.49H241.496V844.771ZM237.89 846.393H241.496V859.992H237.89V846.393ZM252.45 853.38C252.226 853.521 251.997 853.638 251.764 853.729C251.539 853.812 251.228 853.891 250.828 853.966L250.03 854.116C249.281 854.249 248.745 854.411 248.42 854.602C247.871 854.927 247.597 855.43 247.597 856.112C247.597 856.719 247.763 857.16 248.096 857.435C248.437 857.701 248.849 857.834 249.331 857.834C250.096 857.834 250.799 857.609 251.44 857.16C252.088 856.711 252.425 855.892 252.45 854.702V853.38ZM250.292 851.72C250.949 851.637 251.419 851.533 251.702 851.409C252.209 851.192 252.463 850.855 252.463 850.398C252.463 849.841 252.267 849.458 251.876 849.25C251.494 849.034 250.928 848.926 250.18 848.926C249.339 848.926 248.745 849.134 248.395 849.55C248.146 849.857 247.98 850.273 247.896 850.797H244.465C244.54 849.608 244.873 848.63 245.464 847.865C246.403 846.668 248.017 846.069 250.304 846.069C251.793 846.069 253.116 846.364 254.272 846.955C255.428 847.545 256.006 848.66 256.006 850.298V856.536C256.006 856.969 256.014 857.493 256.031 858.108C256.056 858.574 256.127 858.89 256.243 859.056C256.359 859.223 256.534 859.36 256.767 859.468V859.992H252.899C252.791 859.718 252.716 859.46 252.675 859.219C252.633 858.977 252.6 858.703 252.575 858.395C252.084 858.928 251.519 859.381 250.878 859.755C250.113 860.196 249.248 860.416 248.283 860.416C247.052 860.416 246.033 860.067 245.226 859.368C244.428 858.661 244.029 857.663 244.029 856.374C244.029 854.702 244.673 853.492 245.963 852.743C246.67 852.336 247.709 852.045 249.082 851.87L250.292 851.72Z" fill="#0C0C0C"/>
<path d="M758.125 901.83V905.086H752.623V920.22H748.755V905.086H743.228V901.83H758.125ZM765.698 913.607C765.473 913.749 765.245 913.865 765.012 913.957C764.787 914.04 764.475 914.119 764.076 914.194L763.277 914.343C762.529 914.476 761.992 914.639 761.668 914.83C761.119 915.154 760.845 915.658 760.845 916.34C760.845 916.947 761.011 917.388 761.344 917.662C761.685 917.928 762.096 918.061 762.579 918.061C763.344 918.061 764.047 917.837 764.687 917.388C765.336 916.938 765.673 916.119 765.698 914.93V913.607ZM763.539 911.948C764.197 911.865 764.666 911.761 764.949 911.636C765.457 911.42 765.71 911.083 765.71 910.626C765.71 910.068 765.515 909.686 765.124 909.478C764.741 909.261 764.176 909.153 763.427 909.153C762.587 909.153 761.992 909.361 761.643 909.777C761.394 910.085 761.227 910.501 761.144 911.025H757.713C757.788 909.835 758.121 908.858 758.711 908.093C759.651 906.895 761.265 906.296 763.552 906.296C765.041 906.296 766.363 906.592 767.519 907.182C768.675 907.773 769.254 908.887 769.254 910.526V916.764C769.254 917.196 769.262 917.72 769.279 918.336C769.303 918.802 769.374 919.118 769.491 919.284C769.607 919.45 769.782 919.588 770.015 919.696V920.22H766.147C766.039 919.945 765.964 919.687 765.922 919.446C765.881 919.205 765.848 918.931 765.823 918.623C765.332 919.155 764.766 919.608 764.126 919.983C763.361 920.424 762.496 920.644 761.531 920.644C760.3 920.644 759.281 920.295 758.474 919.596C757.676 918.889 757.276 917.891 757.276 916.602C757.276 914.93 757.921 913.72 759.21 912.971C759.917 912.563 760.957 912.272 762.329 912.098L763.539 911.948ZM779.808 906.296C779.875 906.296 779.929 906.3 779.971 906.309C780.021 906.309 780.125 906.313 780.283 906.321V909.964C780.058 909.939 779.858 909.923 779.684 909.914C779.509 909.906 779.368 909.902 779.259 909.902C777.829 909.902 776.868 910.368 776.377 911.299C776.103 911.823 775.966 912.63 775.966 913.72V920.22H772.385V906.621H775.779V908.991C776.328 908.085 776.806 907.465 777.213 907.132C777.879 906.575 778.744 906.296 779.808 906.296ZM780.981 909.278V906.745H782.878V902.953H786.396V906.745H788.604V909.278H786.396V916.464C786.396 917.022 786.467 917.371 786.608 917.512C786.749 917.645 787.182 917.712 787.906 917.712C788.014 917.712 788.126 917.712 788.242 917.712C788.367 917.704 788.488 917.695 788.604 917.687V920.344L786.92 920.407C785.24 920.465 784.092 920.174 783.476 919.534C783.077 919.126 782.878 918.498 782.878 917.65V909.278H780.981ZM794.431 906.621V914.818C794.431 915.591 794.522 916.173 794.705 916.564C795.029 917.255 795.666 917.6 796.614 917.6C797.828 917.6 798.66 917.109 799.109 916.128C799.342 915.595 799.459 914.892 799.459 914.019V906.621H803.064V920.22H799.608V918.298C799.575 918.34 799.492 918.465 799.359 918.673C799.226 918.881 799.068 919.064 798.885 919.222C798.327 919.721 797.787 920.062 797.263 920.245C796.747 920.428 796.14 920.519 795.441 920.519C793.428 920.519 792.073 919.796 791.374 918.348C790.983 917.55 790.788 916.373 790.788 914.818V906.621H794.431Z" fill="#0C0C0C"/>
<path d="M1182.32 430.503V436.15H1187.3C1188.29 436.15 1189.03 436.036 1189.52 435.807C1190.4 435.408 1190.83 434.619 1190.83 433.44C1190.83 432.167 1190.41 431.311 1189.56 430.874C1189.09 430.627 1188.38 430.503 1187.43 430.503H1182.32ZM1188.34 426.853C1189.81 426.882 1190.94 427.062 1191.73 427.395C1192.53 427.728 1193.21 428.217 1193.76 428.863C1194.21 429.396 1194.57 429.985 1194.84 430.632C1195.11 431.278 1195.24 432.015 1195.24 432.842C1195.24 433.84 1194.99 434.824 1194.48 435.793C1193.98 436.753 1193.15 437.433 1191.99 437.832C1192.96 438.222 1193.64 438.778 1194.04 439.5C1194.45 440.213 1194.66 441.306 1194.66 442.78V444.191C1194.66 445.151 1194.69 445.803 1194.77 446.145C1194.88 446.687 1195.15 447.086 1195.57 447.343V447.87H1190.73C1190.6 447.404 1190.51 447.029 1190.45 446.744C1190.33 446.154 1190.27 445.551 1190.26 444.933L1190.23 442.979C1190.22 441.639 1189.97 440.746 1189.49 440.299C1189.03 439.852 1188.15 439.629 1186.86 439.629H1182.32V447.87H1178.03V426.853H1188.34ZM1202.88 430.475H1198.76V426.725H1202.88V430.475ZM1198.76 432.328H1202.88V447.87H1198.76V432.328ZM1215.44 431.958C1217.05 431.958 1218.36 432.381 1219.38 433.227C1220.41 434.063 1220.92 435.456 1220.92 437.404V447.87H1216.76V438.417C1216.76 437.599 1216.65 436.972 1216.43 436.535C1216.03 435.736 1215.27 435.337 1214.15 435.337C1212.77 435.337 1211.82 435.921 1211.31 437.091C1211.04 437.709 1210.91 438.497 1210.91 439.458V447.87H1206.86V432.357H1210.78V434.624C1211.3 433.825 1211.8 433.25 1212.26 432.899C1213.1 432.271 1214.16 431.958 1215.44 431.958ZM1231.36 444.534C1232.31 444.534 1233.11 444.177 1233.77 443.464C1234.42 442.742 1234.75 441.596 1234.75 440.028C1234.75 438.555 1234.44 437.433 1233.81 436.663C1233.19 435.893 1232.36 435.508 1231.31 435.508C1229.89 435.508 1228.9 436.178 1228.36 437.518C1228.08 438.231 1227.93 439.111 1227.93 440.156C1227.93 441.059 1228.09 441.863 1228.39 442.566C1228.94 443.878 1229.93 444.534 1231.36 444.534ZM1230.34 431.958C1231.12 431.958 1231.8 432.076 1232.38 432.314C1233.37 432.723 1234.17 433.474 1234.78 434.567V432.328H1238.73V447.072C1238.73 449.077 1238.39 450.589 1237.72 451.606C1236.56 453.355 1234.33 454.229 1231.04 454.229C1229.06 454.229 1227.44 453.84 1226.18 453.06C1224.93 452.281 1224.23 451.116 1224.1 449.567H1228.52C1228.63 450.042 1228.82 450.384 1229.08 450.594C1229.51 450.964 1230.25 451.15 1231.29 451.15C1232.75 451.15 1233.73 450.66 1234.22 449.681C1234.55 449.054 1234.71 447.998 1234.71 446.516V445.517C1234.32 446.183 1233.9 446.682 1233.45 447.015C1232.64 447.632 1231.59 447.941 1230.3 447.941C1228.31 447.941 1226.71 447.243 1225.51 445.845C1224.32 444.439 1223.73 442.537 1223.73 440.142C1223.73 437.832 1224.3 435.893 1225.45 434.324C1226.6 432.747 1228.23 431.958 1230.34 431.958ZM1246.71 430.475H1242.59V426.725H1246.71V430.475ZM1242.59 432.328H1246.71V447.87H1242.59V432.328ZM1257.19 435.365V432.471H1259.36V428.136H1263.38V432.471H1265.91V435.365H1263.38V443.578C1263.38 444.215 1263.46 444.614 1263.62 444.776C1263.79 444.928 1264.28 445.004 1265.11 445.004C1265.23 445.004 1265.36 445.004 1265.49 445.004C1265.63 444.995 1265.77 444.985 1265.91 444.976V448.013L1263.98 448.084C1262.06 448.151 1260.75 447.818 1260.04 447.086C1259.59 446.62 1259.36 445.902 1259.36 444.933V435.365H1257.19ZM1274.65 435.266C1273.7 435.266 1272.97 435.56 1272.45 436.15C1271.94 436.739 1271.61 437.537 1271.48 438.545H1277.8C1277.73 437.471 1277.4 436.658 1276.81 436.107C1276.23 435.546 1275.51 435.266 1274.65 435.266ZM1274.65 431.915C1275.94 431.915 1277.1 432.157 1278.14 432.642C1279.18 433.127 1280.03 433.892 1280.71 434.938C1281.31 435.86 1281.71 436.929 1281.89 438.146C1281.99 438.859 1282.04 439.885 1282.02 441.226H1271.38C1271.44 442.785 1271.93 443.878 1272.85 444.505C1273.41 444.895 1274.08 445.09 1274.87 445.09C1275.71 445.09 1276.39 444.852 1276.91 444.377C1277.2 444.12 1277.45 443.764 1277.67 443.307H1281.82C1281.71 444.229 1281.23 445.166 1280.38 446.116C1279.05 447.628 1277.18 448.383 1274.79 448.383C1272.81 448.383 1271.07 447.747 1269.56 446.473C1268.04 445.199 1267.29 443.127 1267.29 440.256C1267.29 437.566 1267.97 435.503 1269.33 434.068C1270.7 432.632 1272.47 431.915 1274.65 431.915ZM1290.9 435.266C1289.96 435.266 1289.23 435.56 1288.7 436.15C1288.19 436.739 1287.87 437.537 1287.73 438.545H1294.05C1293.98 437.471 1293.66 436.658 1293.07 436.107C1292.49 435.546 1291.77 435.266 1290.9 435.266ZM1290.9 431.915C1292.19 431.915 1293.36 432.157 1294.39 432.642C1295.43 433.127 1296.29 433.892 1296.96 434.938C1297.57 435.86 1297.96 436.929 1298.14 438.146C1298.25 438.859 1298.29 439.885 1298.27 441.226H1287.64C1287.69 442.785 1288.18 443.878 1289.1 444.505C1289.66 444.895 1290.34 445.09 1291.13 445.09C1291.96 445.09 1292.64 444.852 1293.17 444.377C1293.45 444.12 1293.7 443.764 1293.92 443.307H1298.07C1297.97 444.229 1297.49 445.166 1296.63 446.116C1295.3 447.628 1293.44 448.383 1291.04 448.383C1289.07 448.383 1287.32 447.747 1285.81 446.473C1284.3 445.199 1283.54 443.127 1283.54 440.256C1283.54 437.566 1284.22 435.503 1285.58 434.068C1286.95 432.632 1288.72 431.915 1290.9 431.915ZM1194.71 496.53V487.54C1198.88 487.354 1201.8 487.076 1203.47 486.706C1206.13 486.119 1208.29 484.945 1209.96 483.184C1211.1 481.979 1211.97 480.372 1212.55 478.364C1212.89 477.16 1213.06 476.264 1213.06 475.677H1224.05V542.87H1210.52V496.53H1194.71ZM1240.45 496.53V487.54C1244.62 487.354 1247.54 487.076 1249.21 486.706C1251.87 486.119 1254.03 484.945 1255.7 483.184C1256.84 481.979 1257.71 480.372 1258.29 478.364C1258.63 477.16 1258.8 476.264 1258.8 475.677H1269.79V542.87H1256.25V496.53H1240.45Z" fill="white"/>
<path d="M1176.84 852.1V857.746H1181.82C1182.81 857.746 1183.55 857.632 1184.05 857.404C1184.92 857.005 1185.36 856.216 1185.36 855.037C1185.36 853.763 1184.93 852.908 1184.09 852.471C1183.61 852.223 1182.9 852.1 1181.95 852.1H1176.84ZM1182.86 848.45C1184.34 848.478 1185.47 848.659 1186.26 848.992C1187.05 849.324 1187.73 849.814 1188.28 850.46C1188.74 850.992 1189.1 851.582 1189.36 852.228C1189.63 852.875 1189.76 853.611 1189.76 854.438C1189.76 855.436 1189.51 856.42 1189.01 857.39C1188.5 858.35 1187.67 859.03 1186.51 859.429C1187.48 859.819 1188.17 860.375 1188.57 861.097C1188.97 861.81 1189.18 862.903 1189.18 864.376V865.788C1189.18 866.748 1189.22 867.399 1189.29 867.742C1189.41 868.283 1189.67 868.683 1190.09 868.939V869.467H1185.26C1185.12 869.001 1185.03 868.626 1184.97 868.34C1184.86 867.751 1184.8 867.147 1184.79 866.53L1184.76 864.576C1184.74 863.236 1184.49 862.342 1184.02 861.896C1183.55 861.449 1182.67 861.225 1181.38 861.225H1176.84V869.467H1172.55V848.45H1182.86ZM1197.41 852.071H1193.29V848.321H1197.41V852.071ZM1193.29 853.925H1197.41V869.467H1193.29V853.925ZM1209.97 853.554C1211.57 853.554 1212.89 853.977 1213.9 854.823C1214.93 855.66 1215.44 857.052 1215.44 859.001V869.467H1211.28V860.013C1211.28 859.196 1211.17 858.569 1210.95 858.131C1210.55 857.333 1209.79 856.934 1208.67 856.934C1207.29 856.934 1206.35 857.518 1205.83 858.687C1205.57 859.305 1205.43 860.094 1205.43 861.054V869.467H1201.38V853.953H1205.3V856.221C1205.83 855.422 1206.32 854.847 1206.79 854.495C1207.62 853.868 1208.68 853.554 1209.97 853.554ZM1225.88 866.13C1226.83 866.13 1227.63 865.774 1228.29 865.061C1228.95 864.338 1229.27 863.193 1229.27 861.625C1229.27 860.151 1228.96 859.03 1228.33 858.26C1227.71 857.49 1226.88 857.105 1225.84 857.105C1224.41 857.105 1223.43 857.775 1222.89 859.115C1222.6 859.828 1222.46 860.707 1222.46 861.753C1222.46 862.656 1222.61 863.459 1222.91 864.163C1223.47 865.474 1224.45 866.13 1225.88 866.13ZM1224.87 853.554C1225.65 853.554 1226.33 853.673 1226.91 853.911C1227.9 854.319 1228.69 855.07 1229.3 856.164V853.925H1233.25V868.668C1233.25 870.674 1232.91 872.185 1232.24 873.203C1231.08 874.952 1228.86 875.826 1225.57 875.826C1223.58 875.826 1221.96 875.436 1220.7 874.657C1219.45 873.877 1218.76 872.713 1218.62 871.164H1223.04C1223.16 871.639 1223.34 871.981 1223.6 872.19C1224.04 872.561 1224.77 872.746 1225.81 872.746C1227.27 872.746 1228.25 872.257 1228.75 871.278C1229.07 870.65 1229.23 869.595 1229.23 868.112V867.114C1228.84 867.78 1228.42 868.279 1227.98 868.611C1227.17 869.229 1226.12 869.538 1224.82 869.538C1222.83 869.538 1221.23 868.839 1220.03 867.442C1218.85 866.035 1218.25 864.134 1218.25 861.739C1218.25 859.429 1218.83 857.49 1219.98 855.921C1221.13 854.343 1222.76 853.554 1224.87 853.554ZM1241.24 852.071H1237.12V848.321H1241.24V852.071ZM1237.12 853.925H1241.24V869.467H1237.12V853.925ZM1251.72 856.962V854.068H1253.88V849.733H1257.9V854.068H1260.43V856.962H1257.9V865.175C1257.9 865.812 1257.99 866.211 1258.15 866.373C1258.31 866.525 1258.8 866.601 1259.63 866.601C1259.75 866.601 1259.88 866.601 1260.02 866.601C1260.16 866.591 1260.3 866.582 1260.43 866.572V869.609L1258.5 869.681C1256.58 869.747 1255.27 869.415 1254.57 868.683C1254.11 868.217 1253.88 867.499 1253.88 866.53V856.962H1251.72ZM1269.17 856.862C1268.23 856.862 1267.5 857.157 1266.97 857.746C1266.46 858.336 1266.14 859.134 1266 860.142H1272.32C1272.25 859.068 1271.93 858.255 1271.34 857.703C1270.76 857.143 1270.03 856.862 1269.17 856.862ZM1269.17 853.511C1270.46 853.511 1271.63 853.754 1272.66 854.239C1273.7 854.723 1274.55 855.489 1275.23 856.534C1275.84 857.456 1276.23 858.526 1276.41 859.742C1276.52 860.455 1276.56 861.482 1276.54 862.822H1265.9C1265.96 864.381 1266.45 865.474 1267.37 866.102C1267.93 866.492 1268.61 866.686 1269.4 866.686C1270.23 866.686 1270.91 866.449 1271.44 865.973C1271.72 865.717 1271.97 865.36 1272.19 864.904H1276.34C1276.24 865.826 1275.76 866.762 1274.9 867.713C1273.57 869.224 1271.71 869.98 1269.31 869.98C1267.33 869.98 1265.59 869.343 1264.08 868.069C1262.57 866.796 1261.81 864.723 1261.81 861.853C1261.81 859.163 1262.49 857.1 1263.85 855.665C1265.22 854.229 1266.99 853.511 1269.17 853.511ZM1285.42 856.862C1284.48 856.862 1283.75 857.157 1283.23 857.746C1282.71 858.336 1282.39 859.134 1282.26 860.142H1288.57C1288.51 859.068 1288.18 858.255 1287.59 857.703C1287.01 857.143 1286.29 856.862 1285.42 856.862ZM1285.42 853.511C1286.72 853.511 1287.88 853.754 1288.92 854.239C1289.95 854.723 1290.81 855.489 1291.48 856.534C1292.09 857.456 1292.49 858.526 1292.67 859.742C1292.77 860.455 1292.81 861.482 1292.8 862.822H1282.16C1282.22 864.381 1282.71 865.474 1283.63 866.102C1284.19 866.492 1284.86 866.686 1285.65 866.686C1286.49 866.686 1287.17 866.449 1287.69 865.973C1287.98 865.717 1288.23 865.36 1288.45 864.904H1292.6C1292.49 865.826 1292.01 866.762 1291.16 867.713C1289.82 869.224 1287.96 869.98 1285.57 869.98C1283.59 869.98 1281.84 869.343 1280.33 868.069C1278.82 866.796 1278.07 864.723 1278.07 861.853C1278.07 859.163 1278.75 857.1 1280.11 855.665C1281.47 854.229 1283.25 853.511 1285.42 853.511ZM1186.64 918.126V909.136C1190.81 908.951 1193.73 908.673 1195.4 908.302C1198.06 907.715 1200.22 906.541 1201.89 904.78C1203.03 903.576 1203.9 901.969 1204.48 899.961C1204.82 898.756 1204.99 897.86 1204.99 897.273H1215.97V964.467H1202.44V918.126H1186.64ZM1246.47 943.845C1246.47 946.533 1246.9 948.757 1247.77 950.518C1249.37 953.762 1252.29 955.384 1256.52 955.384C1259.12 955.384 1261.37 954.504 1263.29 952.743C1265.24 950.951 1266.21 948.387 1266.21 945.05C1266.21 940.632 1264.42 937.682 1260.83 936.199C1258.8 935.365 1255.58 934.948 1251.2 934.948V925.495C1255.49 925.433 1258.49 925.016 1260.19 924.243C1263.12 922.946 1264.59 920.32 1264.59 916.366C1264.59 913.801 1263.83 911.716 1262.32 910.11C1260.83 908.503 1258.73 907.7 1256.01 907.7C1252.89 907.7 1250.59 908.689 1249.11 910.666C1247.66 912.643 1246.96 915.284 1247.02 918.59H1234.7C1234.82 915.253 1235.39 912.087 1236.41 909.09C1237.49 906.464 1239.19 904.039 1241.51 901.815C1243.24 900.239 1245.29 899.034 1247.67 898.2C1250.05 897.366 1252.97 896.949 1256.43 896.949C1262.86 896.949 1268.03 898.617 1271.96 901.954C1275.91 905.259 1277.89 909.708 1277.89 915.3C1277.89 919.254 1276.71 922.591 1274.37 925.309C1272.88 927.008 1271.34 928.167 1269.73 928.785C1270.94 928.785 1272.67 929.82 1274.92 931.89C1278.29 935.01 1279.97 939.273 1279.97 944.679C1279.97 950.364 1278 955.369 1274.04 959.694C1270.12 963.988 1264.29 966.135 1256.57 966.135C1247.06 966.135 1240.44 963.03 1236.74 956.821C1234.79 953.515 1233.71 949.19 1233.49 943.845H1246.47Z" fill="white"/>
<path d="M611.066 468.959L646.883 511.39" stroke="#0C0C0C" stroke-width="5.47529"/>
<path d="M640.544 470.888L610.788 467.857L607.758 497.339" stroke="#0C0C0C" stroke-width="5.47529"/>
<path d="M1233.63 128.056L1197.27 169.936" stroke="#0C0C0C" stroke-width="5.47529"/>
<path d="M1236.39 157.262L1235.01 127.505L1204.98 129.158" stroke="#0C0C0C" stroke-width="5.47529"/>
<path d="M160.16 923.251L207.273 894.045" stroke="#0C0C0C" stroke-width="5.47529"/>
<path d="M165.948 894.597L158.785 923.527L187.714 930.691" stroke="#0C0C0C" stroke-width="5.47529"/>
<path d="M772.33 875.251L737.34 831.992" stroke="#0C0C0C" stroke-width="5.47529"/>
<path d="M743.121 872.771L772.601 876.353L776.182 846.871" stroke="#0C0C0C" stroke-width="5.47529"/>
<path d="M720.014 613.393L718.306 614.752L714.462 609.918L701.827 619.969L700.259 617.996L712.893 607.946L709.049 603.113L710.757 601.754L720.014 613.393ZM708.99 623.262C708.482 623.666 708.23 624.17 708.232 624.774C708.234 625.378 708.437 625.934 708.841 626.442C709.333 627.06 709.952 627.545 710.699 627.897C711.951 628.495 713.117 628.364 714.198 627.505L715.614 626.379C715.306 626.273 714.972 626.087 714.612 625.821C714.251 625.555 713.922 625.274 713.624 624.98L712.641 624.024C712.049 623.454 711.535 623.082 711.099 622.908C710.364 622.611 709.661 622.729 708.99 623.262ZM715.93 624.692C716.303 625.054 716.687 625.19 717.082 625.099C717.301 625.053 717.556 624.913 717.849 624.68C718.448 624.204 718.71 623.645 718.635 623.003C718.572 622.362 718.225 621.645 717.593 620.851C716.863 619.933 716.098 619.478 715.298 619.488C714.854 619.491 714.335 619.674 713.743 620.039L712.439 618.399C713.753 617.406 714.98 617.111 716.118 617.513C717.268 617.916 718.264 618.648 719.108 619.709C720.087 620.939 720.647 622.125 720.789 623.266C720.927 624.4 720.5 625.361 719.511 626.148L713.487 630.94C713.305 631.085 713.187 631.237 713.133 631.397C713.084 631.563 713.156 631.767 713.347 632.007C713.41 632.086 713.483 632.171 713.567 632.263C713.658 632.351 713.757 632.442 713.864 632.537L712.566 633.57C712.27 633.359 712.056 633.189 711.922 633.062C711.789 632.934 711.624 632.746 711.427 632.499C710.945 631.894 710.811 631.283 711.023 630.668C711.137 630.344 711.379 629.987 711.749 629.597C710.995 629.611 710.18 629.421 709.301 629.025C708.423 628.629 707.663 628.027 707.021 627.22C706.249 626.25 705.911 625.223 706.005 624.138C706.11 623.055 706.606 622.162 707.491 621.458C708.461 620.686 709.453 620.391 710.469 620.571C711.484 620.752 712.444 621.285 713.35 622.169L715.93 624.692ZM724.485 626.99L725.813 628.66L724.007 630.096C724.467 629.954 725.16 629.95 726.086 630.085C727.018 630.215 727.761 630.628 728.315 631.324C728.341 631.357 728.382 631.415 728.437 631.498C728.493 631.581 728.586 631.725 728.717 631.93L726.861 633.405C726.798 633.286 726.733 633.178 726.667 633.081C726.607 632.991 726.535 632.894 726.452 632.79C725.748 631.905 724.92 631.453 723.97 631.433C723.025 631.408 722.182 631.691 721.44 632.281L715.426 637.066L714.028 635.308L724.485 626.99ZM732.941 631.63L734.355 633.407L731.436 635.729L732.764 637.399L731.328 638.54L730 636.871L723.175 642.3C722.811 642.59 722.665 642.907 722.738 643.253C722.775 643.447 722.921 643.703 723.175 644.022C723.242 644.107 723.314 644.198 723.392 644.295C723.476 644.388 723.577 644.494 723.693 644.614L722.307 645.717C722.088 645.562 721.877 645.384 721.675 645.183C721.478 644.989 721.279 644.765 721.077 644.511C720.424 643.691 720.19 642.969 720.374 642.344C720.564 641.715 720.994 641.133 721.664 640.6L728.587 635.094L727.461 633.678L728.896 632.536L730.022 633.952L732.941 631.63ZM735.567 640.923L728.625 646.446C728.091 646.87 727.723 647.302 727.519 647.74C727.142 648.55 727.293 649.381 727.972 650.234C728.945 651.457 730.154 651.856 731.6 651.428C732.377 651.203 733.277 650.684 734.299 649.871L739.435 645.786L740.833 647.543L730.376 655.862L729.055 654.202L730.614 652.994C730.035 653.082 729.475 653.066 728.932 652.945C727.852 652.709 726.932 652.113 726.171 651.156C724.985 649.665 724.675 648.254 725.241 646.921C725.542 646.204 726.138 645.49 727.03 644.781L734.138 639.127L735.567 640.923ZM747.449 655.863L748.832 657.601L747.348 658.781C748.193 658.789 748.868 658.868 749.371 659.021C750.229 659.284 750.951 659.784 751.536 660.519C752.198 661.352 752.527 662.186 752.52 663.02C752.514 663.493 752.376 664.028 752.107 664.624C752.977 664.57 753.755 664.7 754.442 665.015C755.134 665.324 755.742 665.808 756.265 666.466C757.384 667.872 757.637 669.232 757.025 670.548C756.696 671.256 756.069 671.978 755.145 672.713L748.183 678.251L746.731 676.425L753.995 670.647C754.692 670.092 755.03 669.536 755.011 668.978C754.997 668.425 754.791 667.899 754.392 667.398C753.843 666.708 753.139 666.296 752.278 666.162C751.422 666.035 750.454 666.401 749.374 667.261L743.291 672.099L741.87 670.313L748.694 664.884C749.404 664.319 749.854 663.823 750.045 663.395C750.321 662.74 750.169 662.048 749.589 661.318C749.061 660.655 748.322 660.254 747.373 660.116C746.429 659.985 745.284 660.455 743.936 661.527L738.39 665.938L736.992 664.181L747.449 655.863ZM760.698 672.52L762.026 674.19L760.542 675.37C761.548 675.378 762.404 675.553 763.111 675.894C763.818 676.235 764.44 676.744 764.979 677.421C766.159 678.905 766.439 680.319 765.818 681.663C765.48 682.4 764.783 683.188 763.729 684.027L757.021 689.362L755.6 687.576L762.191 682.333C762.829 681.826 763.268 681.322 763.508 680.823C763.91 679.993 763.785 679.167 763.133 678.347C762.802 677.931 762.488 677.622 762.191 677.423C761.664 677.055 761.041 676.86 760.322 676.837C759.744 676.819 759.233 676.911 758.79 677.115C758.358 677.321 757.8 677.695 757.117 678.239L751.639 682.596L750.242 680.838L760.698 672.52ZM772.751 681.681L774.164 683.458L771.245 685.78L772.573 687.45L771.138 688.591L769.81 686.922L762.985 692.351C762.62 692.641 762.475 692.958 762.548 693.304C762.585 693.498 762.73 693.754 762.984 694.073C763.051 694.158 763.124 694.249 763.201 694.346C763.285 694.439 763.386 694.545 763.502 694.665L762.116 695.768C761.897 695.613 761.686 695.435 761.484 695.234C761.287 695.04 761.088 694.816 760.886 694.562C760.234 693.742 759.999 693.02 760.183 692.395C760.373 691.766 760.803 691.185 761.474 690.651L768.396 685.145L767.27 683.729L768.705 682.587L769.831 684.003L772.751 681.681Z" fill="#0C0C0C"/>
</g>
<defs>
<clipPath id="clip0">
<rect width="1920" height="1278" fill="white"/>
</clipPath>
</defs>
</svg>
